M48
; DRILL file {KiCad 5.1.4} date Thu 28 Nov 2019 12:41:29 AM CET
; FORMAT={-:-/ absolute / inch / decimal}
; #@! TF.CreationDate,2019-11-28T00:41:29+01:00
; #@! TF.GenerationSoftware,Kicad,Pcbnew,5.1.4
; #@! TF.FileFunction,Plated,1,4,PTH
FMAT,2
INCH
T1C0.0157
T2C0.0197
%
G90
G05
T1
X3.2677Y-3.8583
X3.2677Y-4.1339
X3.2987Y-4.1029
X3.3041Y-3.8819
X3.4055Y-3.9764
X3.4055Y-4.1732
X3.4646Y-3.5039
X3.4646Y-4.3701
X3.5433Y-4.1339
X3.563Y-3.5039
X3.622Y-4.0157
X3.6676Y-3.5142
X3.7008Y-3.4055
X3.7303Y-3.2776
X3.7402Y-4.4793
X3.7412Y-4.1821
X3.743Y-4.5444
X3.7795Y-4.0748
X3.7992Y-3.7008
X3.7997Y-4.3509
X3.8104Y-3.946
X3.8189Y-4.1821
X3.8346Y-3.3661
X3.8578Y-4.2515
X3.8583Y-3.622
X3.8583Y-3.8386
X3.878Y-3.4252
X3.878Y-4.4488
X3.9173Y-4.0266
X3.937Y-4.1929
X3.937Y-4.4291
X3.9567Y-3.9961
X3.9567Y-4.0551
X3.9764Y-3.6417
X3.9764Y-3.8386
X3.9764Y-4.2126
X4.0157Y-4.3898
X4.0157Y-4.5079
X4.0354Y-4.1732
X4.0551Y-3.8386
X4.0551Y-3.3268
X4.0945Y-3.5039
X4.0945Y-4.5276
X4.124Y-3.6024
X4.1339Y-3.2874
X4.147Y-4.0502
X4.1535Y-3.7402
X4.1535Y-4.2126
X4.1732Y-3.6417
X4.1732Y-3.8386
X4.2879Y-3.4269
X4.2913Y-3.7992
X4.2913Y-3.8583
X4.2913Y-3.9764
X4.2926Y-4.2944
X4.3504Y-4.1339
X4.3504Y-3.3858
X4.3903Y-3.6609
X4.3937Y-4.3346
X4.4094Y-3.7795
X4.4592Y-4.2229
X4.5079Y-3.8189
X4.5669Y-4.1732
T2
X4.3898Y-4.1339
X4.439Y-4.1339
X3.5827Y-3.8583
X3.6575Y-3.8583
T0
M30
