G04 #@! TF.GenerationSoftware,KiCad,Pcbnew,5.1.4*
G04 #@! TF.CreationDate,2019-11-28T00:41:57+01:00*
G04 #@! TF.ProjectId,SICKWATCH1,5349434b-5741-4544-9348-312e6b696361,rev?*
G04 #@! TF.SameCoordinates,Original*
G04 #@! TF.FileFunction,Soldermask,Bot*
G04 #@! TF.FilePolarity,Negative*
%FSLAX46Y46*%
G04 Gerber Fmt 4.6, Leading zero omitted, Abs format (unit mm)*
G04 Created by KiCad (PCBNEW 5.1.4) date 2019-11-28 00:41:57*
%MOMM*%
%LPD*%
G04 APERTURE LIST*
%ADD10C,0.100000*%
G04 APERTURE END LIST*
D10*
G36*
X102500000Y-116700000D02*
G01*
X97500000Y-116700000D01*
X97500000Y-115200000D01*
X102500000Y-115200000D01*
X102500000Y-116700000D01*
X102500000Y-116700000D01*
G37*
G36*
X96349116Y-115353595D02*
G01*
X96378311Y-115362452D01*
X96405223Y-115376837D01*
X96428808Y-115396192D01*
X96448163Y-115419777D01*
X96462548Y-115446689D01*
X96471405Y-115475884D01*
X96475000Y-115512390D01*
X96475000Y-116062610D01*
X96471405Y-116099116D01*
X96462548Y-116128311D01*
X96448163Y-116155223D01*
X96428808Y-116178808D01*
X96405223Y-116198163D01*
X96378311Y-116212548D01*
X96349116Y-116221405D01*
X96312610Y-116225000D01*
X95687390Y-116225000D01*
X95650884Y-116221405D01*
X95621689Y-116212548D01*
X95594777Y-116198163D01*
X95571192Y-116178808D01*
X95551837Y-116155223D01*
X95537452Y-116128311D01*
X95528595Y-116099116D01*
X95525000Y-116062610D01*
X95525000Y-115512390D01*
X95528595Y-115475884D01*
X95537452Y-115446689D01*
X95551837Y-115419777D01*
X95571192Y-115396192D01*
X95594777Y-115376837D01*
X95621689Y-115362452D01*
X95650884Y-115353595D01*
X95687390Y-115350000D01*
X96312610Y-115350000D01*
X96349116Y-115353595D01*
X96349116Y-115353595D01*
G37*
G36*
X96349116Y-113778595D02*
G01*
X96378311Y-113787452D01*
X96405223Y-113801837D01*
X96428808Y-113821192D01*
X96448163Y-113844777D01*
X96462548Y-113871689D01*
X96471405Y-113900884D01*
X96475000Y-113937390D01*
X96475000Y-114487610D01*
X96471405Y-114524116D01*
X96462548Y-114553311D01*
X96448163Y-114580223D01*
X96428808Y-114603808D01*
X96405223Y-114623163D01*
X96378311Y-114637548D01*
X96349116Y-114646405D01*
X96312610Y-114650000D01*
X95687390Y-114650000D01*
X95650884Y-114646405D01*
X95621689Y-114637548D01*
X95594777Y-114623163D01*
X95571192Y-114603808D01*
X95551837Y-114580223D01*
X95537452Y-114553311D01*
X95528595Y-114524116D01*
X95525000Y-114487610D01*
X95525000Y-113937390D01*
X95528595Y-113900884D01*
X95537452Y-113871689D01*
X95551837Y-113844777D01*
X95571192Y-113821192D01*
X95594777Y-113801837D01*
X95621689Y-113787452D01*
X95650884Y-113778595D01*
X95687390Y-113775000D01*
X96312610Y-113775000D01*
X96349116Y-113778595D01*
X96349116Y-113778595D01*
G37*
G36*
X102500000Y-110800000D02*
G01*
X97500000Y-110800000D01*
X97500000Y-109300000D01*
X102500000Y-109300000D01*
X102500000Y-110800000D01*
X102500000Y-110800000D01*
G37*
G36*
X91600000Y-110450000D02*
G01*
X90200000Y-110450000D01*
X90200000Y-109450000D01*
X91600000Y-109450000D01*
X91600000Y-110450000D01*
X91600000Y-110450000D01*
G37*
G36*
X111000000Y-110425000D02*
G01*
X109940000Y-110425000D01*
X109940000Y-109775000D01*
X111000000Y-109775000D01*
X111000000Y-110425000D01*
X111000000Y-110425000D01*
G37*
G36*
X108800000Y-110425000D02*
G01*
X107740000Y-110425000D01*
X107740000Y-109775000D01*
X108800000Y-109775000D01*
X108800000Y-110425000D01*
X108800000Y-110425000D01*
G37*
G36*
X93800000Y-110370000D02*
G01*
X92400000Y-110370000D01*
X92400000Y-109170000D01*
X93800000Y-109170000D01*
X93800000Y-110370000D01*
X93800000Y-110370000D01*
G37*
G36*
X106849116Y-109353595D02*
G01*
X106878311Y-109362452D01*
X106905223Y-109376837D01*
X106928808Y-109396192D01*
X106948163Y-109419777D01*
X106962548Y-109446689D01*
X106971405Y-109475884D01*
X106975000Y-109512390D01*
X106975000Y-110062610D01*
X106971405Y-110099116D01*
X106962548Y-110128311D01*
X106948163Y-110155223D01*
X106928808Y-110178808D01*
X106905223Y-110198163D01*
X106878311Y-110212548D01*
X106849116Y-110221405D01*
X106812610Y-110225000D01*
X106187390Y-110225000D01*
X106150884Y-110221405D01*
X106121689Y-110212548D01*
X106094777Y-110198163D01*
X106071192Y-110178808D01*
X106051837Y-110155223D01*
X106037452Y-110128311D01*
X106028595Y-110099116D01*
X106025000Y-110062610D01*
X106025000Y-109512390D01*
X106028595Y-109475884D01*
X106037452Y-109446689D01*
X106051837Y-109419777D01*
X106071192Y-109396192D01*
X106094777Y-109376837D01*
X106121689Y-109362452D01*
X106150884Y-109353595D01*
X106187390Y-109350000D01*
X106812610Y-109350000D01*
X106849116Y-109353595D01*
X106849116Y-109353595D01*
G37*
G36*
X113349116Y-109353595D02*
G01*
X113378311Y-109362452D01*
X113405223Y-109376837D01*
X113428808Y-109396192D01*
X113448163Y-109419777D01*
X113462548Y-109446689D01*
X113471405Y-109475884D01*
X113475000Y-109512390D01*
X113475000Y-110062610D01*
X113471405Y-110099116D01*
X113462548Y-110128311D01*
X113448163Y-110155223D01*
X113428808Y-110178808D01*
X113405223Y-110198163D01*
X113378311Y-110212548D01*
X113349116Y-110221405D01*
X113312610Y-110225000D01*
X112687390Y-110225000D01*
X112650884Y-110221405D01*
X112621689Y-110212548D01*
X112594777Y-110198163D01*
X112571192Y-110178808D01*
X112551837Y-110155223D01*
X112537452Y-110128311D01*
X112528595Y-110099116D01*
X112525000Y-110062610D01*
X112525000Y-109512390D01*
X112528595Y-109475884D01*
X112537452Y-109446689D01*
X112551837Y-109419777D01*
X112571192Y-109396192D01*
X112594777Y-109376837D01*
X112621689Y-109362452D01*
X112650884Y-109353595D01*
X112687390Y-109350000D01*
X113312610Y-109350000D01*
X113349116Y-109353595D01*
X113349116Y-109353595D01*
G37*
G36*
X108800000Y-109475000D02*
G01*
X107740000Y-109475000D01*
X107740000Y-108825000D01*
X108800000Y-108825000D01*
X108800000Y-109475000D01*
X108800000Y-109475000D01*
G37*
G36*
X106849116Y-107778595D02*
G01*
X106878311Y-107787452D01*
X106905223Y-107801837D01*
X106928808Y-107821192D01*
X106948163Y-107844777D01*
X106962548Y-107871689D01*
X106971405Y-107900884D01*
X106975000Y-107937390D01*
X106975000Y-108487610D01*
X106971405Y-108524116D01*
X106962548Y-108553311D01*
X106948163Y-108580223D01*
X106928808Y-108603808D01*
X106905223Y-108623163D01*
X106878311Y-108637548D01*
X106849116Y-108646405D01*
X106812610Y-108650000D01*
X106187390Y-108650000D01*
X106150884Y-108646405D01*
X106121689Y-108637548D01*
X106094777Y-108623163D01*
X106071192Y-108603808D01*
X106051837Y-108580223D01*
X106037452Y-108553311D01*
X106028595Y-108524116D01*
X106025000Y-108487610D01*
X106025000Y-107937390D01*
X106028595Y-107900884D01*
X106037452Y-107871689D01*
X106051837Y-107844777D01*
X106071192Y-107821192D01*
X106094777Y-107801837D01*
X106121689Y-107787452D01*
X106150884Y-107778595D01*
X106187390Y-107775000D01*
X106812610Y-107775000D01*
X106849116Y-107778595D01*
X106849116Y-107778595D01*
G37*
G36*
X113349116Y-107778595D02*
G01*
X113378311Y-107787452D01*
X113405223Y-107801837D01*
X113428808Y-107821192D01*
X113448163Y-107844777D01*
X113462548Y-107871689D01*
X113471405Y-107900884D01*
X113475000Y-107937390D01*
X113475000Y-108487610D01*
X113471405Y-108524116D01*
X113462548Y-108553311D01*
X113448163Y-108580223D01*
X113428808Y-108603808D01*
X113405223Y-108623163D01*
X113378311Y-108637548D01*
X113349116Y-108646405D01*
X113312610Y-108650000D01*
X112687390Y-108650000D01*
X112650884Y-108646405D01*
X112621689Y-108637548D01*
X112594777Y-108623163D01*
X112571192Y-108603808D01*
X112551837Y-108580223D01*
X112537452Y-108553311D01*
X112528595Y-108524116D01*
X112525000Y-108487610D01*
X112525000Y-107937390D01*
X112528595Y-107900884D01*
X112537452Y-107871689D01*
X112551837Y-107844777D01*
X112571192Y-107821192D01*
X112594777Y-107801837D01*
X112621689Y-107787452D01*
X112650884Y-107778595D01*
X112687390Y-107775000D01*
X113312610Y-107775000D01*
X113349116Y-107778595D01*
X113349116Y-107778595D01*
G37*
G36*
X91600000Y-108550000D02*
G01*
X90200000Y-108550000D01*
X90200000Y-107550000D01*
X91600000Y-107550000D01*
X91600000Y-108550000D01*
X91600000Y-108550000D01*
G37*
G36*
X93800000Y-108550000D02*
G01*
X92400000Y-108550000D01*
X92400000Y-107550000D01*
X93800000Y-107550000D01*
X93800000Y-108550000D01*
X93800000Y-108550000D01*
G37*
G36*
X85145843Y-107569214D02*
G01*
X85145846Y-107569215D01*
X85145845Y-107569215D01*
X85236839Y-107606906D01*
X85318731Y-107661625D01*
X85388375Y-107731269D01*
X85442229Y-107811866D01*
X85443095Y-107813163D01*
X85480786Y-107904157D01*
X85500000Y-108000753D01*
X85500000Y-108099247D01*
X85480786Y-108195843D01*
X85480785Y-108195845D01*
X85443094Y-108286839D01*
X85388375Y-108368731D01*
X85318731Y-108438375D01*
X85236839Y-108493094D01*
X85236838Y-108493095D01*
X85236837Y-108493095D01*
X85145843Y-108530786D01*
X85049247Y-108550000D01*
X84950753Y-108550000D01*
X84854157Y-108530786D01*
X84763163Y-108493095D01*
X84763162Y-108493095D01*
X84763161Y-108493094D01*
X84681269Y-108438375D01*
X84611625Y-108368731D01*
X84556906Y-108286839D01*
X84519215Y-108195845D01*
X84519214Y-108195843D01*
X84500000Y-108099247D01*
X84500000Y-108000753D01*
X84519214Y-107904157D01*
X84556905Y-107813163D01*
X84557772Y-107811866D01*
X84611625Y-107731269D01*
X84681269Y-107661625D01*
X84763161Y-107606906D01*
X84854155Y-107569215D01*
X84854154Y-107569215D01*
X84854157Y-107569214D01*
X84950753Y-107550000D01*
X85049247Y-107550000D01*
X85145843Y-107569214D01*
X85145843Y-107569214D01*
G37*
G36*
X111000000Y-108525000D02*
G01*
X109940000Y-108525000D01*
X109940000Y-107875000D01*
X111000000Y-107875000D01*
X111000000Y-108525000D01*
X111000000Y-108525000D01*
G37*
G36*
X108800000Y-108525000D02*
G01*
X107740000Y-108525000D01*
X107740000Y-107875000D01*
X108800000Y-107875000D01*
X108800000Y-108525000D01*
X108800000Y-108525000D01*
G37*
G36*
X88145843Y-107519214D02*
G01*
X88236837Y-107556905D01*
X88236839Y-107556906D01*
X88278063Y-107584451D01*
X88318730Y-107611624D01*
X88388376Y-107681270D01*
X88443095Y-107763163D01*
X88480786Y-107854157D01*
X88500000Y-107950753D01*
X88500000Y-108049247D01*
X88480786Y-108145843D01*
X88480785Y-108145845D01*
X88443094Y-108236839D01*
X88388375Y-108318731D01*
X88318731Y-108388375D01*
X88236839Y-108443094D01*
X88236838Y-108443095D01*
X88236837Y-108443095D01*
X88145843Y-108480786D01*
X88049247Y-108500000D01*
X87950753Y-108500000D01*
X87854157Y-108480786D01*
X87763163Y-108443095D01*
X87763162Y-108443095D01*
X87763161Y-108443094D01*
X87681269Y-108388375D01*
X87611625Y-108318731D01*
X87556906Y-108236839D01*
X87519215Y-108145845D01*
X87519214Y-108145843D01*
X87500000Y-108049247D01*
X87500000Y-107950753D01*
X87519214Y-107854157D01*
X87556905Y-107763163D01*
X87611624Y-107681270D01*
X87681270Y-107611624D01*
X87721937Y-107584451D01*
X87763161Y-107556906D01*
X87763163Y-107556905D01*
X87854157Y-107519214D01*
X87950753Y-107500000D01*
X88049247Y-107500000D01*
X88145843Y-107519214D01*
X88145843Y-107519214D01*
G37*
G36*
X109130000Y-106275000D02*
G01*
X108070000Y-106275000D01*
X108070000Y-105625000D01*
X109130000Y-105625000D01*
X109130000Y-106275000D01*
X109130000Y-106275000D01*
G37*
G36*
X106930000Y-106275000D02*
G01*
X105870000Y-106275000D01*
X105870000Y-105625000D01*
X106930000Y-105625000D01*
X106930000Y-106275000D01*
X106930000Y-106275000D01*
G37*
G36*
X112828413Y-104355788D02*
G01*
X112903813Y-104378660D01*
X112959787Y-104408579D01*
X112973304Y-104415804D01*
X113028122Y-104460792D01*
X113034211Y-104465789D01*
X113084197Y-104526697D01*
X113121340Y-104596186D01*
X113144212Y-104671586D01*
X113150000Y-104730353D01*
X113150000Y-105269647D01*
X113144212Y-105328414D01*
X113121340Y-105403814D01*
X113084197Y-105473303D01*
X113034211Y-105534211D01*
X112973303Y-105584197D01*
X112903814Y-105621340D01*
X112828414Y-105644212D01*
X112750000Y-105651935D01*
X112671587Y-105644212D01*
X112596187Y-105621340D01*
X112526698Y-105584197D01*
X112465790Y-105534211D01*
X112415804Y-105473303D01*
X112378661Y-105403814D01*
X112355789Y-105328414D01*
X112352885Y-105298926D01*
X112350000Y-105269645D01*
X112350000Y-104730354D01*
X112354232Y-104687390D01*
X112355788Y-104671587D01*
X112378660Y-104596187D01*
X112415803Y-104526698D01*
X112415804Y-104526696D01*
X112465789Y-104465789D01*
X112526696Y-104415804D01*
X112526695Y-104415804D01*
X112526697Y-104415803D01*
X112596186Y-104378660D01*
X112671586Y-104355788D01*
X112750000Y-104348065D01*
X112828413Y-104355788D01*
X112828413Y-104355788D01*
G37*
G36*
X111789208Y-104353235D02*
G01*
X111814886Y-104361025D01*
X111838557Y-104373677D01*
X111859300Y-104390700D01*
X111876323Y-104411443D01*
X111888975Y-104435114D01*
X111896765Y-104460792D01*
X111900000Y-104493640D01*
X111900000Y-105506360D01*
X111896765Y-105539208D01*
X111888975Y-105564886D01*
X111876323Y-105588557D01*
X111859300Y-105609300D01*
X111838557Y-105626323D01*
X111814886Y-105638975D01*
X111789208Y-105646765D01*
X111756360Y-105650000D01*
X111243640Y-105650000D01*
X111210792Y-105646765D01*
X111185114Y-105638975D01*
X111161443Y-105626323D01*
X111140700Y-105609300D01*
X111123677Y-105588557D01*
X111111025Y-105564886D01*
X111103235Y-105539208D01*
X111100000Y-105506360D01*
X111100000Y-104493640D01*
X111103235Y-104460792D01*
X111111025Y-104435114D01*
X111123677Y-104411443D01*
X111140700Y-104390700D01*
X111161443Y-104373677D01*
X111185114Y-104361025D01*
X111210792Y-104353235D01*
X111243640Y-104350000D01*
X111756360Y-104350000D01*
X111789208Y-104353235D01*
X111789208Y-104353235D01*
G37*
G36*
X88145843Y-104519214D02*
G01*
X88236837Y-104556905D01*
X88236839Y-104556906D01*
X88244262Y-104561866D01*
X88318730Y-104611624D01*
X88388376Y-104681270D01*
X88443095Y-104763163D01*
X88480786Y-104854157D01*
X88500000Y-104950753D01*
X88500000Y-105049247D01*
X88480786Y-105145843D01*
X88480785Y-105145845D01*
X88443094Y-105236839D01*
X88421172Y-105269647D01*
X88388376Y-105318730D01*
X88318730Y-105388376D01*
X88284975Y-105410930D01*
X88236839Y-105443094D01*
X88236838Y-105443095D01*
X88236837Y-105443095D01*
X88145843Y-105480786D01*
X88049247Y-105500000D01*
X87950753Y-105500000D01*
X87854157Y-105480786D01*
X87763163Y-105443095D01*
X87763162Y-105443095D01*
X87763161Y-105443094D01*
X87715025Y-105410930D01*
X87681270Y-105388376D01*
X87611624Y-105318730D01*
X87578828Y-105269647D01*
X87556906Y-105236839D01*
X87519215Y-105145845D01*
X87519214Y-105145843D01*
X87500000Y-105049247D01*
X87500000Y-104950753D01*
X87519214Y-104854157D01*
X87556905Y-104763163D01*
X87611624Y-104681270D01*
X87681270Y-104611624D01*
X87755738Y-104561866D01*
X87763161Y-104556906D01*
X87763163Y-104556905D01*
X87854157Y-104519214D01*
X87950753Y-104500000D01*
X88049247Y-104500000D01*
X88145843Y-104519214D01*
X88145843Y-104519214D01*
G37*
G36*
X85145843Y-104519214D02*
G01*
X85236837Y-104556905D01*
X85236839Y-104556906D01*
X85244262Y-104561866D01*
X85318730Y-104611624D01*
X85388376Y-104681270D01*
X85443095Y-104763163D01*
X85480786Y-104854157D01*
X85500000Y-104950753D01*
X85500000Y-105049247D01*
X85480786Y-105145843D01*
X85480785Y-105145845D01*
X85443094Y-105236839D01*
X85421172Y-105269647D01*
X85388376Y-105318730D01*
X85318730Y-105388376D01*
X85284975Y-105410930D01*
X85236839Y-105443094D01*
X85236838Y-105443095D01*
X85236837Y-105443095D01*
X85145843Y-105480786D01*
X85049247Y-105500000D01*
X84950753Y-105500000D01*
X84854157Y-105480786D01*
X84763163Y-105443095D01*
X84763162Y-105443095D01*
X84763161Y-105443094D01*
X84715025Y-105410930D01*
X84681270Y-105388376D01*
X84611624Y-105318730D01*
X84578828Y-105269647D01*
X84556906Y-105236839D01*
X84519215Y-105145845D01*
X84519214Y-105145843D01*
X84500000Y-105049247D01*
X84500000Y-104950753D01*
X84519214Y-104854157D01*
X84556905Y-104763163D01*
X84611624Y-104681270D01*
X84681270Y-104611624D01*
X84755738Y-104561866D01*
X84763161Y-104556906D01*
X84763163Y-104556905D01*
X84854157Y-104519214D01*
X84950753Y-104500000D01*
X85049247Y-104500000D01*
X85145843Y-104519214D01*
X85145843Y-104519214D01*
G37*
G36*
X91524116Y-104528595D02*
G01*
X91553311Y-104537452D01*
X91580223Y-104551837D01*
X91603808Y-104571192D01*
X91623163Y-104594777D01*
X91637548Y-104621689D01*
X91646405Y-104650884D01*
X91650000Y-104687390D01*
X91650000Y-105312610D01*
X91646405Y-105349116D01*
X91637548Y-105378311D01*
X91623163Y-105405223D01*
X91603808Y-105428808D01*
X91580223Y-105448163D01*
X91553311Y-105462548D01*
X91524116Y-105471405D01*
X91487610Y-105475000D01*
X90937390Y-105475000D01*
X90900884Y-105471405D01*
X90871689Y-105462548D01*
X90844777Y-105448163D01*
X90821192Y-105428808D01*
X90801837Y-105405223D01*
X90787452Y-105378311D01*
X90778595Y-105349116D01*
X90775000Y-105312610D01*
X90775000Y-104687390D01*
X90778595Y-104650884D01*
X90787452Y-104621689D01*
X90801837Y-104594777D01*
X90821192Y-104571192D01*
X90844777Y-104551837D01*
X90871689Y-104537452D01*
X90900884Y-104528595D01*
X90937390Y-104525000D01*
X91487610Y-104525000D01*
X91524116Y-104528595D01*
X91524116Y-104528595D01*
G37*
G36*
X93099116Y-104528595D02*
G01*
X93128311Y-104537452D01*
X93155223Y-104551837D01*
X93178808Y-104571192D01*
X93198163Y-104594777D01*
X93212548Y-104621689D01*
X93221405Y-104650884D01*
X93225000Y-104687390D01*
X93225000Y-105312610D01*
X93221405Y-105349116D01*
X93212548Y-105378311D01*
X93198163Y-105405223D01*
X93178808Y-105428808D01*
X93155223Y-105448163D01*
X93128311Y-105462548D01*
X93099116Y-105471405D01*
X93062610Y-105475000D01*
X92512390Y-105475000D01*
X92475884Y-105471405D01*
X92446689Y-105462548D01*
X92419777Y-105448163D01*
X92396192Y-105428808D01*
X92376837Y-105405223D01*
X92362452Y-105378311D01*
X92353595Y-105349116D01*
X92350000Y-105312610D01*
X92350000Y-104687390D01*
X92353595Y-104650884D01*
X92362452Y-104621689D01*
X92376837Y-104594777D01*
X92396192Y-104571192D01*
X92419777Y-104551837D01*
X92446689Y-104537452D01*
X92475884Y-104528595D01*
X92512390Y-104525000D01*
X93062610Y-104525000D01*
X93099116Y-104528595D01*
X93099116Y-104528595D01*
G37*
G36*
X109130000Y-105325000D02*
G01*
X108070000Y-105325000D01*
X108070000Y-104675000D01*
X109130000Y-104675000D01*
X109130000Y-105325000D01*
X109130000Y-105325000D01*
G37*
G36*
X109130000Y-104375000D02*
G01*
X108070000Y-104375000D01*
X108070000Y-103725000D01*
X109130000Y-103725000D01*
X109130000Y-104375000D01*
X109130000Y-104375000D01*
G37*
G36*
X106930000Y-104375000D02*
G01*
X105870000Y-104375000D01*
X105870000Y-103725000D01*
X106930000Y-103725000D01*
X106930000Y-104375000D01*
X106930000Y-104375000D01*
G37*
G36*
X116775000Y-103300000D02*
G01*
X115775000Y-103300000D01*
X115775000Y-101850000D01*
X116775000Y-101850000D01*
X116775000Y-103300000D01*
X116775000Y-103300000D01*
G37*
G36*
X118475000Y-103300000D02*
G01*
X117475000Y-103300000D01*
X117475000Y-101850000D01*
X118475000Y-101850000D01*
X118475000Y-103300000D01*
X118475000Y-103300000D01*
G37*
G36*
X104645843Y-101519214D02*
G01*
X104645846Y-101519215D01*
X104645845Y-101519215D01*
X104736839Y-101556906D01*
X104778063Y-101584451D01*
X104818730Y-101611624D01*
X104888376Y-101681270D01*
X104943095Y-101763163D01*
X104980786Y-101854157D01*
X105000000Y-101950753D01*
X105000000Y-102049247D01*
X104980786Y-102145843D01*
X104974537Y-102160930D01*
X104943094Y-102236839D01*
X104888375Y-102318731D01*
X104818731Y-102388375D01*
X104736839Y-102443094D01*
X104736838Y-102443095D01*
X104736837Y-102443095D01*
X104645843Y-102480786D01*
X104549247Y-102500000D01*
X104450753Y-102500000D01*
X104354157Y-102480786D01*
X104263163Y-102443095D01*
X104263162Y-102443095D01*
X104263161Y-102443094D01*
X104181269Y-102388375D01*
X104111625Y-102318731D01*
X104056906Y-102236839D01*
X104025463Y-102160930D01*
X104019214Y-102145843D01*
X104000000Y-102049247D01*
X104000000Y-101950753D01*
X104019214Y-101854157D01*
X104056905Y-101763163D01*
X104111624Y-101681270D01*
X104181270Y-101611624D01*
X104221937Y-101584451D01*
X104263161Y-101556906D01*
X104354155Y-101519215D01*
X104354154Y-101519215D01*
X104354157Y-101519214D01*
X104450753Y-101500000D01*
X104549247Y-101500000D01*
X104645843Y-101519214D01*
X104645843Y-101519214D01*
G37*
G36*
X93849116Y-101353595D02*
G01*
X93878311Y-101362452D01*
X93905223Y-101376837D01*
X93928808Y-101396192D01*
X93948163Y-101419777D01*
X93962548Y-101446689D01*
X93971405Y-101475884D01*
X93975000Y-101512390D01*
X93975000Y-102062610D01*
X93971405Y-102099116D01*
X93962548Y-102128311D01*
X93948163Y-102155223D01*
X93928808Y-102178808D01*
X93905223Y-102198163D01*
X93878311Y-102212548D01*
X93849116Y-102221405D01*
X93812610Y-102225000D01*
X93187390Y-102225000D01*
X93150884Y-102221405D01*
X93121689Y-102212548D01*
X93094777Y-102198163D01*
X93071192Y-102178808D01*
X93051837Y-102155223D01*
X93037452Y-102128311D01*
X93028595Y-102099116D01*
X93025000Y-102062610D01*
X93025000Y-101512390D01*
X93028595Y-101475884D01*
X93037452Y-101446689D01*
X93051837Y-101419777D01*
X93071192Y-101396192D01*
X93094777Y-101376837D01*
X93121689Y-101362452D01*
X93150884Y-101353595D01*
X93187390Y-101350000D01*
X93812610Y-101350000D01*
X93849116Y-101353595D01*
X93849116Y-101353595D01*
G37*
G36*
X90849116Y-101353595D02*
G01*
X90878311Y-101362452D01*
X90905223Y-101376837D01*
X90928808Y-101396192D01*
X90948163Y-101419777D01*
X90962548Y-101446689D01*
X90971405Y-101475884D01*
X90975000Y-101512390D01*
X90975000Y-102062610D01*
X90971405Y-102099116D01*
X90962548Y-102128311D01*
X90948163Y-102155223D01*
X90928808Y-102178808D01*
X90905223Y-102198163D01*
X90878311Y-102212548D01*
X90849116Y-102221405D01*
X90812610Y-102225000D01*
X90187390Y-102225000D01*
X90150884Y-102221405D01*
X90121689Y-102212548D01*
X90094777Y-102198163D01*
X90071192Y-102178808D01*
X90051837Y-102155223D01*
X90037452Y-102128311D01*
X90028595Y-102099116D01*
X90025000Y-102062610D01*
X90025000Y-101512390D01*
X90028595Y-101475884D01*
X90037452Y-101446689D01*
X90051837Y-101419777D01*
X90071192Y-101396192D01*
X90094777Y-101376837D01*
X90121689Y-101362452D01*
X90150884Y-101353595D01*
X90187390Y-101350000D01*
X90812610Y-101350000D01*
X90849116Y-101353595D01*
X90849116Y-101353595D01*
G37*
G36*
X87849116Y-101353595D02*
G01*
X87878311Y-101362452D01*
X87905223Y-101376837D01*
X87928808Y-101396192D01*
X87948163Y-101419777D01*
X87962548Y-101446689D01*
X87971405Y-101475884D01*
X87975000Y-101512390D01*
X87975000Y-102062610D01*
X87971405Y-102099116D01*
X87962548Y-102128311D01*
X87948163Y-102155223D01*
X87928808Y-102178808D01*
X87905223Y-102198163D01*
X87878311Y-102212548D01*
X87849116Y-102221405D01*
X87812610Y-102225000D01*
X87187390Y-102225000D01*
X87150884Y-102221405D01*
X87121689Y-102212548D01*
X87094777Y-102198163D01*
X87071192Y-102178808D01*
X87051837Y-102155223D01*
X87037452Y-102128311D01*
X87028595Y-102099116D01*
X87025000Y-102062610D01*
X87025000Y-101512390D01*
X87028595Y-101475884D01*
X87037452Y-101446689D01*
X87051837Y-101419777D01*
X87071192Y-101396192D01*
X87094777Y-101376837D01*
X87121689Y-101362452D01*
X87150884Y-101353595D01*
X87187390Y-101350000D01*
X87812610Y-101350000D01*
X87849116Y-101353595D01*
X87849116Y-101353595D01*
G37*
G36*
X84849116Y-101353595D02*
G01*
X84878311Y-101362452D01*
X84905223Y-101376837D01*
X84928808Y-101396192D01*
X84948163Y-101419777D01*
X84962548Y-101446689D01*
X84971405Y-101475884D01*
X84975000Y-101512390D01*
X84975000Y-102062610D01*
X84971405Y-102099116D01*
X84962548Y-102128311D01*
X84948163Y-102155223D01*
X84928808Y-102178808D01*
X84905223Y-102198163D01*
X84878311Y-102212548D01*
X84849116Y-102221405D01*
X84812610Y-102225000D01*
X84187390Y-102225000D01*
X84150884Y-102221405D01*
X84121689Y-102212548D01*
X84094777Y-102198163D01*
X84071192Y-102178808D01*
X84051837Y-102155223D01*
X84037452Y-102128311D01*
X84028595Y-102099116D01*
X84025000Y-102062610D01*
X84025000Y-101512390D01*
X84028595Y-101475884D01*
X84037452Y-101446689D01*
X84051837Y-101419777D01*
X84071192Y-101396192D01*
X84094777Y-101376837D01*
X84121689Y-101362452D01*
X84150884Y-101353595D01*
X84187390Y-101350000D01*
X84812610Y-101350000D01*
X84849116Y-101353595D01*
X84849116Y-101353595D01*
G37*
G36*
X106524116Y-100528595D02*
G01*
X106553311Y-100537452D01*
X106580223Y-100551837D01*
X106603808Y-100571192D01*
X106623163Y-100594777D01*
X106637548Y-100621689D01*
X106646405Y-100650884D01*
X106650000Y-100687390D01*
X106650000Y-101312610D01*
X106646405Y-101349116D01*
X106637548Y-101378311D01*
X106623163Y-101405223D01*
X106603808Y-101428808D01*
X106580223Y-101448163D01*
X106553311Y-101462548D01*
X106524116Y-101471405D01*
X106487610Y-101475000D01*
X105937390Y-101475000D01*
X105900884Y-101471405D01*
X105871689Y-101462548D01*
X105844777Y-101448163D01*
X105821192Y-101428808D01*
X105801837Y-101405223D01*
X105787452Y-101378311D01*
X105778595Y-101349116D01*
X105775000Y-101312610D01*
X105775000Y-100687390D01*
X105778595Y-100650884D01*
X105787452Y-100621689D01*
X105801837Y-100594777D01*
X105821192Y-100571192D01*
X105844777Y-100551837D01*
X105871689Y-100537452D01*
X105900884Y-100528595D01*
X105937390Y-100525000D01*
X106487610Y-100525000D01*
X106524116Y-100528595D01*
X106524116Y-100528595D01*
G37*
G36*
X108099116Y-100528595D02*
G01*
X108128311Y-100537452D01*
X108155223Y-100551837D01*
X108178808Y-100571192D01*
X108198163Y-100594777D01*
X108212548Y-100621689D01*
X108221405Y-100650884D01*
X108225000Y-100687390D01*
X108225000Y-101312610D01*
X108221405Y-101349116D01*
X108212548Y-101378311D01*
X108198163Y-101405223D01*
X108178808Y-101428808D01*
X108155223Y-101448163D01*
X108128311Y-101462548D01*
X108099116Y-101471405D01*
X108062610Y-101475000D01*
X107512390Y-101475000D01*
X107475884Y-101471405D01*
X107446689Y-101462548D01*
X107419777Y-101448163D01*
X107396192Y-101428808D01*
X107376837Y-101405223D01*
X107362452Y-101378311D01*
X107353595Y-101349116D01*
X107350000Y-101312610D01*
X107350000Y-100687390D01*
X107353595Y-100650884D01*
X107362452Y-100621689D01*
X107376837Y-100594777D01*
X107396192Y-100571192D01*
X107419777Y-100551837D01*
X107446689Y-100537452D01*
X107475884Y-100528595D01*
X107512390Y-100525000D01*
X108062610Y-100525000D01*
X108099116Y-100528595D01*
X108099116Y-100528595D01*
G37*
G36*
X95349116Y-99853595D02*
G01*
X95378311Y-99862452D01*
X95405223Y-99876837D01*
X95428808Y-99896192D01*
X95448163Y-99919777D01*
X95462548Y-99946689D01*
X95471405Y-99975884D01*
X95475000Y-100012390D01*
X95475000Y-100562610D01*
X95471405Y-100599116D01*
X95462548Y-100628311D01*
X95448163Y-100655223D01*
X95428808Y-100678808D01*
X95405223Y-100698163D01*
X95378311Y-100712548D01*
X95349116Y-100721405D01*
X95312610Y-100725000D01*
X94687390Y-100725000D01*
X94650884Y-100721405D01*
X94621689Y-100712548D01*
X94594777Y-100698163D01*
X94571192Y-100678808D01*
X94551837Y-100655223D01*
X94537452Y-100628311D01*
X94528595Y-100599116D01*
X94525000Y-100562610D01*
X94525000Y-100012390D01*
X94528595Y-99975884D01*
X94537452Y-99946689D01*
X94551837Y-99919777D01*
X94571192Y-99896192D01*
X94594777Y-99876837D01*
X94621689Y-99862452D01*
X94650884Y-99853595D01*
X94687390Y-99850000D01*
X95312610Y-99850000D01*
X95349116Y-99853595D01*
X95349116Y-99853595D01*
G37*
G36*
X98349116Y-99853595D02*
G01*
X98378311Y-99862452D01*
X98405223Y-99876837D01*
X98428808Y-99896192D01*
X98448163Y-99919777D01*
X98462548Y-99946689D01*
X98471405Y-99975884D01*
X98475000Y-100012390D01*
X98475000Y-100562610D01*
X98471405Y-100599116D01*
X98462548Y-100628311D01*
X98448163Y-100655223D01*
X98428808Y-100678808D01*
X98405223Y-100698163D01*
X98378311Y-100712548D01*
X98349116Y-100721405D01*
X98312610Y-100725000D01*
X97687390Y-100725000D01*
X97650884Y-100721405D01*
X97621689Y-100712548D01*
X97594777Y-100698163D01*
X97571192Y-100678808D01*
X97551837Y-100655223D01*
X97537452Y-100628311D01*
X97528595Y-100599116D01*
X97525000Y-100562610D01*
X97525000Y-100012390D01*
X97528595Y-99975884D01*
X97537452Y-99946689D01*
X97551837Y-99919777D01*
X97571192Y-99896192D01*
X97594777Y-99876837D01*
X97621689Y-99862452D01*
X97650884Y-99853595D01*
X97687390Y-99850000D01*
X98312610Y-99850000D01*
X98349116Y-99853595D01*
X98349116Y-99853595D01*
G37*
G36*
X101349116Y-99853595D02*
G01*
X101378311Y-99862452D01*
X101405223Y-99876837D01*
X101428808Y-99896192D01*
X101448163Y-99919777D01*
X101462548Y-99946689D01*
X101471405Y-99975884D01*
X101475000Y-100012390D01*
X101475000Y-100562610D01*
X101471405Y-100599116D01*
X101462548Y-100628311D01*
X101448163Y-100655223D01*
X101428808Y-100678808D01*
X101405223Y-100698163D01*
X101378311Y-100712548D01*
X101349116Y-100721405D01*
X101312610Y-100725000D01*
X100687390Y-100725000D01*
X100650884Y-100721405D01*
X100621689Y-100712548D01*
X100594777Y-100698163D01*
X100571192Y-100678808D01*
X100551837Y-100655223D01*
X100537452Y-100628311D01*
X100528595Y-100599116D01*
X100525000Y-100562610D01*
X100525000Y-100012390D01*
X100528595Y-99975884D01*
X100537452Y-99946689D01*
X100551837Y-99919777D01*
X100571192Y-99896192D01*
X100594777Y-99876837D01*
X100621689Y-99862452D01*
X100650884Y-99853595D01*
X100687390Y-99850000D01*
X101312610Y-99850000D01*
X101349116Y-99853595D01*
X101349116Y-99853595D01*
G37*
G36*
X104349116Y-99853595D02*
G01*
X104378311Y-99862452D01*
X104405223Y-99876837D01*
X104428808Y-99896192D01*
X104448163Y-99919777D01*
X104462548Y-99946689D01*
X104471405Y-99975884D01*
X104475000Y-100012390D01*
X104475000Y-100562610D01*
X104471405Y-100599116D01*
X104462548Y-100628311D01*
X104448163Y-100655223D01*
X104428808Y-100678808D01*
X104405223Y-100698163D01*
X104378311Y-100712548D01*
X104349116Y-100721405D01*
X104312610Y-100725000D01*
X103687390Y-100725000D01*
X103650884Y-100721405D01*
X103621689Y-100712548D01*
X103594777Y-100698163D01*
X103571192Y-100678808D01*
X103551837Y-100655223D01*
X103537452Y-100628311D01*
X103528595Y-100599116D01*
X103525000Y-100562610D01*
X103525000Y-100012390D01*
X103528595Y-99975884D01*
X103537452Y-99946689D01*
X103551837Y-99919777D01*
X103571192Y-99896192D01*
X103594777Y-99876837D01*
X103621689Y-99862452D01*
X103650884Y-99853595D01*
X103687390Y-99850000D01*
X104312610Y-99850000D01*
X104349116Y-99853595D01*
X104349116Y-99853595D01*
G37*
G36*
X90849116Y-99778595D02*
G01*
X90878311Y-99787452D01*
X90905223Y-99801837D01*
X90928808Y-99821192D01*
X90948163Y-99844777D01*
X90962548Y-99871689D01*
X90971405Y-99900884D01*
X90975000Y-99937390D01*
X90975000Y-100487610D01*
X90971405Y-100524116D01*
X90962548Y-100553311D01*
X90948163Y-100580223D01*
X90928808Y-100603808D01*
X90905223Y-100623163D01*
X90878311Y-100637548D01*
X90849116Y-100646405D01*
X90812610Y-100650000D01*
X90187390Y-100650000D01*
X90150884Y-100646405D01*
X90121689Y-100637548D01*
X90094777Y-100623163D01*
X90071192Y-100603808D01*
X90051837Y-100580223D01*
X90037452Y-100553311D01*
X90028595Y-100524116D01*
X90025000Y-100487610D01*
X90025000Y-99937390D01*
X90028595Y-99900884D01*
X90037452Y-99871689D01*
X90051837Y-99844777D01*
X90071192Y-99821192D01*
X90094777Y-99801837D01*
X90121689Y-99787452D01*
X90150884Y-99778595D01*
X90187390Y-99775000D01*
X90812610Y-99775000D01*
X90849116Y-99778595D01*
X90849116Y-99778595D01*
G37*
G36*
X93849116Y-99778595D02*
G01*
X93878311Y-99787452D01*
X93905223Y-99801837D01*
X93928808Y-99821192D01*
X93948163Y-99844777D01*
X93962548Y-99871689D01*
X93971405Y-99900884D01*
X93975000Y-99937390D01*
X93975000Y-100487610D01*
X93971405Y-100524116D01*
X93962548Y-100553311D01*
X93948163Y-100580223D01*
X93928808Y-100603808D01*
X93905223Y-100623163D01*
X93878311Y-100637548D01*
X93849116Y-100646405D01*
X93812610Y-100650000D01*
X93187390Y-100650000D01*
X93150884Y-100646405D01*
X93121689Y-100637548D01*
X93094777Y-100623163D01*
X93071192Y-100603808D01*
X93051837Y-100580223D01*
X93037452Y-100553311D01*
X93028595Y-100524116D01*
X93025000Y-100487610D01*
X93025000Y-99937390D01*
X93028595Y-99900884D01*
X93037452Y-99871689D01*
X93051837Y-99844777D01*
X93071192Y-99821192D01*
X93094777Y-99801837D01*
X93121689Y-99787452D01*
X93150884Y-99778595D01*
X93187390Y-99775000D01*
X93812610Y-99775000D01*
X93849116Y-99778595D01*
X93849116Y-99778595D01*
G37*
G36*
X84849116Y-99778595D02*
G01*
X84878311Y-99787452D01*
X84905223Y-99801837D01*
X84928808Y-99821192D01*
X84948163Y-99844777D01*
X84962548Y-99871689D01*
X84971405Y-99900884D01*
X84975000Y-99937390D01*
X84975000Y-100487610D01*
X84971405Y-100524116D01*
X84962548Y-100553311D01*
X84948163Y-100580223D01*
X84928808Y-100603808D01*
X84905223Y-100623163D01*
X84878311Y-100637548D01*
X84849116Y-100646405D01*
X84812610Y-100650000D01*
X84187390Y-100650000D01*
X84150884Y-100646405D01*
X84121689Y-100637548D01*
X84094777Y-100623163D01*
X84071192Y-100603808D01*
X84051837Y-100580223D01*
X84037452Y-100553311D01*
X84028595Y-100524116D01*
X84025000Y-100487610D01*
X84025000Y-99937390D01*
X84028595Y-99900884D01*
X84037452Y-99871689D01*
X84051837Y-99844777D01*
X84071192Y-99821192D01*
X84094777Y-99801837D01*
X84121689Y-99787452D01*
X84150884Y-99778595D01*
X84187390Y-99775000D01*
X84812610Y-99775000D01*
X84849116Y-99778595D01*
X84849116Y-99778595D01*
G37*
G36*
X87849116Y-99778595D02*
G01*
X87878311Y-99787452D01*
X87905223Y-99801837D01*
X87928808Y-99821192D01*
X87948163Y-99844777D01*
X87962548Y-99871689D01*
X87971405Y-99900884D01*
X87975000Y-99937390D01*
X87975000Y-100487610D01*
X87971405Y-100524116D01*
X87962548Y-100553311D01*
X87948163Y-100580223D01*
X87928808Y-100603808D01*
X87905223Y-100623163D01*
X87878311Y-100637548D01*
X87849116Y-100646405D01*
X87812610Y-100650000D01*
X87187390Y-100650000D01*
X87150884Y-100646405D01*
X87121689Y-100637548D01*
X87094777Y-100623163D01*
X87071192Y-100603808D01*
X87051837Y-100580223D01*
X87037452Y-100553311D01*
X87028595Y-100524116D01*
X87025000Y-100487610D01*
X87025000Y-99937390D01*
X87028595Y-99900884D01*
X87037452Y-99871689D01*
X87051837Y-99844777D01*
X87071192Y-99821192D01*
X87094777Y-99801837D01*
X87121689Y-99787452D01*
X87150884Y-99778595D01*
X87187390Y-99775000D01*
X87812610Y-99775000D01*
X87849116Y-99778595D01*
X87849116Y-99778595D01*
G37*
G36*
X104349116Y-98278595D02*
G01*
X104378311Y-98287452D01*
X104405223Y-98301837D01*
X104428808Y-98321192D01*
X104448163Y-98344777D01*
X104462548Y-98371689D01*
X104471405Y-98400884D01*
X104475000Y-98437390D01*
X104475000Y-98987610D01*
X104471405Y-99024116D01*
X104462548Y-99053311D01*
X104448163Y-99080223D01*
X104428808Y-99103808D01*
X104405223Y-99123163D01*
X104378311Y-99137548D01*
X104349116Y-99146405D01*
X104312610Y-99150000D01*
X103687390Y-99150000D01*
X103650884Y-99146405D01*
X103621689Y-99137548D01*
X103594777Y-99123163D01*
X103571192Y-99103808D01*
X103551837Y-99080223D01*
X103537452Y-99053311D01*
X103528595Y-99024116D01*
X103525000Y-98987610D01*
X103525000Y-98437390D01*
X103528595Y-98400884D01*
X103537452Y-98371689D01*
X103551837Y-98344777D01*
X103571192Y-98321192D01*
X103594777Y-98301837D01*
X103621689Y-98287452D01*
X103650884Y-98278595D01*
X103687390Y-98275000D01*
X104312610Y-98275000D01*
X104349116Y-98278595D01*
X104349116Y-98278595D01*
G37*
G36*
X101349116Y-98278595D02*
G01*
X101378311Y-98287452D01*
X101405223Y-98301837D01*
X101428808Y-98321192D01*
X101448163Y-98344777D01*
X101462548Y-98371689D01*
X101471405Y-98400884D01*
X101475000Y-98437390D01*
X101475000Y-98987610D01*
X101471405Y-99024116D01*
X101462548Y-99053311D01*
X101448163Y-99080223D01*
X101428808Y-99103808D01*
X101405223Y-99123163D01*
X101378311Y-99137548D01*
X101349116Y-99146405D01*
X101312610Y-99150000D01*
X100687390Y-99150000D01*
X100650884Y-99146405D01*
X100621689Y-99137548D01*
X100594777Y-99123163D01*
X100571192Y-99103808D01*
X100551837Y-99080223D01*
X100537452Y-99053311D01*
X100528595Y-99024116D01*
X100525000Y-98987610D01*
X100525000Y-98437390D01*
X100528595Y-98400884D01*
X100537452Y-98371689D01*
X100551837Y-98344777D01*
X100571192Y-98321192D01*
X100594777Y-98301837D01*
X100621689Y-98287452D01*
X100650884Y-98278595D01*
X100687390Y-98275000D01*
X101312610Y-98275000D01*
X101349116Y-98278595D01*
X101349116Y-98278595D01*
G37*
G36*
X98349116Y-98278595D02*
G01*
X98378311Y-98287452D01*
X98405223Y-98301837D01*
X98428808Y-98321192D01*
X98448163Y-98344777D01*
X98462548Y-98371689D01*
X98471405Y-98400884D01*
X98475000Y-98437390D01*
X98475000Y-98987610D01*
X98471405Y-99024116D01*
X98462548Y-99053311D01*
X98448163Y-99080223D01*
X98428808Y-99103808D01*
X98405223Y-99123163D01*
X98378311Y-99137548D01*
X98349116Y-99146405D01*
X98312610Y-99150000D01*
X97687390Y-99150000D01*
X97650884Y-99146405D01*
X97621689Y-99137548D01*
X97594777Y-99123163D01*
X97571192Y-99103808D01*
X97551837Y-99080223D01*
X97537452Y-99053311D01*
X97528595Y-99024116D01*
X97525000Y-98987610D01*
X97525000Y-98437390D01*
X97528595Y-98400884D01*
X97537452Y-98371689D01*
X97551837Y-98344777D01*
X97571192Y-98321192D01*
X97594777Y-98301837D01*
X97621689Y-98287452D01*
X97650884Y-98278595D01*
X97687390Y-98275000D01*
X98312610Y-98275000D01*
X98349116Y-98278595D01*
X98349116Y-98278595D01*
G37*
G36*
X95349116Y-98278595D02*
G01*
X95378311Y-98287452D01*
X95405223Y-98301837D01*
X95428808Y-98321192D01*
X95448163Y-98344777D01*
X95462548Y-98371689D01*
X95471405Y-98400884D01*
X95475000Y-98437390D01*
X95475000Y-98987610D01*
X95471405Y-99024116D01*
X95462548Y-99053311D01*
X95448163Y-99080223D01*
X95428808Y-99103808D01*
X95405223Y-99123163D01*
X95378311Y-99137548D01*
X95349116Y-99146405D01*
X95312610Y-99150000D01*
X94687390Y-99150000D01*
X94650884Y-99146405D01*
X94621689Y-99137548D01*
X94594777Y-99123163D01*
X94571192Y-99103808D01*
X94551837Y-99080223D01*
X94537452Y-99053311D01*
X94528595Y-99024116D01*
X94525000Y-98987610D01*
X94525000Y-98437390D01*
X94528595Y-98400884D01*
X94537452Y-98371689D01*
X94551837Y-98344777D01*
X94571192Y-98321192D01*
X94594777Y-98301837D01*
X94621689Y-98287452D01*
X94650884Y-98278595D01*
X94687390Y-98275000D01*
X95312610Y-98275000D01*
X95349116Y-98278595D01*
X95349116Y-98278595D01*
G37*
G36*
X113145843Y-97519214D02*
G01*
X113236837Y-97556905D01*
X113236839Y-97556906D01*
X113244262Y-97561866D01*
X113318730Y-97611624D01*
X113388376Y-97681270D01*
X113443095Y-97763163D01*
X113480786Y-97854157D01*
X113500000Y-97950753D01*
X113500000Y-98049247D01*
X113480786Y-98145843D01*
X113443095Y-98236837D01*
X113388376Y-98318730D01*
X113318730Y-98388376D01*
X113286310Y-98410038D01*
X113236839Y-98443094D01*
X113236838Y-98443095D01*
X113236837Y-98443095D01*
X113145843Y-98480786D01*
X113049247Y-98500000D01*
X112950753Y-98500000D01*
X112854157Y-98480786D01*
X112763163Y-98443095D01*
X112763162Y-98443095D01*
X112763161Y-98443094D01*
X112713690Y-98410038D01*
X112681270Y-98388376D01*
X112611624Y-98318730D01*
X112556905Y-98236837D01*
X112519214Y-98145843D01*
X112500000Y-98049247D01*
X112500000Y-97950753D01*
X112519214Y-97854157D01*
X112556905Y-97763163D01*
X112611624Y-97681270D01*
X112681270Y-97611624D01*
X112755738Y-97561866D01*
X112763161Y-97556906D01*
X112763163Y-97556905D01*
X112854157Y-97519214D01*
X112950753Y-97500000D01*
X113049247Y-97500000D01*
X113145843Y-97519214D01*
X113145843Y-97519214D01*
G37*
G36*
X110145843Y-97519214D02*
G01*
X110236837Y-97556905D01*
X110236839Y-97556906D01*
X110244262Y-97561866D01*
X110318730Y-97611624D01*
X110388376Y-97681270D01*
X110443095Y-97763163D01*
X110480786Y-97854157D01*
X110500000Y-97950753D01*
X110500000Y-98049247D01*
X110480786Y-98145843D01*
X110443095Y-98236837D01*
X110388376Y-98318730D01*
X110318730Y-98388376D01*
X110286310Y-98410038D01*
X110236839Y-98443094D01*
X110236838Y-98443095D01*
X110236837Y-98443095D01*
X110145843Y-98480786D01*
X110049247Y-98500000D01*
X109950753Y-98500000D01*
X109854157Y-98480786D01*
X109763163Y-98443095D01*
X109763162Y-98443095D01*
X109763161Y-98443094D01*
X109713690Y-98410038D01*
X109681270Y-98388376D01*
X109611624Y-98318730D01*
X109556905Y-98236837D01*
X109519214Y-98145843D01*
X109500000Y-98049247D01*
X109500000Y-97950753D01*
X109519214Y-97854157D01*
X109556905Y-97763163D01*
X109611624Y-97681270D01*
X109681270Y-97611624D01*
X109755738Y-97561866D01*
X109763161Y-97556906D01*
X109763163Y-97556905D01*
X109854157Y-97519214D01*
X109950753Y-97500000D01*
X110049247Y-97500000D01*
X110145843Y-97519214D01*
X110145843Y-97519214D01*
G37*
G36*
X93045843Y-97519214D02*
G01*
X93136837Y-97556905D01*
X93136839Y-97556906D01*
X93144262Y-97561866D01*
X93218730Y-97611624D01*
X93288376Y-97681270D01*
X93343095Y-97763163D01*
X93380786Y-97854157D01*
X93400000Y-97950753D01*
X93400000Y-98049247D01*
X93380786Y-98145843D01*
X93343095Y-98236837D01*
X93288376Y-98318730D01*
X93218730Y-98388376D01*
X93186310Y-98410038D01*
X93136839Y-98443094D01*
X93136838Y-98443095D01*
X93136837Y-98443095D01*
X93045843Y-98480786D01*
X92949247Y-98500000D01*
X92850753Y-98500000D01*
X92754157Y-98480786D01*
X92663163Y-98443095D01*
X92663162Y-98443095D01*
X92663161Y-98443094D01*
X92613690Y-98410038D01*
X92581270Y-98388376D01*
X92511624Y-98318730D01*
X92456905Y-98236837D01*
X92419214Y-98145843D01*
X92400000Y-98049247D01*
X92400000Y-97950753D01*
X92419214Y-97854157D01*
X92456905Y-97763163D01*
X92511624Y-97681270D01*
X92581270Y-97611624D01*
X92655738Y-97561866D01*
X92663161Y-97556906D01*
X92663163Y-97556905D01*
X92754157Y-97519214D01*
X92850753Y-97500000D01*
X92949247Y-97500000D01*
X93045843Y-97519214D01*
X93045843Y-97519214D01*
G37*
G36*
X91145843Y-97519214D02*
G01*
X91236837Y-97556905D01*
X91236839Y-97556906D01*
X91244262Y-97561866D01*
X91318730Y-97611624D01*
X91388376Y-97681270D01*
X91443095Y-97763163D01*
X91480786Y-97854157D01*
X91500000Y-97950753D01*
X91500000Y-98049247D01*
X91480786Y-98145843D01*
X91443095Y-98236837D01*
X91388376Y-98318730D01*
X91318730Y-98388376D01*
X91286310Y-98410038D01*
X91236839Y-98443094D01*
X91236838Y-98443095D01*
X91236837Y-98443095D01*
X91145843Y-98480786D01*
X91049247Y-98500000D01*
X90950753Y-98500000D01*
X90854157Y-98480786D01*
X90763163Y-98443095D01*
X90763162Y-98443095D01*
X90763161Y-98443094D01*
X90713690Y-98410038D01*
X90681270Y-98388376D01*
X90611624Y-98318730D01*
X90556905Y-98236837D01*
X90519214Y-98145843D01*
X90500000Y-98049247D01*
X90500000Y-97950753D01*
X90519214Y-97854157D01*
X90556905Y-97763163D01*
X90611624Y-97681270D01*
X90681270Y-97611624D01*
X90755738Y-97561866D01*
X90763161Y-97556906D01*
X90763163Y-97556905D01*
X90854157Y-97519214D01*
X90950753Y-97500000D01*
X91049247Y-97500000D01*
X91145843Y-97519214D01*
X91145843Y-97519214D01*
G37*
G36*
X108099116Y-97528595D02*
G01*
X108128311Y-97537452D01*
X108155223Y-97551837D01*
X108178808Y-97571192D01*
X108198163Y-97594777D01*
X108212548Y-97621689D01*
X108221405Y-97650884D01*
X108225000Y-97687390D01*
X108225000Y-98312610D01*
X108221405Y-98349116D01*
X108212548Y-98378311D01*
X108198163Y-98405223D01*
X108178808Y-98428808D01*
X108155223Y-98448163D01*
X108128311Y-98462548D01*
X108099116Y-98471405D01*
X108062610Y-98475000D01*
X107512390Y-98475000D01*
X107475884Y-98471405D01*
X107446689Y-98462548D01*
X107419777Y-98448163D01*
X107396192Y-98428808D01*
X107376837Y-98405223D01*
X107362452Y-98378311D01*
X107353595Y-98349116D01*
X107350000Y-98312610D01*
X107350000Y-97687390D01*
X107353595Y-97650884D01*
X107362452Y-97621689D01*
X107376837Y-97594777D01*
X107396192Y-97571192D01*
X107419777Y-97551837D01*
X107446689Y-97537452D01*
X107475884Y-97528595D01*
X107512390Y-97525000D01*
X108062610Y-97525000D01*
X108099116Y-97528595D01*
X108099116Y-97528595D01*
G37*
G36*
X106524116Y-97528595D02*
G01*
X106553311Y-97537452D01*
X106580223Y-97551837D01*
X106603808Y-97571192D01*
X106623163Y-97594777D01*
X106637548Y-97621689D01*
X106646405Y-97650884D01*
X106650000Y-97687390D01*
X106650000Y-98312610D01*
X106646405Y-98349116D01*
X106637548Y-98378311D01*
X106623163Y-98405223D01*
X106603808Y-98428808D01*
X106580223Y-98448163D01*
X106553311Y-98462548D01*
X106524116Y-98471405D01*
X106487610Y-98475000D01*
X105937390Y-98475000D01*
X105900884Y-98471405D01*
X105871689Y-98462548D01*
X105844777Y-98448163D01*
X105821192Y-98428808D01*
X105801837Y-98405223D01*
X105787452Y-98378311D01*
X105778595Y-98349116D01*
X105775000Y-98312610D01*
X105775000Y-97687390D01*
X105778595Y-97650884D01*
X105787452Y-97621689D01*
X105801837Y-97594777D01*
X105821192Y-97571192D01*
X105844777Y-97551837D01*
X105871689Y-97537452D01*
X105900884Y-97528595D01*
X105937390Y-97525000D01*
X106487610Y-97525000D01*
X106524116Y-97528595D01*
X106524116Y-97528595D01*
G37*
G36*
X116775000Y-98150000D02*
G01*
X115775000Y-98150000D01*
X115775000Y-96700000D01*
X116775000Y-96700000D01*
X116775000Y-98150000D01*
X116775000Y-98150000D01*
G37*
G36*
X118475000Y-98150000D02*
G01*
X117475000Y-98150000D01*
X117475000Y-96700000D01*
X118475000Y-96700000D01*
X118475000Y-98150000D01*
X118475000Y-98150000D01*
G37*
G36*
X89349116Y-95853595D02*
G01*
X89378311Y-95862452D01*
X89405223Y-95876837D01*
X89428808Y-95896192D01*
X89448163Y-95919777D01*
X89462548Y-95946689D01*
X89471405Y-95975884D01*
X89475000Y-96012390D01*
X89475000Y-96562610D01*
X89471405Y-96599116D01*
X89462548Y-96628311D01*
X89448163Y-96655223D01*
X89428808Y-96678808D01*
X89405223Y-96698163D01*
X89378311Y-96712548D01*
X89349116Y-96721405D01*
X89312610Y-96725000D01*
X88687390Y-96725000D01*
X88650884Y-96721405D01*
X88621689Y-96712548D01*
X88594777Y-96698163D01*
X88571192Y-96678808D01*
X88551837Y-96655223D01*
X88537452Y-96628311D01*
X88528595Y-96599116D01*
X88525000Y-96562610D01*
X88525000Y-96012390D01*
X88528595Y-95975884D01*
X88537452Y-95946689D01*
X88551837Y-95919777D01*
X88571192Y-95896192D01*
X88594777Y-95876837D01*
X88621689Y-95862452D01*
X88650884Y-95853595D01*
X88687390Y-95850000D01*
X89312610Y-95850000D01*
X89349116Y-95853595D01*
X89349116Y-95853595D01*
G37*
G36*
X86349116Y-95853595D02*
G01*
X86378311Y-95862452D01*
X86405223Y-95876837D01*
X86428808Y-95896192D01*
X86448163Y-95919777D01*
X86462548Y-95946689D01*
X86471405Y-95975884D01*
X86475000Y-96012390D01*
X86475000Y-96562610D01*
X86471405Y-96599116D01*
X86462548Y-96628311D01*
X86448163Y-96655223D01*
X86428808Y-96678808D01*
X86405223Y-96698163D01*
X86378311Y-96712548D01*
X86349116Y-96721405D01*
X86312610Y-96725000D01*
X85687390Y-96725000D01*
X85650884Y-96721405D01*
X85621689Y-96712548D01*
X85594777Y-96698163D01*
X85571192Y-96678808D01*
X85551837Y-96655223D01*
X85537452Y-96628311D01*
X85528595Y-96599116D01*
X85525000Y-96562610D01*
X85525000Y-96012390D01*
X85528595Y-95975884D01*
X85537452Y-95946689D01*
X85551837Y-95919777D01*
X85571192Y-95896192D01*
X85594777Y-95876837D01*
X85621689Y-95862452D01*
X85650884Y-95853595D01*
X85687390Y-95850000D01*
X86312610Y-95850000D01*
X86349116Y-95853595D01*
X86349116Y-95853595D01*
G37*
G36*
X95349116Y-95353595D02*
G01*
X95378311Y-95362452D01*
X95405223Y-95376837D01*
X95428808Y-95396192D01*
X95448163Y-95419777D01*
X95462548Y-95446689D01*
X95471405Y-95475884D01*
X95475000Y-95512390D01*
X95475000Y-96062610D01*
X95471405Y-96099116D01*
X95462548Y-96128311D01*
X95448163Y-96155223D01*
X95428808Y-96178808D01*
X95405223Y-96198163D01*
X95378311Y-96212548D01*
X95349116Y-96221405D01*
X95312610Y-96225000D01*
X94687390Y-96225000D01*
X94650884Y-96221405D01*
X94621689Y-96212548D01*
X94594777Y-96198163D01*
X94571192Y-96178808D01*
X94551837Y-96155223D01*
X94537452Y-96128311D01*
X94528595Y-96099116D01*
X94525000Y-96062610D01*
X94525000Y-95512390D01*
X94528595Y-95475884D01*
X94537452Y-95446689D01*
X94551837Y-95419777D01*
X94571192Y-95396192D01*
X94594777Y-95376837D01*
X94621689Y-95362452D01*
X94650884Y-95353595D01*
X94687390Y-95350000D01*
X95312610Y-95350000D01*
X95349116Y-95353595D01*
X95349116Y-95353595D01*
G37*
G36*
X101349116Y-95353595D02*
G01*
X101378311Y-95362452D01*
X101405223Y-95376837D01*
X101428808Y-95396192D01*
X101448163Y-95419777D01*
X101462548Y-95446689D01*
X101471405Y-95475884D01*
X101475000Y-95512390D01*
X101475000Y-96062610D01*
X101471405Y-96099116D01*
X101462548Y-96128311D01*
X101448163Y-96155223D01*
X101428808Y-96178808D01*
X101405223Y-96198163D01*
X101378311Y-96212548D01*
X101349116Y-96221405D01*
X101312610Y-96225000D01*
X100687390Y-96225000D01*
X100650884Y-96221405D01*
X100621689Y-96212548D01*
X100594777Y-96198163D01*
X100571192Y-96178808D01*
X100551837Y-96155223D01*
X100537452Y-96128311D01*
X100528595Y-96099116D01*
X100525000Y-96062610D01*
X100525000Y-95512390D01*
X100528595Y-95475884D01*
X100537452Y-95446689D01*
X100551837Y-95419777D01*
X100571192Y-95396192D01*
X100594777Y-95376837D01*
X100621689Y-95362452D01*
X100650884Y-95353595D01*
X100687390Y-95350000D01*
X101312610Y-95350000D01*
X101349116Y-95353595D01*
X101349116Y-95353595D01*
G37*
G36*
X104349116Y-95353595D02*
G01*
X104378311Y-95362452D01*
X104405223Y-95376837D01*
X104428808Y-95396192D01*
X104448163Y-95419777D01*
X104462548Y-95446689D01*
X104471405Y-95475884D01*
X104475000Y-95512390D01*
X104475000Y-96062610D01*
X104471405Y-96099116D01*
X104462548Y-96128311D01*
X104448163Y-96155223D01*
X104428808Y-96178808D01*
X104405223Y-96198163D01*
X104378311Y-96212548D01*
X104349116Y-96221405D01*
X104312610Y-96225000D01*
X103687390Y-96225000D01*
X103650884Y-96221405D01*
X103621689Y-96212548D01*
X103594777Y-96198163D01*
X103571192Y-96178808D01*
X103551837Y-96155223D01*
X103537452Y-96128311D01*
X103528595Y-96099116D01*
X103525000Y-96062610D01*
X103525000Y-95512390D01*
X103528595Y-95475884D01*
X103537452Y-95446689D01*
X103551837Y-95419777D01*
X103571192Y-95396192D01*
X103594777Y-95376837D01*
X103621689Y-95362452D01*
X103650884Y-95353595D01*
X103687390Y-95350000D01*
X104312610Y-95350000D01*
X104349116Y-95353595D01*
X104349116Y-95353595D01*
G37*
G36*
X98349116Y-95353595D02*
G01*
X98378311Y-95362452D01*
X98405223Y-95376837D01*
X98428808Y-95396192D01*
X98448163Y-95419777D01*
X98462548Y-95446689D01*
X98471405Y-95475884D01*
X98475000Y-95512390D01*
X98475000Y-96062610D01*
X98471405Y-96099116D01*
X98462548Y-96128311D01*
X98448163Y-96155223D01*
X98428808Y-96178808D01*
X98405223Y-96198163D01*
X98378311Y-96212548D01*
X98349116Y-96221405D01*
X98312610Y-96225000D01*
X97687390Y-96225000D01*
X97650884Y-96221405D01*
X97621689Y-96212548D01*
X97594777Y-96198163D01*
X97571192Y-96178808D01*
X97551837Y-96155223D01*
X97537452Y-96128311D01*
X97528595Y-96099116D01*
X97525000Y-96062610D01*
X97525000Y-95512390D01*
X97528595Y-95475884D01*
X97537452Y-95446689D01*
X97551837Y-95419777D01*
X97571192Y-95396192D01*
X97594777Y-95376837D01*
X97621689Y-95362452D01*
X97650884Y-95353595D01*
X97687390Y-95350000D01*
X98312610Y-95350000D01*
X98349116Y-95353595D01*
X98349116Y-95353595D01*
G37*
G36*
X89349116Y-94278595D02*
G01*
X89378311Y-94287452D01*
X89405223Y-94301837D01*
X89428808Y-94321192D01*
X89448163Y-94344777D01*
X89462548Y-94371689D01*
X89471405Y-94400884D01*
X89475000Y-94437390D01*
X89475000Y-94987610D01*
X89471405Y-95024116D01*
X89462548Y-95053311D01*
X89448163Y-95080223D01*
X89428808Y-95103808D01*
X89405223Y-95123163D01*
X89378311Y-95137548D01*
X89349116Y-95146405D01*
X89312610Y-95150000D01*
X88687390Y-95150000D01*
X88650884Y-95146405D01*
X88621689Y-95137548D01*
X88594777Y-95123163D01*
X88571192Y-95103808D01*
X88551837Y-95080223D01*
X88537452Y-95053311D01*
X88528595Y-95024116D01*
X88525000Y-94987610D01*
X88525000Y-94437390D01*
X88528595Y-94400884D01*
X88537452Y-94371689D01*
X88551837Y-94344777D01*
X88571192Y-94321192D01*
X88594777Y-94301837D01*
X88621689Y-94287452D01*
X88650884Y-94278595D01*
X88687390Y-94275000D01*
X89312610Y-94275000D01*
X89349116Y-94278595D01*
X89349116Y-94278595D01*
G37*
G36*
X86349116Y-94278595D02*
G01*
X86378311Y-94287452D01*
X86405223Y-94301837D01*
X86428808Y-94321192D01*
X86448163Y-94344777D01*
X86462548Y-94371689D01*
X86471405Y-94400884D01*
X86475000Y-94437390D01*
X86475000Y-94987610D01*
X86471405Y-95024116D01*
X86462548Y-95053311D01*
X86448163Y-95080223D01*
X86428808Y-95103808D01*
X86405223Y-95123163D01*
X86378311Y-95137548D01*
X86349116Y-95146405D01*
X86312610Y-95150000D01*
X85687390Y-95150000D01*
X85650884Y-95146405D01*
X85621689Y-95137548D01*
X85594777Y-95123163D01*
X85571192Y-95103808D01*
X85551837Y-95080223D01*
X85537452Y-95053311D01*
X85528595Y-95024116D01*
X85525000Y-94987610D01*
X85525000Y-94437390D01*
X85528595Y-94400884D01*
X85537452Y-94371689D01*
X85551837Y-94344777D01*
X85571192Y-94321192D01*
X85594777Y-94301837D01*
X85621689Y-94287452D01*
X85650884Y-94278595D01*
X85687390Y-94275000D01*
X86312610Y-94275000D01*
X86349116Y-94278595D01*
X86349116Y-94278595D01*
G37*
G36*
X110349116Y-94141095D02*
G01*
X110378311Y-94149952D01*
X110405223Y-94164337D01*
X110428808Y-94183692D01*
X110448163Y-94207277D01*
X110462548Y-94234189D01*
X110471405Y-94263384D01*
X110475000Y-94299890D01*
X110475000Y-94850110D01*
X110471405Y-94886616D01*
X110462548Y-94915811D01*
X110448163Y-94942723D01*
X110428808Y-94966308D01*
X110405223Y-94985663D01*
X110378311Y-95000048D01*
X110349116Y-95008905D01*
X110312610Y-95012500D01*
X109687390Y-95012500D01*
X109650884Y-95008905D01*
X109621689Y-95000048D01*
X109594777Y-94985663D01*
X109571192Y-94966308D01*
X109551837Y-94942723D01*
X109537452Y-94915811D01*
X109528595Y-94886616D01*
X109525000Y-94850110D01*
X109525000Y-94299890D01*
X109528595Y-94263384D01*
X109537452Y-94234189D01*
X109551837Y-94207277D01*
X109571192Y-94183692D01*
X109594777Y-94164337D01*
X109621689Y-94149952D01*
X109650884Y-94141095D01*
X109687390Y-94137500D01*
X110312610Y-94137500D01*
X110349116Y-94141095D01*
X110349116Y-94141095D01*
G37*
G36*
X107349116Y-94141095D02*
G01*
X107378311Y-94149952D01*
X107405223Y-94164337D01*
X107428808Y-94183692D01*
X107448163Y-94207277D01*
X107462548Y-94234189D01*
X107471405Y-94263384D01*
X107475000Y-94299890D01*
X107475000Y-94850110D01*
X107471405Y-94886616D01*
X107462548Y-94915811D01*
X107448163Y-94942723D01*
X107428808Y-94966308D01*
X107405223Y-94985663D01*
X107378311Y-95000048D01*
X107349116Y-95008905D01*
X107312610Y-95012500D01*
X106687390Y-95012500D01*
X106650884Y-95008905D01*
X106621689Y-95000048D01*
X106594777Y-94985663D01*
X106571192Y-94966308D01*
X106551837Y-94942723D01*
X106537452Y-94915811D01*
X106528595Y-94886616D01*
X106525000Y-94850110D01*
X106525000Y-94299890D01*
X106528595Y-94263384D01*
X106537452Y-94234189D01*
X106551837Y-94207277D01*
X106571192Y-94183692D01*
X106594777Y-94164337D01*
X106621689Y-94149952D01*
X106650884Y-94141095D01*
X106687390Y-94137500D01*
X107312610Y-94137500D01*
X107349116Y-94141095D01*
X107349116Y-94141095D01*
G37*
G36*
X113349116Y-94141095D02*
G01*
X113378311Y-94149952D01*
X113405223Y-94164337D01*
X113428808Y-94183692D01*
X113448163Y-94207277D01*
X113462548Y-94234189D01*
X113471405Y-94263384D01*
X113475000Y-94299890D01*
X113475000Y-94850110D01*
X113471405Y-94886616D01*
X113462548Y-94915811D01*
X113448163Y-94942723D01*
X113428808Y-94966308D01*
X113405223Y-94985663D01*
X113378311Y-95000048D01*
X113349116Y-95008905D01*
X113312610Y-95012500D01*
X112687390Y-95012500D01*
X112650884Y-95008905D01*
X112621689Y-95000048D01*
X112594777Y-94985663D01*
X112571192Y-94966308D01*
X112551837Y-94942723D01*
X112537452Y-94915811D01*
X112528595Y-94886616D01*
X112525000Y-94850110D01*
X112525000Y-94299890D01*
X112528595Y-94263384D01*
X112537452Y-94234189D01*
X112551837Y-94207277D01*
X112571192Y-94183692D01*
X112594777Y-94164337D01*
X112621689Y-94149952D01*
X112650884Y-94141095D01*
X112687390Y-94137500D01*
X113312610Y-94137500D01*
X113349116Y-94141095D01*
X113349116Y-94141095D01*
G37*
G36*
X95349116Y-93778595D02*
G01*
X95378311Y-93787452D01*
X95405223Y-93801837D01*
X95428808Y-93821192D01*
X95448163Y-93844777D01*
X95462548Y-93871689D01*
X95471405Y-93900884D01*
X95475000Y-93937390D01*
X95475000Y-94487610D01*
X95471405Y-94524116D01*
X95462548Y-94553311D01*
X95448163Y-94580223D01*
X95428808Y-94603808D01*
X95405223Y-94623163D01*
X95378311Y-94637548D01*
X95349116Y-94646405D01*
X95312610Y-94650000D01*
X94687390Y-94650000D01*
X94650884Y-94646405D01*
X94621689Y-94637548D01*
X94594777Y-94623163D01*
X94571192Y-94603808D01*
X94551837Y-94580223D01*
X94537452Y-94553311D01*
X94528595Y-94524116D01*
X94525000Y-94487610D01*
X94525000Y-93937390D01*
X94528595Y-93900884D01*
X94537452Y-93871689D01*
X94551837Y-93844777D01*
X94571192Y-93821192D01*
X94594777Y-93801837D01*
X94621689Y-93787452D01*
X94650884Y-93778595D01*
X94687390Y-93775000D01*
X95312610Y-93775000D01*
X95349116Y-93778595D01*
X95349116Y-93778595D01*
G37*
G36*
X98349116Y-93778595D02*
G01*
X98378311Y-93787452D01*
X98405223Y-93801837D01*
X98428808Y-93821192D01*
X98448163Y-93844777D01*
X98462548Y-93871689D01*
X98471405Y-93900884D01*
X98475000Y-93937390D01*
X98475000Y-94487610D01*
X98471405Y-94524116D01*
X98462548Y-94553311D01*
X98448163Y-94580223D01*
X98428808Y-94603808D01*
X98405223Y-94623163D01*
X98378311Y-94637548D01*
X98349116Y-94646405D01*
X98312610Y-94650000D01*
X97687390Y-94650000D01*
X97650884Y-94646405D01*
X97621689Y-94637548D01*
X97594777Y-94623163D01*
X97571192Y-94603808D01*
X97551837Y-94580223D01*
X97537452Y-94553311D01*
X97528595Y-94524116D01*
X97525000Y-94487610D01*
X97525000Y-93937390D01*
X97528595Y-93900884D01*
X97537452Y-93871689D01*
X97551837Y-93844777D01*
X97571192Y-93821192D01*
X97594777Y-93801837D01*
X97621689Y-93787452D01*
X97650884Y-93778595D01*
X97687390Y-93775000D01*
X98312610Y-93775000D01*
X98349116Y-93778595D01*
X98349116Y-93778595D01*
G37*
G36*
X101349116Y-93778595D02*
G01*
X101378311Y-93787452D01*
X101405223Y-93801837D01*
X101428808Y-93821192D01*
X101448163Y-93844777D01*
X101462548Y-93871689D01*
X101471405Y-93900884D01*
X101475000Y-93937390D01*
X101475000Y-94487610D01*
X101471405Y-94524116D01*
X101462548Y-94553311D01*
X101448163Y-94580223D01*
X101428808Y-94603808D01*
X101405223Y-94623163D01*
X101378311Y-94637548D01*
X101349116Y-94646405D01*
X101312610Y-94650000D01*
X100687390Y-94650000D01*
X100650884Y-94646405D01*
X100621689Y-94637548D01*
X100594777Y-94623163D01*
X100571192Y-94603808D01*
X100551837Y-94580223D01*
X100537452Y-94553311D01*
X100528595Y-94524116D01*
X100525000Y-94487610D01*
X100525000Y-93937390D01*
X100528595Y-93900884D01*
X100537452Y-93871689D01*
X100551837Y-93844777D01*
X100571192Y-93821192D01*
X100594777Y-93801837D01*
X100621689Y-93787452D01*
X100650884Y-93778595D01*
X100687390Y-93775000D01*
X101312610Y-93775000D01*
X101349116Y-93778595D01*
X101349116Y-93778595D01*
G37*
G36*
X104349116Y-93778595D02*
G01*
X104378311Y-93787452D01*
X104405223Y-93801837D01*
X104428808Y-93821192D01*
X104448163Y-93844777D01*
X104462548Y-93871689D01*
X104471405Y-93900884D01*
X104475000Y-93937390D01*
X104475000Y-94487610D01*
X104471405Y-94524116D01*
X104462548Y-94553311D01*
X104448163Y-94580223D01*
X104428808Y-94603808D01*
X104405223Y-94623163D01*
X104378311Y-94637548D01*
X104349116Y-94646405D01*
X104312610Y-94650000D01*
X103687390Y-94650000D01*
X103650884Y-94646405D01*
X103621689Y-94637548D01*
X103594777Y-94623163D01*
X103571192Y-94603808D01*
X103551837Y-94580223D01*
X103537452Y-94553311D01*
X103528595Y-94524116D01*
X103525000Y-94487610D01*
X103525000Y-93937390D01*
X103528595Y-93900884D01*
X103537452Y-93871689D01*
X103551837Y-93844777D01*
X103571192Y-93821192D01*
X103594777Y-93801837D01*
X103621689Y-93787452D01*
X103650884Y-93778595D01*
X103687390Y-93775000D01*
X104312610Y-93775000D01*
X104349116Y-93778595D01*
X104349116Y-93778595D01*
G37*
G36*
X107349116Y-92566095D02*
G01*
X107378311Y-92574952D01*
X107405223Y-92589337D01*
X107428808Y-92608692D01*
X107448163Y-92632277D01*
X107462548Y-92659189D01*
X107471405Y-92688384D01*
X107475000Y-92724890D01*
X107475000Y-93275110D01*
X107471405Y-93311616D01*
X107462548Y-93340811D01*
X107448163Y-93367723D01*
X107428808Y-93391308D01*
X107405223Y-93410663D01*
X107378311Y-93425048D01*
X107349116Y-93433905D01*
X107312610Y-93437500D01*
X106687390Y-93437500D01*
X106650884Y-93433905D01*
X106621689Y-93425048D01*
X106594777Y-93410663D01*
X106571192Y-93391308D01*
X106551837Y-93367723D01*
X106537452Y-93340811D01*
X106528595Y-93311616D01*
X106525000Y-93275110D01*
X106525000Y-92724890D01*
X106528595Y-92688384D01*
X106537452Y-92659189D01*
X106551837Y-92632277D01*
X106571192Y-92608692D01*
X106594777Y-92589337D01*
X106621689Y-92574952D01*
X106650884Y-92566095D01*
X106687390Y-92562500D01*
X107312610Y-92562500D01*
X107349116Y-92566095D01*
X107349116Y-92566095D01*
G37*
G36*
X113349116Y-92566095D02*
G01*
X113378311Y-92574952D01*
X113405223Y-92589337D01*
X113428808Y-92608692D01*
X113448163Y-92632277D01*
X113462548Y-92659189D01*
X113471405Y-92688384D01*
X113475000Y-92724890D01*
X113475000Y-93275110D01*
X113471405Y-93311616D01*
X113462548Y-93340811D01*
X113448163Y-93367723D01*
X113428808Y-93391308D01*
X113405223Y-93410663D01*
X113378311Y-93425048D01*
X113349116Y-93433905D01*
X113312610Y-93437500D01*
X112687390Y-93437500D01*
X112650884Y-93433905D01*
X112621689Y-93425048D01*
X112594777Y-93410663D01*
X112571192Y-93391308D01*
X112551837Y-93367723D01*
X112537452Y-93340811D01*
X112528595Y-93311616D01*
X112525000Y-93275110D01*
X112525000Y-92724890D01*
X112528595Y-92688384D01*
X112537452Y-92659189D01*
X112551837Y-92632277D01*
X112571192Y-92608692D01*
X112594777Y-92589337D01*
X112621689Y-92574952D01*
X112650884Y-92566095D01*
X112687390Y-92562500D01*
X113312610Y-92562500D01*
X113349116Y-92566095D01*
X113349116Y-92566095D01*
G37*
G36*
X110349116Y-92566095D02*
G01*
X110378311Y-92574952D01*
X110405223Y-92589337D01*
X110428808Y-92608692D01*
X110448163Y-92632277D01*
X110462548Y-92659189D01*
X110471405Y-92688384D01*
X110475000Y-92724890D01*
X110475000Y-93275110D01*
X110471405Y-93311616D01*
X110462548Y-93340811D01*
X110448163Y-93367723D01*
X110428808Y-93391308D01*
X110405223Y-93410663D01*
X110378311Y-93425048D01*
X110349116Y-93433905D01*
X110312610Y-93437500D01*
X109687390Y-93437500D01*
X109650884Y-93433905D01*
X109621689Y-93425048D01*
X109594777Y-93410663D01*
X109571192Y-93391308D01*
X109551837Y-93367723D01*
X109537452Y-93340811D01*
X109528595Y-93311616D01*
X109525000Y-93275110D01*
X109525000Y-92724890D01*
X109528595Y-92688384D01*
X109537452Y-92659189D01*
X109551837Y-92632277D01*
X109571192Y-92608692D01*
X109594777Y-92589337D01*
X109621689Y-92574952D01*
X109650884Y-92566095D01*
X109687390Y-92562500D01*
X110312610Y-92562500D01*
X110349116Y-92566095D01*
X110349116Y-92566095D01*
G37*
G36*
X97099116Y-91528595D02*
G01*
X97128311Y-91537452D01*
X97155223Y-91551837D01*
X97178808Y-91571192D01*
X97198163Y-91594777D01*
X97212548Y-91621689D01*
X97221405Y-91650884D01*
X97225000Y-91687390D01*
X97225000Y-92312610D01*
X97221405Y-92349116D01*
X97212548Y-92378311D01*
X97198163Y-92405223D01*
X97178808Y-92428808D01*
X97155223Y-92448163D01*
X97128311Y-92462548D01*
X97099116Y-92471405D01*
X97062610Y-92475000D01*
X96512390Y-92475000D01*
X96475884Y-92471405D01*
X96446689Y-92462548D01*
X96419777Y-92448163D01*
X96396192Y-92428808D01*
X96376837Y-92405223D01*
X96362452Y-92378311D01*
X96353595Y-92349116D01*
X96350000Y-92312610D01*
X96350000Y-91687390D01*
X96353595Y-91650884D01*
X96362452Y-91621689D01*
X96376837Y-91594777D01*
X96396192Y-91571192D01*
X96419777Y-91551837D01*
X96446689Y-91537452D01*
X96475884Y-91528595D01*
X96512390Y-91525000D01*
X97062610Y-91525000D01*
X97099116Y-91528595D01*
X97099116Y-91528595D01*
G37*
G36*
X95524116Y-91528595D02*
G01*
X95553311Y-91537452D01*
X95580223Y-91551837D01*
X95603808Y-91571192D01*
X95623163Y-91594777D01*
X95637548Y-91621689D01*
X95646405Y-91650884D01*
X95650000Y-91687390D01*
X95650000Y-92312610D01*
X95646405Y-92349116D01*
X95637548Y-92378311D01*
X95623163Y-92405223D01*
X95603808Y-92428808D01*
X95580223Y-92448163D01*
X95553311Y-92462548D01*
X95524116Y-92471405D01*
X95487610Y-92475000D01*
X94937390Y-92475000D01*
X94900884Y-92471405D01*
X94871689Y-92462548D01*
X94844777Y-92448163D01*
X94821192Y-92428808D01*
X94801837Y-92405223D01*
X94787452Y-92378311D01*
X94778595Y-92349116D01*
X94775000Y-92312610D01*
X94775000Y-91687390D01*
X94778595Y-91650884D01*
X94787452Y-91621689D01*
X94801837Y-91594777D01*
X94821192Y-91571192D01*
X94844777Y-91551837D01*
X94871689Y-91537452D01*
X94900884Y-91528595D01*
X94937390Y-91525000D01*
X95487610Y-91525000D01*
X95524116Y-91528595D01*
X95524116Y-91528595D01*
G37*
G36*
X86349116Y-91353595D02*
G01*
X86378311Y-91362452D01*
X86405223Y-91376837D01*
X86428808Y-91396192D01*
X86448163Y-91419777D01*
X86462548Y-91446689D01*
X86471405Y-91475884D01*
X86475000Y-91512390D01*
X86475000Y-92062610D01*
X86471405Y-92099116D01*
X86462548Y-92128311D01*
X86448163Y-92155223D01*
X86428808Y-92178808D01*
X86405223Y-92198163D01*
X86378311Y-92212548D01*
X86349116Y-92221405D01*
X86312610Y-92225000D01*
X85687390Y-92225000D01*
X85650884Y-92221405D01*
X85621689Y-92212548D01*
X85594777Y-92198163D01*
X85571192Y-92178808D01*
X85551837Y-92155223D01*
X85537452Y-92128311D01*
X85528595Y-92099116D01*
X85525000Y-92062610D01*
X85525000Y-91512390D01*
X85528595Y-91475884D01*
X85537452Y-91446689D01*
X85551837Y-91419777D01*
X85571192Y-91396192D01*
X85594777Y-91376837D01*
X85621689Y-91362452D01*
X85650884Y-91353595D01*
X85687390Y-91350000D01*
X86312610Y-91350000D01*
X86349116Y-91353595D01*
X86349116Y-91353595D01*
G37*
G36*
X89349116Y-91353595D02*
G01*
X89378311Y-91362452D01*
X89405223Y-91376837D01*
X89428808Y-91396192D01*
X89448163Y-91419777D01*
X89462548Y-91446689D01*
X89471405Y-91475884D01*
X89475000Y-91512390D01*
X89475000Y-92062610D01*
X89471405Y-92099116D01*
X89462548Y-92128311D01*
X89448163Y-92155223D01*
X89428808Y-92178808D01*
X89405223Y-92198163D01*
X89378311Y-92212548D01*
X89349116Y-92221405D01*
X89312610Y-92225000D01*
X88687390Y-92225000D01*
X88650884Y-92221405D01*
X88621689Y-92212548D01*
X88594777Y-92198163D01*
X88571192Y-92178808D01*
X88551837Y-92155223D01*
X88537452Y-92128311D01*
X88528595Y-92099116D01*
X88525000Y-92062610D01*
X88525000Y-91512390D01*
X88528595Y-91475884D01*
X88537452Y-91446689D01*
X88551837Y-91419777D01*
X88571192Y-91396192D01*
X88594777Y-91376837D01*
X88621689Y-91362452D01*
X88650884Y-91353595D01*
X88687390Y-91350000D01*
X89312610Y-91350000D01*
X89349116Y-91353595D01*
X89349116Y-91353595D01*
G37*
G36*
X108450000Y-91350000D02*
G01*
X107550000Y-91350000D01*
X107550000Y-90550000D01*
X108450000Y-90550000D01*
X108450000Y-91350000D01*
X108450000Y-91350000D01*
G37*
G36*
X105849116Y-90353595D02*
G01*
X105878311Y-90362452D01*
X105905223Y-90376837D01*
X105928808Y-90396192D01*
X105948163Y-90419777D01*
X105962548Y-90446689D01*
X105971405Y-90475884D01*
X105975000Y-90512390D01*
X105975000Y-91062610D01*
X105971405Y-91099116D01*
X105962548Y-91128311D01*
X105948163Y-91155223D01*
X105928808Y-91178808D01*
X105905223Y-91198163D01*
X105878311Y-91212548D01*
X105849116Y-91221405D01*
X105812610Y-91225000D01*
X105187390Y-91225000D01*
X105150884Y-91221405D01*
X105121689Y-91212548D01*
X105094777Y-91198163D01*
X105071192Y-91178808D01*
X105051837Y-91155223D01*
X105037452Y-91128311D01*
X105028595Y-91099116D01*
X105025000Y-91062610D01*
X105025000Y-90512390D01*
X105028595Y-90475884D01*
X105037452Y-90446689D01*
X105051837Y-90419777D01*
X105071192Y-90396192D01*
X105094777Y-90376837D01*
X105121689Y-90362452D01*
X105150884Y-90353595D01*
X105187390Y-90350000D01*
X105812610Y-90350000D01*
X105849116Y-90353595D01*
X105849116Y-90353595D01*
G37*
G36*
X99849116Y-90353595D02*
G01*
X99878311Y-90362452D01*
X99905223Y-90376837D01*
X99928808Y-90396192D01*
X99948163Y-90419777D01*
X99962548Y-90446689D01*
X99971405Y-90475884D01*
X99975000Y-90512390D01*
X99975000Y-91062610D01*
X99971405Y-91099116D01*
X99962548Y-91128311D01*
X99948163Y-91155223D01*
X99928808Y-91178808D01*
X99905223Y-91198163D01*
X99878311Y-91212548D01*
X99849116Y-91221405D01*
X99812610Y-91225000D01*
X99187390Y-91225000D01*
X99150884Y-91221405D01*
X99121689Y-91212548D01*
X99094777Y-91198163D01*
X99071192Y-91178808D01*
X99051837Y-91155223D01*
X99037452Y-91128311D01*
X99028595Y-91099116D01*
X99025000Y-91062610D01*
X99025000Y-90512390D01*
X99028595Y-90475884D01*
X99037452Y-90446689D01*
X99051837Y-90419777D01*
X99071192Y-90396192D01*
X99094777Y-90376837D01*
X99121689Y-90362452D01*
X99150884Y-90353595D01*
X99187390Y-90350000D01*
X99812610Y-90350000D01*
X99849116Y-90353595D01*
X99849116Y-90353595D01*
G37*
G36*
X102849116Y-90353595D02*
G01*
X102878311Y-90362452D01*
X102905223Y-90376837D01*
X102928808Y-90396192D01*
X102948163Y-90419777D01*
X102962548Y-90446689D01*
X102971405Y-90475884D01*
X102975000Y-90512390D01*
X102975000Y-91062610D01*
X102971405Y-91099116D01*
X102962548Y-91128311D01*
X102948163Y-91155223D01*
X102928808Y-91178808D01*
X102905223Y-91198163D01*
X102878311Y-91212548D01*
X102849116Y-91221405D01*
X102812610Y-91225000D01*
X102187390Y-91225000D01*
X102150884Y-91221405D01*
X102121689Y-91212548D01*
X102094777Y-91198163D01*
X102071192Y-91178808D01*
X102051837Y-91155223D01*
X102037452Y-91128311D01*
X102028595Y-91099116D01*
X102025000Y-91062610D01*
X102025000Y-90512390D01*
X102028595Y-90475884D01*
X102037452Y-90446689D01*
X102051837Y-90419777D01*
X102071192Y-90396192D01*
X102094777Y-90376837D01*
X102121689Y-90362452D01*
X102150884Y-90353595D01*
X102187390Y-90350000D01*
X102812610Y-90350000D01*
X102849116Y-90353595D01*
X102849116Y-90353595D01*
G37*
G36*
X89349116Y-89778595D02*
G01*
X89378311Y-89787452D01*
X89405223Y-89801837D01*
X89428808Y-89821192D01*
X89448163Y-89844777D01*
X89462548Y-89871689D01*
X89471405Y-89900884D01*
X89475000Y-89937390D01*
X89475000Y-90487610D01*
X89471405Y-90524116D01*
X89462548Y-90553311D01*
X89448163Y-90580223D01*
X89428808Y-90603808D01*
X89405223Y-90623163D01*
X89378311Y-90637548D01*
X89349116Y-90646405D01*
X89312610Y-90650000D01*
X88687390Y-90650000D01*
X88650884Y-90646405D01*
X88621689Y-90637548D01*
X88594777Y-90623163D01*
X88571192Y-90603808D01*
X88551837Y-90580223D01*
X88537452Y-90553311D01*
X88528595Y-90524116D01*
X88525000Y-90487610D01*
X88525000Y-89937390D01*
X88528595Y-89900884D01*
X88537452Y-89871689D01*
X88551837Y-89844777D01*
X88571192Y-89821192D01*
X88594777Y-89801837D01*
X88621689Y-89787452D01*
X88650884Y-89778595D01*
X88687390Y-89775000D01*
X89312610Y-89775000D01*
X89349116Y-89778595D01*
X89349116Y-89778595D01*
G37*
G36*
X86349116Y-89778595D02*
G01*
X86378311Y-89787452D01*
X86405223Y-89801837D01*
X86428808Y-89821192D01*
X86448163Y-89844777D01*
X86462548Y-89871689D01*
X86471405Y-89900884D01*
X86475000Y-89937390D01*
X86475000Y-90487610D01*
X86471405Y-90524116D01*
X86462548Y-90553311D01*
X86448163Y-90580223D01*
X86428808Y-90603808D01*
X86405223Y-90623163D01*
X86378311Y-90637548D01*
X86349116Y-90646405D01*
X86312610Y-90650000D01*
X85687390Y-90650000D01*
X85650884Y-90646405D01*
X85621689Y-90637548D01*
X85594777Y-90623163D01*
X85571192Y-90603808D01*
X85551837Y-90580223D01*
X85537452Y-90553311D01*
X85528595Y-90524116D01*
X85525000Y-90487610D01*
X85525000Y-89937390D01*
X85528595Y-89900884D01*
X85537452Y-89871689D01*
X85551837Y-89844777D01*
X85571192Y-89821192D01*
X85594777Y-89801837D01*
X85621689Y-89787452D01*
X85650884Y-89778595D01*
X85687390Y-89775000D01*
X86312610Y-89775000D01*
X86349116Y-89778595D01*
X86349116Y-89778595D01*
G37*
G36*
X110450000Y-90400000D02*
G01*
X109550000Y-90400000D01*
X109550000Y-89600000D01*
X110450000Y-89600000D01*
X110450000Y-90400000D01*
X110450000Y-90400000D01*
G37*
G36*
X102849116Y-88778595D02*
G01*
X102878311Y-88787452D01*
X102905223Y-88801837D01*
X102928808Y-88821192D01*
X102948163Y-88844777D01*
X102962548Y-88871689D01*
X102971405Y-88900884D01*
X102975000Y-88937390D01*
X102975000Y-89487610D01*
X102971405Y-89524116D01*
X102962548Y-89553311D01*
X102948163Y-89580223D01*
X102928808Y-89603808D01*
X102905223Y-89623163D01*
X102878311Y-89637548D01*
X102849116Y-89646405D01*
X102812610Y-89650000D01*
X102187390Y-89650000D01*
X102150884Y-89646405D01*
X102121689Y-89637548D01*
X102094777Y-89623163D01*
X102071192Y-89603808D01*
X102051837Y-89580223D01*
X102037452Y-89553311D01*
X102028595Y-89524116D01*
X102025000Y-89487610D01*
X102025000Y-88937390D01*
X102028595Y-88900884D01*
X102037452Y-88871689D01*
X102051837Y-88844777D01*
X102071192Y-88821192D01*
X102094777Y-88801837D01*
X102121689Y-88787452D01*
X102150884Y-88778595D01*
X102187390Y-88775000D01*
X102812610Y-88775000D01*
X102849116Y-88778595D01*
X102849116Y-88778595D01*
G37*
G36*
X99849116Y-88778595D02*
G01*
X99878311Y-88787452D01*
X99905223Y-88801837D01*
X99928808Y-88821192D01*
X99948163Y-88844777D01*
X99962548Y-88871689D01*
X99971405Y-88900884D01*
X99975000Y-88937390D01*
X99975000Y-89487610D01*
X99971405Y-89524116D01*
X99962548Y-89553311D01*
X99948163Y-89580223D01*
X99928808Y-89603808D01*
X99905223Y-89623163D01*
X99878311Y-89637548D01*
X99849116Y-89646405D01*
X99812610Y-89650000D01*
X99187390Y-89650000D01*
X99150884Y-89646405D01*
X99121689Y-89637548D01*
X99094777Y-89623163D01*
X99071192Y-89603808D01*
X99051837Y-89580223D01*
X99037452Y-89553311D01*
X99028595Y-89524116D01*
X99025000Y-89487610D01*
X99025000Y-88937390D01*
X99028595Y-88900884D01*
X99037452Y-88871689D01*
X99051837Y-88844777D01*
X99071192Y-88821192D01*
X99094777Y-88801837D01*
X99121689Y-88787452D01*
X99150884Y-88778595D01*
X99187390Y-88775000D01*
X99812610Y-88775000D01*
X99849116Y-88778595D01*
X99849116Y-88778595D01*
G37*
G36*
X105849116Y-88778595D02*
G01*
X105878311Y-88787452D01*
X105905223Y-88801837D01*
X105928808Y-88821192D01*
X105948163Y-88844777D01*
X105962548Y-88871689D01*
X105971405Y-88900884D01*
X105975000Y-88937390D01*
X105975000Y-89487610D01*
X105971405Y-89524116D01*
X105962548Y-89553311D01*
X105948163Y-89580223D01*
X105928808Y-89603808D01*
X105905223Y-89623163D01*
X105878311Y-89637548D01*
X105849116Y-89646405D01*
X105812610Y-89650000D01*
X105187390Y-89650000D01*
X105150884Y-89646405D01*
X105121689Y-89637548D01*
X105094777Y-89623163D01*
X105071192Y-89603808D01*
X105051837Y-89580223D01*
X105037452Y-89553311D01*
X105028595Y-89524116D01*
X105025000Y-89487610D01*
X105025000Y-88937390D01*
X105028595Y-88900884D01*
X105037452Y-88871689D01*
X105051837Y-88844777D01*
X105071192Y-88821192D01*
X105094777Y-88801837D01*
X105121689Y-88787452D01*
X105150884Y-88778595D01*
X105187390Y-88775000D01*
X105812610Y-88775000D01*
X105849116Y-88778595D01*
X105849116Y-88778595D01*
G37*
G36*
X97380000Y-89475000D02*
G01*
X96320000Y-89475000D01*
X96320000Y-88825000D01*
X97380000Y-88825000D01*
X97380000Y-89475000D01*
X97380000Y-89475000D01*
G37*
G36*
X95180000Y-89475000D02*
G01*
X94120000Y-89475000D01*
X94120000Y-88825000D01*
X95180000Y-88825000D01*
X95180000Y-89475000D01*
X95180000Y-89475000D01*
G37*
G36*
X108450000Y-89450000D02*
G01*
X107550000Y-89450000D01*
X107550000Y-88650000D01*
X108450000Y-88650000D01*
X108450000Y-89450000D01*
X108450000Y-89450000D01*
G37*
G36*
X95180000Y-88525000D02*
G01*
X94120000Y-88525000D01*
X94120000Y-87875000D01*
X95180000Y-87875000D01*
X95180000Y-88525000D01*
X95180000Y-88525000D01*
G37*
G36*
X97380000Y-87575000D02*
G01*
X96320000Y-87575000D01*
X96320000Y-86925000D01*
X97380000Y-86925000D01*
X97380000Y-87575000D01*
X97380000Y-87575000D01*
G37*
G36*
X95180000Y-87575000D02*
G01*
X94120000Y-87575000D01*
X94120000Y-86925000D01*
X95180000Y-86925000D01*
X95180000Y-87575000D01*
X95180000Y-87575000D01*
G37*
G36*
X90524116Y-86528595D02*
G01*
X90553311Y-86537452D01*
X90580223Y-86551837D01*
X90603808Y-86571192D01*
X90623163Y-86594777D01*
X90637548Y-86621689D01*
X90646405Y-86650884D01*
X90650000Y-86687390D01*
X90650000Y-87312610D01*
X90646405Y-87349116D01*
X90637548Y-87378311D01*
X90623163Y-87405223D01*
X90603808Y-87428808D01*
X90580223Y-87448163D01*
X90553311Y-87462548D01*
X90524116Y-87471405D01*
X90487610Y-87475000D01*
X89937390Y-87475000D01*
X89900884Y-87471405D01*
X89871689Y-87462548D01*
X89844777Y-87448163D01*
X89821192Y-87428808D01*
X89801837Y-87405223D01*
X89787452Y-87378311D01*
X89778595Y-87349116D01*
X89775000Y-87312610D01*
X89775000Y-86687390D01*
X89778595Y-86650884D01*
X89787452Y-86621689D01*
X89801837Y-86594777D01*
X89821192Y-86571192D01*
X89844777Y-86551837D01*
X89871689Y-86537452D01*
X89900884Y-86528595D01*
X89937390Y-86525000D01*
X90487610Y-86525000D01*
X90524116Y-86528595D01*
X90524116Y-86528595D01*
G37*
G36*
X92099116Y-86528595D02*
G01*
X92128311Y-86537452D01*
X92155223Y-86551837D01*
X92178808Y-86571192D01*
X92198163Y-86594777D01*
X92212548Y-86621689D01*
X92221405Y-86650884D01*
X92225000Y-86687390D01*
X92225000Y-87312610D01*
X92221405Y-87349116D01*
X92212548Y-87378311D01*
X92198163Y-87405223D01*
X92178808Y-87428808D01*
X92155223Y-87448163D01*
X92128311Y-87462548D01*
X92099116Y-87471405D01*
X92062610Y-87475000D01*
X91512390Y-87475000D01*
X91475884Y-87471405D01*
X91446689Y-87462548D01*
X91419777Y-87448163D01*
X91396192Y-87428808D01*
X91376837Y-87405223D01*
X91362452Y-87378311D01*
X91353595Y-87349116D01*
X91350000Y-87312610D01*
X91350000Y-86687390D01*
X91353595Y-86650884D01*
X91362452Y-86621689D01*
X91376837Y-86594777D01*
X91396192Y-86571192D01*
X91419777Y-86551837D01*
X91446689Y-86537452D01*
X91475884Y-86528595D01*
X91512390Y-86525000D01*
X92062610Y-86525000D01*
X92099116Y-86528595D01*
X92099116Y-86528595D01*
G37*
G36*
X107450000Y-87350000D02*
G01*
X106550000Y-87350000D01*
X106550000Y-86550000D01*
X107450000Y-86550000D01*
X107450000Y-87350000D01*
X107450000Y-87350000D01*
G37*
G36*
X109450000Y-86400000D02*
G01*
X108550000Y-86400000D01*
X108550000Y-85600000D01*
X109450000Y-85600000D01*
X109450000Y-86400000D01*
X109450000Y-86400000D01*
G37*
G36*
X98645843Y-85019214D02*
G01*
X98645846Y-85019215D01*
X98645845Y-85019215D01*
X98736839Y-85056906D01*
X98778063Y-85084451D01*
X98818730Y-85111624D01*
X98888376Y-85181270D01*
X98943095Y-85263163D01*
X98980786Y-85354157D01*
X99000000Y-85450753D01*
X99000000Y-85549247D01*
X98980786Y-85645843D01*
X98943095Y-85736837D01*
X98899704Y-85801777D01*
X98888375Y-85818731D01*
X98818731Y-85888375D01*
X98736839Y-85943094D01*
X98736838Y-85943095D01*
X98736837Y-85943095D01*
X98645843Y-85980786D01*
X98549247Y-86000000D01*
X98450753Y-86000000D01*
X98354157Y-85980786D01*
X98263163Y-85943095D01*
X98263162Y-85943095D01*
X98263161Y-85943094D01*
X98181269Y-85888375D01*
X98111625Y-85818731D01*
X98100297Y-85801777D01*
X98056905Y-85736837D01*
X98019214Y-85645843D01*
X98000000Y-85549247D01*
X98000000Y-85450753D01*
X98019214Y-85354157D01*
X98056905Y-85263163D01*
X98111624Y-85181270D01*
X98181270Y-85111624D01*
X98221937Y-85084451D01*
X98263161Y-85056906D01*
X98354155Y-85019215D01*
X98354154Y-85019215D01*
X98354157Y-85019214D01*
X98450753Y-85000000D01*
X98549247Y-85000000D01*
X98645843Y-85019214D01*
X98645843Y-85019214D01*
G37*
G36*
X101645843Y-85019214D02*
G01*
X101645846Y-85019215D01*
X101645845Y-85019215D01*
X101736839Y-85056906D01*
X101778063Y-85084451D01*
X101818730Y-85111624D01*
X101888376Y-85181270D01*
X101943095Y-85263163D01*
X101980786Y-85354157D01*
X102000000Y-85450753D01*
X102000000Y-85549247D01*
X101980786Y-85645843D01*
X101943095Y-85736837D01*
X101899704Y-85801777D01*
X101888375Y-85818731D01*
X101818731Y-85888375D01*
X101736839Y-85943094D01*
X101736838Y-85943095D01*
X101736837Y-85943095D01*
X101645843Y-85980786D01*
X101549247Y-86000000D01*
X101450753Y-86000000D01*
X101354157Y-85980786D01*
X101263163Y-85943095D01*
X101263162Y-85943095D01*
X101263161Y-85943094D01*
X101181269Y-85888375D01*
X101111625Y-85818731D01*
X101100297Y-85801777D01*
X101056905Y-85736837D01*
X101019214Y-85645843D01*
X101000000Y-85549247D01*
X101000000Y-85450753D01*
X101019214Y-85354157D01*
X101056905Y-85263163D01*
X101111624Y-85181270D01*
X101181270Y-85111624D01*
X101221937Y-85084451D01*
X101263161Y-85056906D01*
X101354155Y-85019215D01*
X101354154Y-85019215D01*
X101354157Y-85019214D01*
X101450753Y-85000000D01*
X101549247Y-85000000D01*
X101645843Y-85019214D01*
X101645843Y-85019214D01*
G37*
G36*
X94284024Y-84128955D02*
G01*
X94316738Y-84138879D01*
X94346885Y-84154993D01*
X94373315Y-84176685D01*
X94395007Y-84203115D01*
X94411121Y-84233262D01*
X94421045Y-84265976D01*
X94425000Y-84306138D01*
X94425000Y-85693862D01*
X94421045Y-85734024D01*
X94411121Y-85766738D01*
X94395007Y-85796885D01*
X94373315Y-85823315D01*
X94346885Y-85845007D01*
X94316738Y-85861121D01*
X94284024Y-85871045D01*
X94243862Y-85875000D01*
X93356138Y-85875000D01*
X93315976Y-85871045D01*
X93283262Y-85861121D01*
X93253115Y-85845007D01*
X93226685Y-85823315D01*
X93204993Y-85796885D01*
X93188879Y-85766738D01*
X93178955Y-85734024D01*
X93175000Y-85693862D01*
X93175000Y-84306138D01*
X93178955Y-84265976D01*
X93188879Y-84233262D01*
X93204993Y-84203115D01*
X93226685Y-84176685D01*
X93253115Y-84154993D01*
X93283262Y-84138879D01*
X93315976Y-84128955D01*
X93356138Y-84125000D01*
X94243862Y-84125000D01*
X94284024Y-84128955D01*
X94284024Y-84128955D01*
G37*
G36*
X91484024Y-84128955D02*
G01*
X91516738Y-84138879D01*
X91546885Y-84154993D01*
X91573315Y-84176685D01*
X91595007Y-84203115D01*
X91611121Y-84233262D01*
X91621045Y-84265976D01*
X91625000Y-84306138D01*
X91625000Y-85693862D01*
X91621045Y-85734024D01*
X91611121Y-85766738D01*
X91595007Y-85796885D01*
X91573315Y-85823315D01*
X91546885Y-85845007D01*
X91516738Y-85861121D01*
X91484024Y-85871045D01*
X91443862Y-85875000D01*
X90556138Y-85875000D01*
X90515976Y-85871045D01*
X90483262Y-85861121D01*
X90453115Y-85845007D01*
X90426685Y-85823315D01*
X90404993Y-85796885D01*
X90388879Y-85766738D01*
X90378955Y-85734024D01*
X90375000Y-85693862D01*
X90375000Y-84306138D01*
X90378955Y-84265976D01*
X90388879Y-84233262D01*
X90404993Y-84203115D01*
X90426685Y-84176685D01*
X90453115Y-84154993D01*
X90483262Y-84138879D01*
X90515976Y-84128955D01*
X90556138Y-84125000D01*
X91443862Y-84125000D01*
X91484024Y-84128955D01*
X91484024Y-84128955D01*
G37*
G36*
X95849116Y-84853595D02*
G01*
X95878311Y-84862452D01*
X95905223Y-84876837D01*
X95928808Y-84896192D01*
X95948163Y-84919777D01*
X95962548Y-84946689D01*
X95971405Y-84975884D01*
X95975000Y-85012390D01*
X95975000Y-85562610D01*
X95971405Y-85599116D01*
X95962548Y-85628311D01*
X95948163Y-85655223D01*
X95928808Y-85678808D01*
X95905223Y-85698163D01*
X95878311Y-85712548D01*
X95849116Y-85721405D01*
X95812610Y-85725000D01*
X95187390Y-85725000D01*
X95150884Y-85721405D01*
X95121689Y-85712548D01*
X95094777Y-85698163D01*
X95071192Y-85678808D01*
X95051837Y-85655223D01*
X95037452Y-85628311D01*
X95028595Y-85599116D01*
X95025000Y-85562610D01*
X95025000Y-85012390D01*
X95028595Y-84975884D01*
X95037452Y-84946689D01*
X95051837Y-84919777D01*
X95071192Y-84896192D01*
X95094777Y-84876837D01*
X95121689Y-84862452D01*
X95150884Y-84853595D01*
X95187390Y-84850000D01*
X95812610Y-84850000D01*
X95849116Y-84853595D01*
X95849116Y-84853595D01*
G37*
G36*
X107450000Y-85450000D02*
G01*
X106550000Y-85450000D01*
X106550000Y-84650000D01*
X107450000Y-84650000D01*
X107450000Y-85450000D01*
X107450000Y-85450000D01*
G37*
G36*
X95849116Y-83278595D02*
G01*
X95878311Y-83287452D01*
X95905223Y-83301837D01*
X95928808Y-83321192D01*
X95948163Y-83344777D01*
X95962548Y-83371689D01*
X95971405Y-83400884D01*
X95975000Y-83437390D01*
X95975000Y-83987610D01*
X95971405Y-84024116D01*
X95962548Y-84053311D01*
X95948163Y-84080223D01*
X95928808Y-84103808D01*
X95905223Y-84123163D01*
X95878311Y-84137548D01*
X95849116Y-84146405D01*
X95812610Y-84150000D01*
X95187390Y-84150000D01*
X95150884Y-84146405D01*
X95121689Y-84137548D01*
X95094777Y-84123163D01*
X95071192Y-84103808D01*
X95051837Y-84080223D01*
X95037452Y-84053311D01*
X95028595Y-84024116D01*
X95025000Y-83987610D01*
X95025000Y-83437390D01*
X95028595Y-83400884D01*
X95037452Y-83371689D01*
X95051837Y-83344777D01*
X95071192Y-83321192D01*
X95094777Y-83301837D01*
X95121689Y-83287452D01*
X95150884Y-83278595D01*
X95187390Y-83275000D01*
X95812610Y-83275000D01*
X95849116Y-83278595D01*
X95849116Y-83278595D01*
G37*
G36*
X101645843Y-82019214D02*
G01*
X101645846Y-82019215D01*
X101645845Y-82019215D01*
X101736839Y-82056906D01*
X101778063Y-82084451D01*
X101818730Y-82111624D01*
X101888376Y-82181270D01*
X101943095Y-82263163D01*
X101980786Y-82354157D01*
X102000000Y-82450753D01*
X102000000Y-82549247D01*
X101980786Y-82645843D01*
X101980785Y-82645845D01*
X101943094Y-82736839D01*
X101888375Y-82818731D01*
X101818731Y-82888375D01*
X101736839Y-82943094D01*
X101736838Y-82943095D01*
X101736837Y-82943095D01*
X101645843Y-82980786D01*
X101549247Y-83000000D01*
X101450753Y-83000000D01*
X101354157Y-82980786D01*
X101263163Y-82943095D01*
X101263162Y-82943095D01*
X101263161Y-82943094D01*
X101181269Y-82888375D01*
X101111625Y-82818731D01*
X101056906Y-82736839D01*
X101019215Y-82645845D01*
X101019214Y-82645843D01*
X101000000Y-82549247D01*
X101000000Y-82450753D01*
X101019214Y-82354157D01*
X101056905Y-82263163D01*
X101111624Y-82181270D01*
X101181270Y-82111624D01*
X101221937Y-82084451D01*
X101263161Y-82056906D01*
X101354155Y-82019215D01*
X101354154Y-82019215D01*
X101354157Y-82019214D01*
X101450753Y-82000000D01*
X101549247Y-82000000D01*
X101645843Y-82019214D01*
X101645843Y-82019214D01*
G37*
G36*
X98645843Y-82019214D02*
G01*
X98645846Y-82019215D01*
X98645845Y-82019215D01*
X98736839Y-82056906D01*
X98778063Y-82084451D01*
X98818730Y-82111624D01*
X98888376Y-82181270D01*
X98943095Y-82263163D01*
X98980786Y-82354157D01*
X99000000Y-82450753D01*
X99000000Y-82549247D01*
X98980786Y-82645843D01*
X98980785Y-82645845D01*
X98943094Y-82736839D01*
X98888375Y-82818731D01*
X98818731Y-82888375D01*
X98736839Y-82943094D01*
X98736838Y-82943095D01*
X98736837Y-82943095D01*
X98645843Y-82980786D01*
X98549247Y-83000000D01*
X98450753Y-83000000D01*
X98354157Y-82980786D01*
X98263163Y-82943095D01*
X98263162Y-82943095D01*
X98263161Y-82943094D01*
X98181269Y-82888375D01*
X98111625Y-82818731D01*
X98056906Y-82736839D01*
X98019215Y-82645845D01*
X98019214Y-82645843D01*
X98000000Y-82549247D01*
X98000000Y-82450753D01*
X98019214Y-82354157D01*
X98056905Y-82263163D01*
X98111624Y-82181270D01*
X98181270Y-82111624D01*
X98221937Y-82084451D01*
X98263161Y-82056906D01*
X98354155Y-82019215D01*
X98354154Y-82019215D01*
X98354157Y-82019214D01*
X98450753Y-82000000D01*
X98549247Y-82000000D01*
X98645843Y-82019214D01*
X98645843Y-82019214D01*
G37*
M02*
