G04 #@! TF.GenerationSoftware,KiCad,Pcbnew,5.1.4*
G04 #@! TF.CreationDate,2019-11-28T00:41:57+01:00*
G04 #@! TF.ProjectId,SICKWATCH1,5349434b-5741-4544-9348-312e6b696361,rev?*
G04 #@! TF.SameCoordinates,Original*
G04 #@! TF.FileFunction,Legend,Bot*
G04 #@! TF.FilePolarity,Positive*
%FSLAX46Y46*%
G04 Gerber Fmt 4.6, Leading zero omitted, Abs format (unit mm)*
G04 Created by KiCad (PCBNEW 5.1.4) date 2019-11-28 00:41:57*
%MOMM*%
%LPD*%
G04 APERTURE LIST*
%ADD10C,0.150000*%
%ADD11C,0.120000*%
G04 APERTURE END LIST*
D10*
X108404761Y-113127380D02*
X108071428Y-114127380D01*
X107738095Y-113127380D01*
X106119047Y-114127380D02*
X106690476Y-114127380D01*
X106404761Y-114127380D02*
X106404761Y-113127380D01*
X106500000Y-113270238D01*
X106595238Y-113365476D01*
X106690476Y-113413095D01*
X105690476Y-114032142D02*
X105642857Y-114079761D01*
X105690476Y-114127380D01*
X105738095Y-114079761D01*
X105690476Y-114032142D01*
X105690476Y-114127380D01*
X105023809Y-113127380D02*
X104928571Y-113127380D01*
X104833333Y-113175000D01*
X104785714Y-113222619D01*
X104738095Y-113317857D01*
X104690476Y-113508333D01*
X104690476Y-113746428D01*
X104738095Y-113936904D01*
X104785714Y-114032142D01*
X104833333Y-114079761D01*
X104928571Y-114127380D01*
X105023809Y-114127380D01*
X105119047Y-114079761D01*
X105166666Y-114032142D01*
X105214285Y-113936904D01*
X105261904Y-113746428D01*
X105261904Y-113508333D01*
X105214285Y-113317857D01*
X105166666Y-113222619D01*
X105119047Y-113175000D01*
X105023809Y-113127380D01*
X108166666Y-114777380D02*
X108261904Y-114967857D01*
X106452380Y-115777380D02*
X107023809Y-115777380D01*
X106738095Y-115777380D02*
X106738095Y-114777380D01*
X106833333Y-114920238D01*
X106928571Y-115015476D01*
X107023809Y-115063095D01*
X105214285Y-115777380D02*
X105023809Y-115777380D01*
X104928571Y-115729761D01*
X104880952Y-115682142D01*
X104785714Y-115539285D01*
X104738095Y-115348809D01*
X104738095Y-114967857D01*
X104785714Y-114872619D01*
X104833333Y-114825000D01*
X104928571Y-114777380D01*
X105119047Y-114777380D01*
X105214285Y-114825000D01*
X105261904Y-114872619D01*
X105309523Y-114967857D01*
X105309523Y-115205952D01*
X105261904Y-115301190D01*
X105214285Y-115348809D01*
X105119047Y-115396428D01*
X104928571Y-115396428D01*
X104833333Y-115348809D01*
X104785714Y-115301190D01*
X104738095Y-115205952D01*
X103642857Y-103504761D02*
X103547619Y-103552380D01*
X103357142Y-103552380D01*
X103261904Y-103504761D01*
X103214285Y-103409523D01*
X103214285Y-103361904D01*
X103261904Y-103266666D01*
X103357142Y-103219047D01*
X103500000Y-103219047D01*
X103595238Y-103171428D01*
X103642857Y-103076190D01*
X103642857Y-103028571D01*
X103595238Y-102933333D01*
X103500000Y-102885714D01*
X103357142Y-102885714D01*
X103261904Y-102933333D01*
X101595238Y-103552380D02*
X101595238Y-103028571D01*
X101642857Y-102933333D01*
X101738095Y-102885714D01*
X101928571Y-102885714D01*
X102023809Y-102933333D01*
X101595238Y-103504761D02*
X101690476Y-103552380D01*
X101928571Y-103552380D01*
X102023809Y-103504761D01*
X102071428Y-103409523D01*
X102071428Y-103314285D01*
X102023809Y-103219047D01*
X101928571Y-103171428D01*
X101690476Y-103171428D01*
X101595238Y-103123809D01*
X100452380Y-102885714D02*
X100214285Y-103552380D01*
X99976190Y-102885714D01*
X98452380Y-103504761D02*
X98547619Y-103552380D01*
X98738095Y-103552380D01*
X98833333Y-103504761D01*
X98880952Y-103409523D01*
X98880952Y-103028571D01*
X98833333Y-102933333D01*
X98738095Y-102885714D01*
X98547619Y-102885714D01*
X98452380Y-102933333D01*
X98404761Y-103028571D01*
X98404761Y-103123809D01*
X98880952Y-103219047D01*
X102785714Y-104535714D02*
X102404761Y-104535714D01*
X102642857Y-104202380D02*
X102642857Y-105059523D01*
X102595238Y-105154761D01*
X102500000Y-105202380D01*
X102404761Y-105202380D01*
X101309523Y-105202380D02*
X101309523Y-104535714D01*
X101309523Y-104202380D02*
X101357142Y-104250000D01*
X101309523Y-104297619D01*
X101261904Y-104250000D01*
X101309523Y-104202380D01*
X101309523Y-104297619D01*
X100071428Y-105202380D02*
X100071428Y-104535714D01*
X100071428Y-104630952D02*
X100023809Y-104583333D01*
X99928571Y-104535714D01*
X99785714Y-104535714D01*
X99690476Y-104583333D01*
X99642857Y-104678571D01*
X99642857Y-105202380D01*
X99642857Y-104678571D02*
X99595238Y-104583333D01*
X99500000Y-104535714D01*
X99357142Y-104535714D01*
X99261904Y-104583333D01*
X99214285Y-104678571D01*
X99214285Y-105202380D01*
X97595238Y-105154761D02*
X97690476Y-105202380D01*
X97880952Y-105202380D01*
X97976190Y-105154761D01*
X98023809Y-105059523D01*
X98023809Y-104678571D01*
X97976190Y-104583333D01*
X97880952Y-104535714D01*
X97690476Y-104535714D01*
X97595238Y-104583333D01*
X97547619Y-104678571D01*
X97547619Y-104773809D01*
X98023809Y-104869047D01*
X96357142Y-105107142D02*
X96309523Y-105154761D01*
X96357142Y-105202380D01*
X96404761Y-105154761D01*
X96357142Y-105107142D01*
X96357142Y-105202380D01*
X96357142Y-104821428D02*
X96404761Y-104250000D01*
X96357142Y-104202380D01*
X96309523Y-104250000D01*
X96357142Y-104821428D01*
X96357142Y-104202380D01*
X104642857Y-106471428D02*
X103880952Y-106471428D01*
X102642857Y-106185714D02*
X102642857Y-107042857D01*
X102690476Y-107138095D01*
X102785714Y-107185714D01*
X102833333Y-107185714D01*
X102642857Y-105852380D02*
X102690476Y-105900000D01*
X102642857Y-105947619D01*
X102595238Y-105900000D01*
X102642857Y-105852380D01*
X102642857Y-105947619D01*
X100976190Y-106185714D02*
X100976190Y-106852380D01*
X101404761Y-106185714D02*
X101404761Y-106709523D01*
X101357142Y-106804761D01*
X101261904Y-106852380D01*
X101119047Y-106852380D01*
X101023809Y-106804761D01*
X100976190Y-106757142D01*
X99595238Y-106852380D02*
X99690476Y-106804761D01*
X99738095Y-106709523D01*
X99738095Y-105852380D01*
X98452380Y-106852380D02*
X98452380Y-106185714D01*
X98452380Y-105852380D02*
X98500000Y-105900000D01*
X98452380Y-105947619D01*
X98404761Y-105900000D01*
X98452380Y-105852380D01*
X98452380Y-105947619D01*
X96785714Y-106852380D02*
X96785714Y-106328571D01*
X96833333Y-106233333D01*
X96928571Y-106185714D01*
X97119047Y-106185714D01*
X97214285Y-106233333D01*
X96785714Y-106804761D02*
X96880952Y-106852380D01*
X97119047Y-106852380D01*
X97214285Y-106804761D01*
X97261904Y-106709523D01*
X97261904Y-106614285D01*
X97214285Y-106519047D01*
X97119047Y-106471428D01*
X96880952Y-106471428D01*
X96785714Y-106423809D01*
X95547619Y-106185714D02*
X95547619Y-106852380D01*
X95547619Y-106280952D02*
X95500000Y-106233333D01*
X95404761Y-106185714D01*
X95261904Y-106185714D01*
X95166666Y-106233333D01*
X95119047Y-106328571D01*
X95119047Y-106852380D01*
D11*
X105200000Y-102000000D02*
G75*
G03X105200000Y-102000000I-700000J0D01*
G01*
X95510000Y-99337221D02*
X95510000Y-99662779D01*
X94490000Y-99337221D02*
X94490000Y-99662779D01*
X114360000Y-100440000D02*
X112125000Y-100440000D01*
X114360000Y-106160000D02*
X114360000Y-100440000D01*
X113290000Y-106160000D02*
X114360000Y-106160000D01*
X113290000Y-105860000D02*
X113290000Y-106160000D01*
X112125000Y-105860000D02*
X113290000Y-105860000D01*
X109890000Y-100440000D02*
X112125000Y-100440000D01*
X109890000Y-106160000D02*
X109890000Y-100440000D01*
X110960000Y-106160000D02*
X109890000Y-106160000D01*
X110960000Y-105860000D02*
X110960000Y-106160000D01*
X112125000Y-105860000D02*
X110960000Y-105860000D01*
X111250000Y-106450000D02*
X110750000Y-106450000D01*
X111250000Y-106150000D02*
X111250000Y-106450000D01*
X113700000Y-98000000D02*
G75*
G03X113700000Y-98000000I-700000J0D01*
G01*
X110700000Y-98000000D02*
G75*
G03X110700000Y-98000000I-700000J0D01*
G01*
X85700000Y-108050000D02*
G75*
G03X85700000Y-108050000I-700000J0D01*
G01*
X88700000Y-108000000D02*
G75*
G03X88700000Y-108000000I-700000J0D01*
G01*
X85700000Y-105000000D02*
G75*
G03X85700000Y-105000000I-700000J0D01*
G01*
X88700000Y-105000000D02*
G75*
G03X88700000Y-105000000I-700000J0D01*
G01*
X93002064Y-85910000D02*
X91797936Y-85910000D01*
X93002064Y-84090000D02*
X91797936Y-84090000D01*
X106600000Y-103390000D02*
X109050000Y-103390000D01*
X108400000Y-106610000D02*
X106600000Y-106610000D01*
X107162779Y-101510000D02*
X106837221Y-101510000D01*
X107162779Y-100490000D02*
X106837221Y-100490000D01*
X93200000Y-107450000D02*
X90800000Y-107450000D01*
X90800000Y-110550000D02*
X93750000Y-110550000D01*
X92162779Y-105510000D02*
X91837221Y-105510000D01*
X92162779Y-104490000D02*
X91837221Y-104490000D01*
X106010000Y-89837221D02*
X106010000Y-90162779D01*
X104990000Y-89837221D02*
X104990000Y-90162779D01*
X103010000Y-89837221D02*
X103010000Y-90162779D01*
X101990000Y-89837221D02*
X101990000Y-90162779D01*
X96162779Y-92510000D02*
X95837221Y-92510000D01*
X96162779Y-91490000D02*
X95837221Y-91490000D01*
X100010000Y-89837221D02*
X100010000Y-90162779D01*
X98990000Y-89837221D02*
X98990000Y-90162779D01*
X107162779Y-98510000D02*
X106837221Y-98510000D01*
X107162779Y-97490000D02*
X106837221Y-97490000D01*
X112490000Y-93950279D02*
X112490000Y-93624721D01*
X113510000Y-93950279D02*
X113510000Y-93624721D01*
X106490000Y-93950279D02*
X106490000Y-93624721D01*
X107510000Y-93950279D02*
X107510000Y-93624721D01*
X94490000Y-95162779D02*
X94490000Y-94837221D01*
X95510000Y-95162779D02*
X95510000Y-94837221D01*
X83990000Y-101162779D02*
X83990000Y-100837221D01*
X85010000Y-101162779D02*
X85010000Y-100837221D01*
X86510000Y-95337221D02*
X86510000Y-95662779D01*
X85490000Y-95337221D02*
X85490000Y-95662779D01*
X86510000Y-90837221D02*
X86510000Y-91162779D01*
X85490000Y-90837221D02*
X85490000Y-91162779D01*
X88490000Y-95662779D02*
X88490000Y-95337221D01*
X89510000Y-95662779D02*
X89510000Y-95337221D01*
X89510000Y-90837221D02*
X89510000Y-91162779D01*
X88490000Y-90837221D02*
X88490000Y-91162779D01*
X88010000Y-100837221D02*
X88010000Y-101162779D01*
X86990000Y-100837221D02*
X86990000Y-101162779D01*
X112490000Y-109162779D02*
X112490000Y-108837221D01*
X113510000Y-109162779D02*
X113510000Y-108837221D01*
X91162779Y-87510000D02*
X90837221Y-87510000D01*
X91162779Y-86490000D02*
X90837221Y-86490000D01*
X94990000Y-84662779D02*
X94990000Y-84337221D01*
X96010000Y-84662779D02*
X96010000Y-84337221D01*
X105990000Y-109162779D02*
X105990000Y-108837221D01*
X107010000Y-109162779D02*
X107010000Y-108837221D01*
X95490000Y-115162779D02*
X95490000Y-114837221D01*
X96510000Y-115162779D02*
X96510000Y-114837221D01*
X104510000Y-99337221D02*
X104510000Y-99662779D01*
X103490000Y-99337221D02*
X103490000Y-99662779D01*
X101510000Y-99337221D02*
X101510000Y-99662779D01*
X100490000Y-99337221D02*
X100490000Y-99662779D01*
X98510000Y-99337221D02*
X98510000Y-99662779D01*
X97490000Y-99337221D02*
X97490000Y-99662779D01*
X109490000Y-93950279D02*
X109490000Y-93624721D01*
X110510000Y-93950279D02*
X110510000Y-93624721D01*
X103490000Y-95162779D02*
X103490000Y-94837221D01*
X104510000Y-95162779D02*
X104510000Y-94837221D01*
X100490000Y-95162779D02*
X100490000Y-94837221D01*
X101510000Y-95162779D02*
X101510000Y-94837221D01*
X97490000Y-95162779D02*
X97490000Y-94837221D01*
X98510000Y-95162779D02*
X98510000Y-94837221D01*
X91010000Y-100837221D02*
X91010000Y-101162779D01*
X89990000Y-100837221D02*
X89990000Y-101162779D01*
X94010000Y-100837221D02*
X94010000Y-101162779D01*
X92990000Y-100837221D02*
X92990000Y-101162779D01*
X110270000Y-110760000D02*
X107820000Y-110760000D01*
X108470000Y-107540000D02*
X110270000Y-107540000D01*
X109760000Y-88420000D02*
X108300000Y-88420000D01*
X109760000Y-91580000D02*
X107600000Y-91580000D01*
X109760000Y-91580000D02*
X109760000Y-90650000D01*
X109760000Y-88420000D02*
X109760000Y-89350000D01*
X108760000Y-84420000D02*
X107300000Y-84420000D01*
X108760000Y-87580000D02*
X106600000Y-87580000D01*
X108760000Y-87580000D02*
X108760000Y-86650000D01*
X108760000Y-84420000D02*
X108760000Y-85350000D01*
X96650000Y-89810000D02*
X94200000Y-89810000D01*
X94850000Y-86590000D02*
X96650000Y-86590000D01*
X118975000Y-101425000D02*
X118975000Y-102350000D01*
X116850000Y-97550000D02*
X117400000Y-97550000D01*
X116850000Y-102450000D02*
X117400000Y-102450000D01*
X115275000Y-97650000D02*
X115275000Y-102350000D01*
X118975000Y-97650000D02*
X118975000Y-98575000D01*
D10*
X97200000Y-109225000D02*
X97200000Y-115200000D01*
X102725000Y-110800000D02*
X102725000Y-115200000D01*
D11*
X90720000Y-96200000D02*
X90720000Y-89300000D01*
X90720000Y-89300000D02*
X93180000Y-89300000D01*
X93180000Y-89300000D02*
X93180000Y-96200000D01*
X93180000Y-96200000D02*
X90720000Y-96200000D01*
X91600000Y-96200000D02*
X91000000Y-97100000D01*
X91000000Y-97100000D02*
X91000000Y-97300000D01*
X92300000Y-96200000D02*
X92900000Y-97100000D01*
X92900000Y-97100000D02*
X92900000Y-97300000D01*
X102200000Y-85500000D02*
G75*
G03X102200000Y-85500000I-700000J0D01*
G01*
X102200000Y-82500000D02*
G75*
G03X102200000Y-82500000I-700000J0D01*
G01*
X99200000Y-85500000D02*
G75*
G03X99200000Y-85500000I-700000J0D01*
G01*
X99200000Y-82500000D02*
G75*
G03X99200000Y-82500000I-700000J0D01*
G01*
D10*
X93927142Y-98857142D02*
X93974761Y-98809523D01*
X94022380Y-98666666D01*
X94022380Y-98571428D01*
X93974761Y-98428571D01*
X93879523Y-98333333D01*
X93784285Y-98285714D01*
X93593809Y-98238095D01*
X93450952Y-98238095D01*
X93260476Y-98285714D01*
X93165238Y-98333333D01*
X93070000Y-98428571D01*
X93022380Y-98571428D01*
X93022380Y-98666666D01*
X93070000Y-98809523D01*
X93117619Y-98857142D01*
X94022380Y-99809523D02*
X94022380Y-99238095D01*
X94022380Y-99523809D02*
X93022380Y-99523809D01*
X93165238Y-99428571D01*
X93260476Y-99333333D01*
X93308095Y-99238095D01*
X93022380Y-100714285D02*
X93022380Y-100238095D01*
X93498571Y-100190476D01*
X93450952Y-100238095D01*
X93403333Y-100333333D01*
X93403333Y-100571428D01*
X93450952Y-100666666D01*
X93498571Y-100714285D01*
X93593809Y-100761904D01*
X93831904Y-100761904D01*
X93927142Y-100714285D01*
X93974761Y-100666666D01*
X94022380Y-100571428D01*
X94022380Y-100333333D01*
X93974761Y-100238095D01*
X93927142Y-100190476D01*
X112453333Y-106402380D02*
X112453333Y-107116666D01*
X112500952Y-107259523D01*
X112596190Y-107354761D01*
X112739047Y-107402380D01*
X112834285Y-107402380D01*
X111453333Y-107402380D02*
X112024761Y-107402380D01*
X111739047Y-107402380D02*
X111739047Y-106402380D01*
X111834285Y-106545238D01*
X111929523Y-106640476D01*
X112024761Y-106688095D01*
X114238095Y-95902380D02*
X113619047Y-95902380D01*
X113952380Y-96283333D01*
X113809523Y-96283333D01*
X113714285Y-96330952D01*
X113666666Y-96378571D01*
X113619047Y-96473809D01*
X113619047Y-96711904D01*
X113666666Y-96807142D01*
X113714285Y-96854761D01*
X113809523Y-96902380D01*
X114095238Y-96902380D01*
X114190476Y-96854761D01*
X114238095Y-96807142D01*
X113333333Y-95902380D02*
X113000000Y-96902380D01*
X112666666Y-95902380D01*
X112428571Y-95902380D02*
X111809523Y-95902380D01*
X112142857Y-96283333D01*
X112000000Y-96283333D01*
X111904761Y-96330952D01*
X111857142Y-96378571D01*
X111809523Y-96473809D01*
X111809523Y-96711904D01*
X111857142Y-96807142D01*
X111904761Y-96854761D01*
X112000000Y-96902380D01*
X112285714Y-96902380D01*
X112380952Y-96854761D01*
X112428571Y-96807142D01*
X111238095Y-95902380D02*
X110619047Y-95902380D01*
X110952380Y-96283333D01*
X110809523Y-96283333D01*
X110714285Y-96330952D01*
X110666666Y-96378571D01*
X110619047Y-96473809D01*
X110619047Y-96711904D01*
X110666666Y-96807142D01*
X110714285Y-96854761D01*
X110809523Y-96902380D01*
X111095238Y-96902380D01*
X111190476Y-96854761D01*
X111238095Y-96807142D01*
X110333333Y-95902380D02*
X110000000Y-96902380D01*
X109666666Y-95902380D01*
X109428571Y-95902380D02*
X108809523Y-95902380D01*
X109142857Y-96283333D01*
X109000000Y-96283333D01*
X108904761Y-96330952D01*
X108857142Y-96378571D01*
X108809523Y-96473809D01*
X108809523Y-96711904D01*
X108857142Y-96807142D01*
X108904761Y-96854761D01*
X109000000Y-96902380D01*
X109285714Y-96902380D01*
X109380952Y-96854761D01*
X109428571Y-96807142D01*
X86238095Y-105952380D02*
X85619047Y-105952380D01*
X85952380Y-106333333D01*
X85809523Y-106333333D01*
X85714285Y-106380952D01*
X85666666Y-106428571D01*
X85619047Y-106523809D01*
X85619047Y-106761904D01*
X85666666Y-106857142D01*
X85714285Y-106904761D01*
X85809523Y-106952380D01*
X86095238Y-106952380D01*
X86190476Y-106904761D01*
X86238095Y-106857142D01*
X85333333Y-105952380D02*
X85000000Y-106952380D01*
X84666666Y-105952380D01*
X84428571Y-105952380D02*
X83809523Y-105952380D01*
X84142857Y-106333333D01*
X84000000Y-106333333D01*
X83904761Y-106380952D01*
X83857142Y-106428571D01*
X83809523Y-106523809D01*
X83809523Y-106761904D01*
X83857142Y-106857142D01*
X83904761Y-106904761D01*
X84000000Y-106952380D01*
X84285714Y-106952380D01*
X84380952Y-106904761D01*
X84428571Y-106857142D01*
X89238095Y-105952380D02*
X88619047Y-105952380D01*
X88952380Y-106333333D01*
X88809523Y-106333333D01*
X88714285Y-106380952D01*
X88666666Y-106428571D01*
X88619047Y-106523809D01*
X88619047Y-106761904D01*
X88666666Y-106857142D01*
X88714285Y-106904761D01*
X88809523Y-106952380D01*
X89095238Y-106952380D01*
X89190476Y-106904761D01*
X89238095Y-106857142D01*
X88333333Y-105952380D02*
X88000000Y-106952380D01*
X87666666Y-105952380D01*
X87428571Y-105952380D02*
X86809523Y-105952380D01*
X87142857Y-106333333D01*
X87000000Y-106333333D01*
X86904761Y-106380952D01*
X86857142Y-106428571D01*
X86809523Y-106523809D01*
X86809523Y-106761904D01*
X86857142Y-106857142D01*
X86904761Y-106904761D01*
X87000000Y-106952380D01*
X87285714Y-106952380D01*
X87380952Y-106904761D01*
X87428571Y-106857142D01*
X86238095Y-102452380D02*
X85619047Y-102452380D01*
X85952380Y-102833333D01*
X85809523Y-102833333D01*
X85714285Y-102880952D01*
X85666666Y-102928571D01*
X85619047Y-103023809D01*
X85619047Y-103261904D01*
X85666666Y-103357142D01*
X85714285Y-103404761D01*
X85809523Y-103452380D01*
X86095238Y-103452380D01*
X86190476Y-103404761D01*
X86238095Y-103357142D01*
X85333333Y-102452380D02*
X85000000Y-103452380D01*
X84666666Y-102452380D01*
X84428571Y-102452380D02*
X83809523Y-102452380D01*
X84142857Y-102833333D01*
X84000000Y-102833333D01*
X83904761Y-102880952D01*
X83857142Y-102928571D01*
X83809523Y-103023809D01*
X83809523Y-103261904D01*
X83857142Y-103357142D01*
X83904761Y-103404761D01*
X84000000Y-103452380D01*
X84285714Y-103452380D01*
X84380952Y-103404761D01*
X84428571Y-103357142D01*
X89238095Y-102452380D02*
X88619047Y-102452380D01*
X88952380Y-102833333D01*
X88809523Y-102833333D01*
X88714285Y-102880952D01*
X88666666Y-102928571D01*
X88619047Y-103023809D01*
X88619047Y-103261904D01*
X88666666Y-103357142D01*
X88714285Y-103404761D01*
X88809523Y-103452380D01*
X89095238Y-103452380D01*
X89190476Y-103404761D01*
X89238095Y-103357142D01*
X88333333Y-102452380D02*
X88000000Y-103452380D01*
X87666666Y-102452380D01*
X87428571Y-102452380D02*
X86809523Y-102452380D01*
X87142857Y-102833333D01*
X87000000Y-102833333D01*
X86904761Y-102880952D01*
X86857142Y-102928571D01*
X86809523Y-103023809D01*
X86809523Y-103261904D01*
X86857142Y-103357142D01*
X86904761Y-103404761D01*
X87000000Y-103452380D01*
X87285714Y-103452380D01*
X87380952Y-103404761D01*
X87428571Y-103357142D01*
X91852380Y-84666666D02*
X92566666Y-84666666D01*
X92709523Y-84619047D01*
X92804761Y-84523809D01*
X92852380Y-84380952D01*
X92852380Y-84285714D01*
X91947619Y-85095238D02*
X91900000Y-85142857D01*
X91852380Y-85238095D01*
X91852380Y-85476190D01*
X91900000Y-85571428D01*
X91947619Y-85619047D01*
X92042857Y-85666666D01*
X92138095Y-85666666D01*
X92280952Y-85619047D01*
X92852380Y-85047619D01*
X92852380Y-85666666D01*
X108261904Y-101952380D02*
X108261904Y-102761904D01*
X108214285Y-102857142D01*
X108166666Y-102904761D01*
X108071428Y-102952380D01*
X107880952Y-102952380D01*
X107785714Y-102904761D01*
X107738095Y-102857142D01*
X107690476Y-102761904D01*
X107690476Y-101952380D01*
X106785714Y-102285714D02*
X106785714Y-102952380D01*
X107023809Y-101904761D02*
X107261904Y-102619047D01*
X106642857Y-102619047D01*
X107642857Y-100022380D02*
X107976190Y-99546190D01*
X108214285Y-100022380D02*
X108214285Y-99022380D01*
X107833333Y-99022380D01*
X107738095Y-99070000D01*
X107690476Y-99117619D01*
X107642857Y-99212857D01*
X107642857Y-99355714D01*
X107690476Y-99450952D01*
X107738095Y-99498571D01*
X107833333Y-99546190D01*
X108214285Y-99546190D01*
X106690476Y-100022380D02*
X107261904Y-100022380D01*
X106976190Y-100022380D02*
X106976190Y-99022380D01*
X107071428Y-99165238D01*
X107166666Y-99260476D01*
X107261904Y-99308095D01*
X106357142Y-99022380D02*
X105738095Y-99022380D01*
X106071428Y-99403333D01*
X105928571Y-99403333D01*
X105833333Y-99450952D01*
X105785714Y-99498571D01*
X105738095Y-99593809D01*
X105738095Y-99831904D01*
X105785714Y-99927142D01*
X105833333Y-99974761D01*
X105928571Y-100022380D01*
X106214285Y-100022380D01*
X106309523Y-99974761D01*
X106357142Y-99927142D01*
X94261904Y-112202380D02*
X94261904Y-111202380D01*
X93309523Y-112202380D02*
X93785714Y-112202380D01*
X93785714Y-111202380D01*
X92976190Y-111678571D02*
X92642857Y-111678571D01*
X92500000Y-112202380D02*
X92976190Y-112202380D01*
X92976190Y-111202380D01*
X92500000Y-111202380D01*
X92071428Y-112202380D02*
X92071428Y-111202380D01*
X91833333Y-111202380D01*
X91690476Y-111250000D01*
X91595238Y-111345238D01*
X91547619Y-111440476D01*
X91500000Y-111630952D01*
X91500000Y-111773809D01*
X91547619Y-111964285D01*
X91595238Y-112059523D01*
X91690476Y-112154761D01*
X91833333Y-112202380D01*
X92071428Y-112202380D01*
X90928571Y-112107142D02*
X90880952Y-112154761D01*
X90928571Y-112202380D01*
X90976190Y-112154761D01*
X90928571Y-112107142D01*
X90928571Y-112202380D01*
X91119047Y-111250000D02*
X91023809Y-111202380D01*
X90785714Y-111202380D01*
X90690476Y-111250000D01*
X90642857Y-111345238D01*
X90642857Y-111440476D01*
X90690476Y-111535714D01*
X90738095Y-111583333D01*
X90833333Y-111630952D01*
X90880952Y-111678571D01*
X90928571Y-111773809D01*
X90928571Y-111821428D01*
X89690476Y-112202380D02*
X90261904Y-112202380D01*
X89976190Y-112202380D02*
X89976190Y-111202380D01*
X90071428Y-111345238D01*
X90166666Y-111440476D01*
X90261904Y-111488095D01*
X92642857Y-104022380D02*
X92976190Y-103546190D01*
X93214285Y-104022380D02*
X93214285Y-103022380D01*
X92833333Y-103022380D01*
X92738095Y-103070000D01*
X92690476Y-103117619D01*
X92642857Y-103212857D01*
X92642857Y-103355714D01*
X92690476Y-103450952D01*
X92738095Y-103498571D01*
X92833333Y-103546190D01*
X93214285Y-103546190D01*
X91690476Y-104022380D02*
X92261904Y-104022380D01*
X91976190Y-104022380D02*
X91976190Y-103022380D01*
X92071428Y-103165238D01*
X92166666Y-103260476D01*
X92261904Y-103308095D01*
X90785714Y-103022380D02*
X91261904Y-103022380D01*
X91309523Y-103498571D01*
X91261904Y-103450952D01*
X91166666Y-103403333D01*
X90928571Y-103403333D01*
X90833333Y-103450952D01*
X90785714Y-103498571D01*
X90738095Y-103593809D01*
X90738095Y-103831904D01*
X90785714Y-103927142D01*
X90833333Y-103974761D01*
X90928571Y-104022380D01*
X91166666Y-104022380D01*
X91261904Y-103974761D01*
X91309523Y-103927142D01*
X104522380Y-89357142D02*
X104046190Y-89023809D01*
X104522380Y-88785714D02*
X103522380Y-88785714D01*
X103522380Y-89166666D01*
X103570000Y-89261904D01*
X103617619Y-89309523D01*
X103712857Y-89357142D01*
X103855714Y-89357142D01*
X103950952Y-89309523D01*
X103998571Y-89261904D01*
X104046190Y-89166666D01*
X104046190Y-88785714D01*
X104522380Y-90309523D02*
X104522380Y-89738095D01*
X104522380Y-90023809D02*
X103522380Y-90023809D01*
X103665238Y-89928571D01*
X103760476Y-89833333D01*
X103808095Y-89738095D01*
X103522380Y-90642857D02*
X103522380Y-91309523D01*
X104522380Y-90880952D01*
X101522380Y-89357142D02*
X101046190Y-89023809D01*
X101522380Y-88785714D02*
X100522380Y-88785714D01*
X100522380Y-89166666D01*
X100570000Y-89261904D01*
X100617619Y-89309523D01*
X100712857Y-89357142D01*
X100855714Y-89357142D01*
X100950952Y-89309523D01*
X100998571Y-89261904D01*
X101046190Y-89166666D01*
X101046190Y-88785714D01*
X101522380Y-90309523D02*
X101522380Y-89738095D01*
X101522380Y-90023809D02*
X100522380Y-90023809D01*
X100665238Y-89928571D01*
X100760476Y-89833333D01*
X100808095Y-89738095D01*
X100522380Y-91166666D02*
X100522380Y-90976190D01*
X100570000Y-90880952D01*
X100617619Y-90833333D01*
X100760476Y-90738095D01*
X100950952Y-90690476D01*
X101331904Y-90690476D01*
X101427142Y-90738095D01*
X101474761Y-90785714D01*
X101522380Y-90880952D01*
X101522380Y-91071428D01*
X101474761Y-91166666D01*
X101427142Y-91214285D01*
X101331904Y-91261904D01*
X101093809Y-91261904D01*
X100998571Y-91214285D01*
X100950952Y-91166666D01*
X100903333Y-91071428D01*
X100903333Y-90880952D01*
X100950952Y-90785714D01*
X100998571Y-90738095D01*
X101093809Y-90690476D01*
X96642857Y-91022380D02*
X96976190Y-90546190D01*
X97214285Y-91022380D02*
X97214285Y-90022380D01*
X96833333Y-90022380D01*
X96738095Y-90070000D01*
X96690476Y-90117619D01*
X96642857Y-90212857D01*
X96642857Y-90355714D01*
X96690476Y-90450952D01*
X96738095Y-90498571D01*
X96833333Y-90546190D01*
X97214285Y-90546190D01*
X95690476Y-91022380D02*
X96261904Y-91022380D01*
X95976190Y-91022380D02*
X95976190Y-90022380D01*
X96071428Y-90165238D01*
X96166666Y-90260476D01*
X96261904Y-90308095D01*
X94833333Y-90355714D02*
X94833333Y-91022380D01*
X95071428Y-89974761D02*
X95309523Y-90689047D01*
X94690476Y-90689047D01*
X98522380Y-89357142D02*
X98046190Y-89023809D01*
X98522380Y-88785714D02*
X97522380Y-88785714D01*
X97522380Y-89166666D01*
X97570000Y-89261904D01*
X97617619Y-89309523D01*
X97712857Y-89357142D01*
X97855714Y-89357142D01*
X97950952Y-89309523D01*
X97998571Y-89261904D01*
X98046190Y-89166666D01*
X98046190Y-88785714D01*
X98522380Y-90309523D02*
X98522380Y-89738095D01*
X98522380Y-90023809D02*
X97522380Y-90023809D01*
X97665238Y-89928571D01*
X97760476Y-89833333D01*
X97808095Y-89738095D01*
X97617619Y-90690476D02*
X97570000Y-90738095D01*
X97522380Y-90833333D01*
X97522380Y-91071428D01*
X97570000Y-91166666D01*
X97617619Y-91214285D01*
X97712857Y-91261904D01*
X97808095Y-91261904D01*
X97950952Y-91214285D01*
X98522380Y-90642857D01*
X98522380Y-91261904D01*
X107642857Y-97022380D02*
X107976190Y-96546190D01*
X108214285Y-97022380D02*
X108214285Y-96022380D01*
X107833333Y-96022380D01*
X107738095Y-96070000D01*
X107690476Y-96117619D01*
X107642857Y-96212857D01*
X107642857Y-96355714D01*
X107690476Y-96450952D01*
X107738095Y-96498571D01*
X107833333Y-96546190D01*
X108214285Y-96546190D01*
X106690476Y-97022380D02*
X107261904Y-97022380D01*
X106976190Y-97022380D02*
X106976190Y-96022380D01*
X107071428Y-96165238D01*
X107166666Y-96260476D01*
X107261904Y-96308095D01*
X105738095Y-97022380D02*
X106309523Y-97022380D01*
X106023809Y-97022380D02*
X106023809Y-96022380D01*
X106119047Y-96165238D01*
X106214285Y-96260476D01*
X106309523Y-96308095D01*
X114882380Y-93620833D02*
X114406190Y-93287500D01*
X114882380Y-93049404D02*
X113882380Y-93049404D01*
X113882380Y-93430357D01*
X113930000Y-93525595D01*
X113977619Y-93573214D01*
X114072857Y-93620833D01*
X114215714Y-93620833D01*
X114310952Y-93573214D01*
X114358571Y-93525595D01*
X114406190Y-93430357D01*
X114406190Y-93049404D01*
X114882380Y-94097023D02*
X114882380Y-94287500D01*
X114834761Y-94382738D01*
X114787142Y-94430357D01*
X114644285Y-94525595D01*
X114453809Y-94573214D01*
X114072857Y-94573214D01*
X113977619Y-94525595D01*
X113930000Y-94477976D01*
X113882380Y-94382738D01*
X113882380Y-94192261D01*
X113930000Y-94097023D01*
X113977619Y-94049404D01*
X114072857Y-94001785D01*
X114310952Y-94001785D01*
X114406190Y-94049404D01*
X114453809Y-94097023D01*
X114501428Y-94192261D01*
X114501428Y-94382738D01*
X114453809Y-94477976D01*
X114406190Y-94525595D01*
X114310952Y-94573214D01*
X108882380Y-93620833D02*
X108406190Y-93287500D01*
X108882380Y-93049404D02*
X107882380Y-93049404D01*
X107882380Y-93430357D01*
X107930000Y-93525595D01*
X107977619Y-93573214D01*
X108072857Y-93620833D01*
X108215714Y-93620833D01*
X108310952Y-93573214D01*
X108358571Y-93525595D01*
X108406190Y-93430357D01*
X108406190Y-93049404D01*
X108310952Y-94192261D02*
X108263333Y-94097023D01*
X108215714Y-94049404D01*
X108120476Y-94001785D01*
X108072857Y-94001785D01*
X107977619Y-94049404D01*
X107930000Y-94097023D01*
X107882380Y-94192261D01*
X107882380Y-94382738D01*
X107930000Y-94477976D01*
X107977619Y-94525595D01*
X108072857Y-94573214D01*
X108120476Y-94573214D01*
X108215714Y-94525595D01*
X108263333Y-94477976D01*
X108310952Y-94382738D01*
X108310952Y-94192261D01*
X108358571Y-94097023D01*
X108406190Y-94049404D01*
X108501428Y-94001785D01*
X108691904Y-94001785D01*
X108787142Y-94049404D01*
X108834761Y-94097023D01*
X108882380Y-94192261D01*
X108882380Y-94382738D01*
X108834761Y-94477976D01*
X108787142Y-94525595D01*
X108691904Y-94573214D01*
X108501428Y-94573214D01*
X108406190Y-94525595D01*
X108358571Y-94477976D01*
X108310952Y-94382738D01*
X96882380Y-94833333D02*
X96406190Y-94500000D01*
X96882380Y-94261904D02*
X95882380Y-94261904D01*
X95882380Y-94642857D01*
X95930000Y-94738095D01*
X95977619Y-94785714D01*
X96072857Y-94833333D01*
X96215714Y-94833333D01*
X96310952Y-94785714D01*
X96358571Y-94738095D01*
X96406190Y-94642857D01*
X96406190Y-94261904D01*
X95882380Y-95166666D02*
X95882380Y-95833333D01*
X96882380Y-95404761D01*
X83452380Y-100833333D02*
X82976190Y-100500000D01*
X83452380Y-100261904D02*
X82452380Y-100261904D01*
X82452380Y-100642857D01*
X82500000Y-100738095D01*
X82547619Y-100785714D01*
X82642857Y-100833333D01*
X82785714Y-100833333D01*
X82880952Y-100785714D01*
X82928571Y-100738095D01*
X82976190Y-100642857D01*
X82976190Y-100261904D01*
X82452380Y-101690476D02*
X82452380Y-101500000D01*
X82500000Y-101404761D01*
X82547619Y-101357142D01*
X82690476Y-101261904D01*
X82880952Y-101214285D01*
X83261904Y-101214285D01*
X83357142Y-101261904D01*
X83404761Y-101309523D01*
X83452380Y-101404761D01*
X83452380Y-101595238D01*
X83404761Y-101690476D01*
X83357142Y-101738095D01*
X83261904Y-101785714D01*
X83023809Y-101785714D01*
X82928571Y-101738095D01*
X82880952Y-101690476D01*
X82833333Y-101595238D01*
X82833333Y-101404761D01*
X82880952Y-101309523D01*
X82928571Y-101261904D01*
X83023809Y-101214285D01*
X85022380Y-95333333D02*
X84546190Y-95000000D01*
X85022380Y-94761904D02*
X84022380Y-94761904D01*
X84022380Y-95142857D01*
X84070000Y-95238095D01*
X84117619Y-95285714D01*
X84212857Y-95333333D01*
X84355714Y-95333333D01*
X84450952Y-95285714D01*
X84498571Y-95238095D01*
X84546190Y-95142857D01*
X84546190Y-94761904D01*
X84022380Y-96238095D02*
X84022380Y-95761904D01*
X84498571Y-95714285D01*
X84450952Y-95761904D01*
X84403333Y-95857142D01*
X84403333Y-96095238D01*
X84450952Y-96190476D01*
X84498571Y-96238095D01*
X84593809Y-96285714D01*
X84831904Y-96285714D01*
X84927142Y-96238095D01*
X84974761Y-96190476D01*
X85022380Y-96095238D01*
X85022380Y-95857142D01*
X84974761Y-95761904D01*
X84927142Y-95714285D01*
X85022380Y-90833333D02*
X84546190Y-90500000D01*
X85022380Y-90261904D02*
X84022380Y-90261904D01*
X84022380Y-90642857D01*
X84070000Y-90738095D01*
X84117619Y-90785714D01*
X84212857Y-90833333D01*
X84355714Y-90833333D01*
X84450952Y-90785714D01*
X84498571Y-90738095D01*
X84546190Y-90642857D01*
X84546190Y-90261904D01*
X84355714Y-91690476D02*
X85022380Y-91690476D01*
X83974761Y-91452380D02*
X84689047Y-91214285D01*
X84689047Y-91833333D01*
X87952380Y-95333333D02*
X87476190Y-95000000D01*
X87952380Y-94761904D02*
X86952380Y-94761904D01*
X86952380Y-95142857D01*
X87000000Y-95238095D01*
X87047619Y-95285714D01*
X87142857Y-95333333D01*
X87285714Y-95333333D01*
X87380952Y-95285714D01*
X87428571Y-95238095D01*
X87476190Y-95142857D01*
X87476190Y-94761904D01*
X86952380Y-95666666D02*
X86952380Y-96285714D01*
X87333333Y-95952380D01*
X87333333Y-96095238D01*
X87380952Y-96190476D01*
X87428571Y-96238095D01*
X87523809Y-96285714D01*
X87761904Y-96285714D01*
X87857142Y-96238095D01*
X87904761Y-96190476D01*
X87952380Y-96095238D01*
X87952380Y-95809523D01*
X87904761Y-95714285D01*
X87857142Y-95666666D01*
X88022380Y-90833333D02*
X87546190Y-90500000D01*
X88022380Y-90261904D02*
X87022380Y-90261904D01*
X87022380Y-90642857D01*
X87070000Y-90738095D01*
X87117619Y-90785714D01*
X87212857Y-90833333D01*
X87355714Y-90833333D01*
X87450952Y-90785714D01*
X87498571Y-90738095D01*
X87546190Y-90642857D01*
X87546190Y-90261904D01*
X87117619Y-91214285D02*
X87070000Y-91261904D01*
X87022380Y-91357142D01*
X87022380Y-91595238D01*
X87070000Y-91690476D01*
X87117619Y-91738095D01*
X87212857Y-91785714D01*
X87308095Y-91785714D01*
X87450952Y-91738095D01*
X88022380Y-91166666D01*
X88022380Y-91785714D01*
X86522380Y-100833333D02*
X86046190Y-100500000D01*
X86522380Y-100261904D02*
X85522380Y-100261904D01*
X85522380Y-100642857D01*
X85570000Y-100738095D01*
X85617619Y-100785714D01*
X85712857Y-100833333D01*
X85855714Y-100833333D01*
X85950952Y-100785714D01*
X85998571Y-100738095D01*
X86046190Y-100642857D01*
X86046190Y-100261904D01*
X86522380Y-101785714D02*
X86522380Y-101214285D01*
X86522380Y-101500000D02*
X85522380Y-101500000D01*
X85665238Y-101404761D01*
X85760476Y-101309523D01*
X85808095Y-101214285D01*
X114787142Y-108357142D02*
X114834761Y-108309523D01*
X114882380Y-108166666D01*
X114882380Y-108071428D01*
X114834761Y-107928571D01*
X114739523Y-107833333D01*
X114644285Y-107785714D01*
X114453809Y-107738095D01*
X114310952Y-107738095D01*
X114120476Y-107785714D01*
X114025238Y-107833333D01*
X113930000Y-107928571D01*
X113882380Y-108071428D01*
X113882380Y-108166666D01*
X113930000Y-108309523D01*
X113977619Y-108357142D01*
X114882380Y-109309523D02*
X114882380Y-108738095D01*
X114882380Y-109023809D02*
X113882380Y-109023809D01*
X114025238Y-108928571D01*
X114120476Y-108833333D01*
X114168095Y-108738095D01*
X114215714Y-110166666D02*
X114882380Y-110166666D01*
X113834761Y-109928571D02*
X114549047Y-109690476D01*
X114549047Y-110309523D01*
X91642857Y-88857142D02*
X91690476Y-88904761D01*
X91833333Y-88952380D01*
X91928571Y-88952380D01*
X92071428Y-88904761D01*
X92166666Y-88809523D01*
X92214285Y-88714285D01*
X92261904Y-88523809D01*
X92261904Y-88380952D01*
X92214285Y-88190476D01*
X92166666Y-88095238D01*
X92071428Y-88000000D01*
X91928571Y-87952380D01*
X91833333Y-87952380D01*
X91690476Y-88000000D01*
X91642857Y-88047619D01*
X90690476Y-88952380D02*
X91261904Y-88952380D01*
X90976190Y-88952380D02*
X90976190Y-87952380D01*
X91071428Y-88095238D01*
X91166666Y-88190476D01*
X91261904Y-88238095D01*
X90357142Y-87952380D02*
X89738095Y-87952380D01*
X90071428Y-88333333D01*
X89928571Y-88333333D01*
X89833333Y-88380952D01*
X89785714Y-88428571D01*
X89738095Y-88523809D01*
X89738095Y-88761904D01*
X89785714Y-88857142D01*
X89833333Y-88904761D01*
X89928571Y-88952380D01*
X90214285Y-88952380D01*
X90309523Y-88904761D01*
X90357142Y-88857142D01*
X97287142Y-83857142D02*
X97334761Y-83809523D01*
X97382380Y-83666666D01*
X97382380Y-83571428D01*
X97334761Y-83428571D01*
X97239523Y-83333333D01*
X97144285Y-83285714D01*
X96953809Y-83238095D01*
X96810952Y-83238095D01*
X96620476Y-83285714D01*
X96525238Y-83333333D01*
X96430000Y-83428571D01*
X96382380Y-83571428D01*
X96382380Y-83666666D01*
X96430000Y-83809523D01*
X96477619Y-83857142D01*
X97382380Y-84809523D02*
X97382380Y-84238095D01*
X97382380Y-84523809D02*
X96382380Y-84523809D01*
X96525238Y-84428571D01*
X96620476Y-84333333D01*
X96668095Y-84238095D01*
X96477619Y-85190476D02*
X96430000Y-85238095D01*
X96382380Y-85333333D01*
X96382380Y-85571428D01*
X96430000Y-85666666D01*
X96477619Y-85714285D01*
X96572857Y-85761904D01*
X96668095Y-85761904D01*
X96810952Y-85714285D01*
X97382380Y-85142857D01*
X97382380Y-85761904D01*
X105357142Y-108357142D02*
X105404761Y-108309523D01*
X105452380Y-108166666D01*
X105452380Y-108071428D01*
X105404761Y-107928571D01*
X105309523Y-107833333D01*
X105214285Y-107785714D01*
X105023809Y-107738095D01*
X104880952Y-107738095D01*
X104690476Y-107785714D01*
X104595238Y-107833333D01*
X104500000Y-107928571D01*
X104452380Y-108071428D01*
X104452380Y-108166666D01*
X104500000Y-108309523D01*
X104547619Y-108357142D01*
X105452380Y-109309523D02*
X105452380Y-108738095D01*
X105452380Y-109023809D02*
X104452380Y-109023809D01*
X104595238Y-108928571D01*
X104690476Y-108833333D01*
X104738095Y-108738095D01*
X105452380Y-110261904D02*
X105452380Y-109690476D01*
X105452380Y-109976190D02*
X104452380Y-109976190D01*
X104595238Y-109880952D01*
X104690476Y-109785714D01*
X104738095Y-109690476D01*
X94857142Y-114357142D02*
X94904761Y-114309523D01*
X94952380Y-114166666D01*
X94952380Y-114071428D01*
X94904761Y-113928571D01*
X94809523Y-113833333D01*
X94714285Y-113785714D01*
X94523809Y-113738095D01*
X94380952Y-113738095D01*
X94190476Y-113785714D01*
X94095238Y-113833333D01*
X94000000Y-113928571D01*
X93952380Y-114071428D01*
X93952380Y-114166666D01*
X94000000Y-114309523D01*
X94047619Y-114357142D01*
X94952380Y-115309523D02*
X94952380Y-114738095D01*
X94952380Y-115023809D02*
X93952380Y-115023809D01*
X94095238Y-114928571D01*
X94190476Y-114833333D01*
X94238095Y-114738095D01*
X93952380Y-115928571D02*
X93952380Y-116023809D01*
X94000000Y-116119047D01*
X94047619Y-116166666D01*
X94142857Y-116214285D01*
X94333333Y-116261904D01*
X94571428Y-116261904D01*
X94761904Y-116214285D01*
X94857142Y-116166666D01*
X94904761Y-116119047D01*
X94952380Y-116023809D01*
X94952380Y-115928571D01*
X94904761Y-115833333D01*
X94857142Y-115785714D01*
X94761904Y-115738095D01*
X94571428Y-115690476D01*
X94333333Y-115690476D01*
X94142857Y-115738095D01*
X94047619Y-115785714D01*
X94000000Y-115833333D01*
X93952380Y-115928571D01*
X102927142Y-99333333D02*
X102974761Y-99285714D01*
X103022380Y-99142857D01*
X103022380Y-99047619D01*
X102974761Y-98904761D01*
X102879523Y-98809523D01*
X102784285Y-98761904D01*
X102593809Y-98714285D01*
X102450952Y-98714285D01*
X102260476Y-98761904D01*
X102165238Y-98809523D01*
X102070000Y-98904761D01*
X102022380Y-99047619D01*
X102022380Y-99142857D01*
X102070000Y-99285714D01*
X102117619Y-99333333D01*
X103022380Y-99809523D02*
X103022380Y-100000000D01*
X102974761Y-100095238D01*
X102927142Y-100142857D01*
X102784285Y-100238095D01*
X102593809Y-100285714D01*
X102212857Y-100285714D01*
X102117619Y-100238095D01*
X102070000Y-100190476D01*
X102022380Y-100095238D01*
X102022380Y-99904761D01*
X102070000Y-99809523D01*
X102117619Y-99761904D01*
X102212857Y-99714285D01*
X102450952Y-99714285D01*
X102546190Y-99761904D01*
X102593809Y-99809523D01*
X102641428Y-99904761D01*
X102641428Y-100095238D01*
X102593809Y-100190476D01*
X102546190Y-100238095D01*
X102450952Y-100285714D01*
X99927142Y-99333333D02*
X99974761Y-99285714D01*
X100022380Y-99142857D01*
X100022380Y-99047619D01*
X99974761Y-98904761D01*
X99879523Y-98809523D01*
X99784285Y-98761904D01*
X99593809Y-98714285D01*
X99450952Y-98714285D01*
X99260476Y-98761904D01*
X99165238Y-98809523D01*
X99070000Y-98904761D01*
X99022380Y-99047619D01*
X99022380Y-99142857D01*
X99070000Y-99285714D01*
X99117619Y-99333333D01*
X99450952Y-99904761D02*
X99403333Y-99809523D01*
X99355714Y-99761904D01*
X99260476Y-99714285D01*
X99212857Y-99714285D01*
X99117619Y-99761904D01*
X99070000Y-99809523D01*
X99022380Y-99904761D01*
X99022380Y-100095238D01*
X99070000Y-100190476D01*
X99117619Y-100238095D01*
X99212857Y-100285714D01*
X99260476Y-100285714D01*
X99355714Y-100238095D01*
X99403333Y-100190476D01*
X99450952Y-100095238D01*
X99450952Y-99904761D01*
X99498571Y-99809523D01*
X99546190Y-99761904D01*
X99641428Y-99714285D01*
X99831904Y-99714285D01*
X99927142Y-99761904D01*
X99974761Y-99809523D01*
X100022380Y-99904761D01*
X100022380Y-100095238D01*
X99974761Y-100190476D01*
X99927142Y-100238095D01*
X99831904Y-100285714D01*
X99641428Y-100285714D01*
X99546190Y-100238095D01*
X99498571Y-100190476D01*
X99450952Y-100095238D01*
X96927142Y-99333333D02*
X96974761Y-99285714D01*
X97022380Y-99142857D01*
X97022380Y-99047619D01*
X96974761Y-98904761D01*
X96879523Y-98809523D01*
X96784285Y-98761904D01*
X96593809Y-98714285D01*
X96450952Y-98714285D01*
X96260476Y-98761904D01*
X96165238Y-98809523D01*
X96070000Y-98904761D01*
X96022380Y-99047619D01*
X96022380Y-99142857D01*
X96070000Y-99285714D01*
X96117619Y-99333333D01*
X96022380Y-99666666D02*
X96022380Y-100333333D01*
X97022380Y-99904761D01*
X111787142Y-93620833D02*
X111834761Y-93573214D01*
X111882380Y-93430357D01*
X111882380Y-93335119D01*
X111834761Y-93192261D01*
X111739523Y-93097023D01*
X111644285Y-93049404D01*
X111453809Y-93001785D01*
X111310952Y-93001785D01*
X111120476Y-93049404D01*
X111025238Y-93097023D01*
X110930000Y-93192261D01*
X110882380Y-93335119D01*
X110882380Y-93430357D01*
X110930000Y-93573214D01*
X110977619Y-93620833D01*
X110882380Y-94477976D02*
X110882380Y-94287500D01*
X110930000Y-94192261D01*
X110977619Y-94144642D01*
X111120476Y-94049404D01*
X111310952Y-94001785D01*
X111691904Y-94001785D01*
X111787142Y-94049404D01*
X111834761Y-94097023D01*
X111882380Y-94192261D01*
X111882380Y-94382738D01*
X111834761Y-94477976D01*
X111787142Y-94525595D01*
X111691904Y-94573214D01*
X111453809Y-94573214D01*
X111358571Y-94525595D01*
X111310952Y-94477976D01*
X111263333Y-94382738D01*
X111263333Y-94192261D01*
X111310952Y-94097023D01*
X111358571Y-94049404D01*
X111453809Y-94001785D01*
X105787142Y-94833333D02*
X105834761Y-94785714D01*
X105882380Y-94642857D01*
X105882380Y-94547619D01*
X105834761Y-94404761D01*
X105739523Y-94309523D01*
X105644285Y-94261904D01*
X105453809Y-94214285D01*
X105310952Y-94214285D01*
X105120476Y-94261904D01*
X105025238Y-94309523D01*
X104930000Y-94404761D01*
X104882380Y-94547619D01*
X104882380Y-94642857D01*
X104930000Y-94785714D01*
X104977619Y-94833333D01*
X104882380Y-95738095D02*
X104882380Y-95261904D01*
X105358571Y-95214285D01*
X105310952Y-95261904D01*
X105263333Y-95357142D01*
X105263333Y-95595238D01*
X105310952Y-95690476D01*
X105358571Y-95738095D01*
X105453809Y-95785714D01*
X105691904Y-95785714D01*
X105787142Y-95738095D01*
X105834761Y-95690476D01*
X105882380Y-95595238D01*
X105882380Y-95357142D01*
X105834761Y-95261904D01*
X105787142Y-95214285D01*
X102787142Y-94833333D02*
X102834761Y-94785714D01*
X102882380Y-94642857D01*
X102882380Y-94547619D01*
X102834761Y-94404761D01*
X102739523Y-94309523D01*
X102644285Y-94261904D01*
X102453809Y-94214285D01*
X102310952Y-94214285D01*
X102120476Y-94261904D01*
X102025238Y-94309523D01*
X101930000Y-94404761D01*
X101882380Y-94547619D01*
X101882380Y-94642857D01*
X101930000Y-94785714D01*
X101977619Y-94833333D01*
X102215714Y-95690476D02*
X102882380Y-95690476D01*
X101834761Y-95452380D02*
X102549047Y-95214285D01*
X102549047Y-95833333D01*
X99787142Y-94833333D02*
X99834761Y-94785714D01*
X99882380Y-94642857D01*
X99882380Y-94547619D01*
X99834761Y-94404761D01*
X99739523Y-94309523D01*
X99644285Y-94261904D01*
X99453809Y-94214285D01*
X99310952Y-94214285D01*
X99120476Y-94261904D01*
X99025238Y-94309523D01*
X98930000Y-94404761D01*
X98882380Y-94547619D01*
X98882380Y-94642857D01*
X98930000Y-94785714D01*
X98977619Y-94833333D01*
X98882380Y-95166666D02*
X98882380Y-95785714D01*
X99263333Y-95452380D01*
X99263333Y-95595238D01*
X99310952Y-95690476D01*
X99358571Y-95738095D01*
X99453809Y-95785714D01*
X99691904Y-95785714D01*
X99787142Y-95738095D01*
X99834761Y-95690476D01*
X99882380Y-95595238D01*
X99882380Y-95309523D01*
X99834761Y-95214285D01*
X99787142Y-95166666D01*
X89427142Y-100833333D02*
X89474761Y-100785714D01*
X89522380Y-100642857D01*
X89522380Y-100547619D01*
X89474761Y-100404761D01*
X89379523Y-100309523D01*
X89284285Y-100261904D01*
X89093809Y-100214285D01*
X88950952Y-100214285D01*
X88760476Y-100261904D01*
X88665238Y-100309523D01*
X88570000Y-100404761D01*
X88522380Y-100547619D01*
X88522380Y-100642857D01*
X88570000Y-100785714D01*
X88617619Y-100833333D01*
X88617619Y-101214285D02*
X88570000Y-101261904D01*
X88522380Y-101357142D01*
X88522380Y-101595238D01*
X88570000Y-101690476D01*
X88617619Y-101738095D01*
X88712857Y-101785714D01*
X88808095Y-101785714D01*
X88950952Y-101738095D01*
X89522380Y-101166666D01*
X89522380Y-101785714D01*
X92427142Y-100833333D02*
X92474761Y-100785714D01*
X92522380Y-100642857D01*
X92522380Y-100547619D01*
X92474761Y-100404761D01*
X92379523Y-100309523D01*
X92284285Y-100261904D01*
X92093809Y-100214285D01*
X91950952Y-100214285D01*
X91760476Y-100261904D01*
X91665238Y-100309523D01*
X91570000Y-100404761D01*
X91522380Y-100547619D01*
X91522380Y-100642857D01*
X91570000Y-100785714D01*
X91617619Y-100833333D01*
X92522380Y-101785714D02*
X92522380Y-101214285D01*
X92522380Y-101500000D02*
X91522380Y-101500000D01*
X91665238Y-101404761D01*
X91760476Y-101309523D01*
X91808095Y-101214285D01*
X110131904Y-111502380D02*
X110131904Y-112311904D01*
X110084285Y-112407142D01*
X110036666Y-112454761D01*
X109941428Y-112502380D01*
X109750952Y-112502380D01*
X109655714Y-112454761D01*
X109608095Y-112407142D01*
X109560476Y-112311904D01*
X109560476Y-111502380D01*
X109131904Y-111597619D02*
X109084285Y-111550000D01*
X108989047Y-111502380D01*
X108750952Y-111502380D01*
X108655714Y-111550000D01*
X108608095Y-111597619D01*
X108560476Y-111692857D01*
X108560476Y-111788095D01*
X108608095Y-111930952D01*
X109179523Y-112502380D01*
X108560476Y-112502380D01*
X112547619Y-89904761D02*
X112500000Y-89809523D01*
X112404761Y-89714285D01*
X112261904Y-89571428D01*
X112214285Y-89476190D01*
X112214285Y-89380952D01*
X112452380Y-89428571D02*
X112404761Y-89333333D01*
X112309523Y-89238095D01*
X112119047Y-89190476D01*
X111785714Y-89190476D01*
X111595238Y-89238095D01*
X111500000Y-89333333D01*
X111452380Y-89428571D01*
X111452380Y-89619047D01*
X111500000Y-89714285D01*
X111595238Y-89809523D01*
X111785714Y-89857142D01*
X112119047Y-89857142D01*
X112309523Y-89809523D01*
X112404761Y-89714285D01*
X112452380Y-89619047D01*
X112452380Y-89428571D01*
X111452380Y-90190476D02*
X111452380Y-90809523D01*
X111833333Y-90476190D01*
X111833333Y-90619047D01*
X111880952Y-90714285D01*
X111928571Y-90761904D01*
X112023809Y-90809523D01*
X112261904Y-90809523D01*
X112357142Y-90761904D01*
X112404761Y-90714285D01*
X112452380Y-90619047D01*
X112452380Y-90333333D01*
X112404761Y-90238095D01*
X112357142Y-90190476D01*
X111547619Y-85904761D02*
X111500000Y-85809523D01*
X111404761Y-85714285D01*
X111261904Y-85571428D01*
X111214285Y-85476190D01*
X111214285Y-85380952D01*
X111452380Y-85428571D02*
X111404761Y-85333333D01*
X111309523Y-85238095D01*
X111119047Y-85190476D01*
X110785714Y-85190476D01*
X110595238Y-85238095D01*
X110500000Y-85333333D01*
X110452380Y-85428571D01*
X110452380Y-85619047D01*
X110500000Y-85714285D01*
X110595238Y-85809523D01*
X110785714Y-85857142D01*
X111119047Y-85857142D01*
X111309523Y-85809523D01*
X111404761Y-85714285D01*
X111452380Y-85619047D01*
X111452380Y-85428571D01*
X110547619Y-86238095D02*
X110500000Y-86285714D01*
X110452380Y-86380952D01*
X110452380Y-86619047D01*
X110500000Y-86714285D01*
X110547619Y-86761904D01*
X110642857Y-86809523D01*
X110738095Y-86809523D01*
X110880952Y-86761904D01*
X111452380Y-86190476D01*
X111452380Y-86809523D01*
X92702380Y-87093096D02*
X93511904Y-87093096D01*
X93607142Y-87140715D01*
X93654761Y-87188334D01*
X93702380Y-87283572D01*
X93702380Y-87474048D01*
X93654761Y-87569286D01*
X93607142Y-87616905D01*
X93511904Y-87664524D01*
X92702380Y-87664524D01*
X92702380Y-88045477D02*
X92702380Y-88664524D01*
X93083333Y-88331191D01*
X93083333Y-88474048D01*
X93130952Y-88569286D01*
X93178571Y-88616905D01*
X93273809Y-88664524D01*
X93511904Y-88664524D01*
X93607142Y-88616905D01*
X93654761Y-88569286D01*
X93702380Y-88474048D01*
X93702380Y-88188334D01*
X93654761Y-88093096D01*
X93607142Y-88045477D01*
X117958333Y-95404761D02*
X117815476Y-95452380D01*
X117577380Y-95452380D01*
X117482142Y-95404761D01*
X117434523Y-95357142D01*
X117386904Y-95261904D01*
X117386904Y-95166666D01*
X117434523Y-95071428D01*
X117482142Y-95023809D01*
X117577380Y-94976190D01*
X117767857Y-94928571D01*
X117863095Y-94880952D01*
X117910714Y-94833333D01*
X117958333Y-94738095D01*
X117958333Y-94642857D01*
X117910714Y-94547619D01*
X117863095Y-94500000D01*
X117767857Y-94452380D01*
X117529761Y-94452380D01*
X117386904Y-94500000D01*
X117053571Y-94452380D02*
X116815476Y-95452380D01*
X116625000Y-94738095D01*
X116434523Y-95452380D01*
X116196428Y-94452380D01*
X115291666Y-95452380D02*
X115863095Y-95452380D01*
X115577380Y-95452380D02*
X115577380Y-94452380D01*
X115672619Y-94595238D01*
X115767857Y-94690476D01*
X115863095Y-94738095D01*
X102714285Y-118202380D02*
X102714285Y-117202380D01*
X102380952Y-117916666D01*
X102047619Y-117202380D01*
X102047619Y-118202380D01*
X101571428Y-117202380D02*
X101571428Y-118011904D01*
X101523809Y-118107142D01*
X101476190Y-118154761D01*
X101380952Y-118202380D01*
X101190476Y-118202380D01*
X101095238Y-118154761D01*
X101047619Y-118107142D01*
X101000000Y-118011904D01*
X101000000Y-117202380D01*
X100619047Y-117202380D02*
X99952380Y-118202380D01*
X99952380Y-117202380D02*
X100619047Y-118202380D01*
X99809523Y-118297619D02*
X99047619Y-118297619D01*
X98809523Y-118202380D02*
X98809523Y-117202380D01*
X98809523Y-117678571D02*
X98238095Y-117678571D01*
X98238095Y-118202380D02*
X98238095Y-117202380D01*
X97238095Y-118202380D02*
X97809523Y-118202380D01*
X97523809Y-118202380D02*
X97523809Y-117202380D01*
X97619047Y-117345238D01*
X97714285Y-117440476D01*
X97809523Y-117488095D01*
X93976190Y-92523809D02*
X94452380Y-92523809D01*
X93452380Y-92190476D02*
X93976190Y-92523809D01*
X93452380Y-92857142D01*
X94452380Y-93714285D02*
X94452380Y-93142857D01*
X94452380Y-93428571D02*
X93452380Y-93428571D01*
X93595238Y-93333333D01*
X93690476Y-93238095D01*
X93738095Y-93142857D01*
X103023809Y-87952380D02*
X103023809Y-86952380D01*
X102785714Y-86952380D01*
X102642857Y-87000000D01*
X102547619Y-87095238D01*
X102500000Y-87190476D01*
X102452380Y-87380952D01*
X102452380Y-87523809D01*
X102500000Y-87714285D01*
X102547619Y-87809523D01*
X102642857Y-87904761D01*
X102785714Y-87952380D01*
X103023809Y-87952380D01*
X102023809Y-87952380D02*
X102023809Y-86952380D01*
X101357142Y-86952380D02*
X101166666Y-86952380D01*
X101071428Y-87000000D01*
X100976190Y-87095238D01*
X100928571Y-87285714D01*
X100928571Y-87619047D01*
X100976190Y-87809523D01*
X101071428Y-87904761D01*
X101166666Y-87952380D01*
X101357142Y-87952380D01*
X101452380Y-87904761D01*
X101547619Y-87809523D01*
X101595238Y-87619047D01*
X101595238Y-87285714D01*
X101547619Y-87095238D01*
X101452380Y-87000000D01*
X101357142Y-86952380D01*
X103238095Y-83452380D02*
X102619047Y-83452380D01*
X102952380Y-83833333D01*
X102809523Y-83833333D01*
X102714285Y-83880952D01*
X102666666Y-83928571D01*
X102619047Y-84023809D01*
X102619047Y-84261904D01*
X102666666Y-84357142D01*
X102714285Y-84404761D01*
X102809523Y-84452380D01*
X103095238Y-84452380D01*
X103190476Y-84404761D01*
X103238095Y-84357142D01*
X102333333Y-83452380D02*
X102000000Y-84452380D01*
X101666666Y-83452380D01*
X101428571Y-83452380D02*
X100809523Y-83452380D01*
X101142857Y-83833333D01*
X101000000Y-83833333D01*
X100904761Y-83880952D01*
X100857142Y-83928571D01*
X100809523Y-84023809D01*
X100809523Y-84261904D01*
X100857142Y-84357142D01*
X100904761Y-84404761D01*
X101000000Y-84452380D01*
X101285714Y-84452380D01*
X101380952Y-84404761D01*
X101428571Y-84357142D01*
X99761904Y-87000000D02*
X99857142Y-86952380D01*
X100000000Y-86952380D01*
X100142857Y-87000000D01*
X100238095Y-87095238D01*
X100285714Y-87190476D01*
X100333333Y-87380952D01*
X100333333Y-87523809D01*
X100285714Y-87714285D01*
X100238095Y-87809523D01*
X100142857Y-87904761D01*
X100000000Y-87952380D01*
X99904761Y-87952380D01*
X99761904Y-87904761D01*
X99714285Y-87857142D01*
X99714285Y-87523809D01*
X99904761Y-87523809D01*
X99285714Y-87952380D02*
X99285714Y-86952380D01*
X98714285Y-87952380D01*
X98714285Y-86952380D01*
X98238095Y-87952380D02*
X98238095Y-86952380D01*
X98000000Y-86952380D01*
X97857142Y-87000000D01*
X97761904Y-87095238D01*
X97714285Y-87190476D01*
X97666666Y-87380952D01*
X97666666Y-87523809D01*
X97714285Y-87714285D01*
X97761904Y-87809523D01*
X97857142Y-87904761D01*
X98000000Y-87952380D01*
X98238095Y-87952380D01*
X99595238Y-84357142D02*
X99642857Y-84404761D01*
X99785714Y-84452380D01*
X99880952Y-84452380D01*
X100023809Y-84404761D01*
X100119047Y-84309523D01*
X100166666Y-84214285D01*
X100214285Y-84023809D01*
X100214285Y-83880952D01*
X100166666Y-83690476D01*
X100119047Y-83595238D01*
X100023809Y-83500000D01*
X99880952Y-83452380D01*
X99785714Y-83452380D01*
X99642857Y-83500000D01*
X99595238Y-83547619D01*
X98690476Y-84452380D02*
X99166666Y-84452380D01*
X99166666Y-83452380D01*
X98357142Y-84452380D02*
X98357142Y-83452380D01*
X97785714Y-84452380D02*
X98214285Y-83880952D01*
X97785714Y-83452380D02*
X98357142Y-84023809D01*
M02*
