G04 #@! TF.GenerationSoftware,KiCad,Pcbnew,5.1.4*
G04 #@! TF.CreationDate,2019-11-28T00:41:57+01:00*
G04 #@! TF.ProjectId,SICKWATCH1,5349434b-5741-4544-9348-312e6b696361,rev?*
G04 #@! TF.SameCoordinates,Original*
G04 #@! TF.FileFunction,Copper,L3,Inr*
G04 #@! TF.FilePolarity,Positive*
%FSLAX46Y46*%
G04 Gerber Fmt 4.6, Leading zero omitted, Abs format (unit mm)*
G04 Created by KiCad (PCBNEW 5.1.4) date 2019-11-28 00:41:57*
%MOMM*%
%LPD*%
G04 APERTURE LIST*
%ADD10O,0.800000X1.300000*%
%ADD11C,0.100000*%
%ADD12C,0.800000*%
%ADD13C,1.000000*%
%ADD14C,0.500000*%
%ADD15C,0.254000*%
G04 APERTURE END LIST*
D10*
X112750000Y-105000000D03*
D11*
G36*
X111719603Y-104350963D02*
G01*
X111739018Y-104353843D01*
X111758057Y-104358612D01*
X111776537Y-104365224D01*
X111794279Y-104373616D01*
X111811114Y-104383706D01*
X111826879Y-104395398D01*
X111841421Y-104408579D01*
X111854602Y-104423121D01*
X111866294Y-104438886D01*
X111876384Y-104455721D01*
X111884776Y-104473463D01*
X111891388Y-104491943D01*
X111896157Y-104510982D01*
X111899037Y-104530397D01*
X111900000Y-104550000D01*
X111900000Y-105450000D01*
X111899037Y-105469603D01*
X111896157Y-105489018D01*
X111891388Y-105508057D01*
X111884776Y-105526537D01*
X111876384Y-105544279D01*
X111866294Y-105561114D01*
X111854602Y-105576879D01*
X111841421Y-105591421D01*
X111826879Y-105604602D01*
X111811114Y-105616294D01*
X111794279Y-105626384D01*
X111776537Y-105634776D01*
X111758057Y-105641388D01*
X111739018Y-105646157D01*
X111719603Y-105649037D01*
X111700000Y-105650000D01*
X111300000Y-105650000D01*
X111280397Y-105649037D01*
X111260982Y-105646157D01*
X111241943Y-105641388D01*
X111223463Y-105634776D01*
X111205721Y-105626384D01*
X111188886Y-105616294D01*
X111173121Y-105604602D01*
X111158579Y-105591421D01*
X111145398Y-105576879D01*
X111133706Y-105561114D01*
X111123616Y-105544279D01*
X111115224Y-105526537D01*
X111108612Y-105508057D01*
X111103843Y-105489018D01*
X111100963Y-105469603D01*
X111100000Y-105450000D01*
X111100000Y-104550000D01*
X111100963Y-104530397D01*
X111103843Y-104510982D01*
X111108612Y-104491943D01*
X111115224Y-104473463D01*
X111123616Y-104455721D01*
X111133706Y-104438886D01*
X111145398Y-104423121D01*
X111158579Y-104408579D01*
X111173121Y-104395398D01*
X111188886Y-104383706D01*
X111205721Y-104373616D01*
X111223463Y-104365224D01*
X111241943Y-104358612D01*
X111260982Y-104353843D01*
X111280397Y-104350963D01*
X111300000Y-104350000D01*
X111700000Y-104350000D01*
X111719603Y-104350963D01*
X111719603Y-104350963D01*
G37*
D12*
X111500000Y-105000000D03*
D13*
X91000000Y-98000000D03*
X92900000Y-98000000D03*
D12*
X100500000Y-103000000D03*
X86500000Y-101000000D03*
X102000000Y-114500000D03*
X114500000Y-97000000D03*
X97399997Y-85500000D03*
X103000000Y-84500000D03*
X83925000Y-98600000D03*
X83787500Y-104212500D03*
X111512660Y-92987340D03*
X98500000Y-113000000D03*
X83000000Y-98000000D03*
X98500000Y-87000000D03*
X83000000Y-105000000D03*
X93157277Y-89259818D03*
X110500014Y-86000000D03*
X96000000Y-103500000D03*
X96512660Y-110512660D03*
X110500000Y-105000000D03*
X104000000Y-115000000D03*
X100000000Y-112500002D03*
X86500000Y-106000000D03*
X97987340Y-107987340D03*
X95027221Y-106225010D03*
X100500000Y-101500000D03*
X99500000Y-102274990D03*
X97000000Y-106225010D03*
X104000000Y-89000000D03*
X104750000Y-91500000D03*
X94000008Y-86500000D03*
X116000000Y-106000000D03*
X98000000Y-97500000D03*
X101000000Y-97500000D03*
X102999996Y-97500004D03*
X88000000Y-89000000D03*
X111600000Y-110100000D03*
X105500000Y-107000000D03*
X90000000Y-105000000D03*
X111999970Y-96000000D03*
X95073161Y-115426839D03*
X105000000Y-83500000D03*
X98000000Y-92000000D03*
X109032835Y-109077983D03*
X113262653Y-107262653D03*
X92000000Y-102000000D03*
X95000000Y-113775000D03*
X96500000Y-94000000D03*
X102000000Y-111500000D03*
X106000000Y-92500000D03*
X106000000Y-97500000D03*
X102500000Y-106000000D03*
X94749112Y-83250888D03*
X108911614Y-87043049D03*
X88000000Y-111000000D03*
X90500000Y-89000000D03*
X105500000Y-95000000D03*
X101000000Y-92500000D03*
X109000000Y-101000000D03*
X101000000Y-107000000D03*
X100000000Y-106499996D03*
X109000000Y-98000000D03*
X109000000Y-96500000D03*
X96785180Y-100228007D03*
X105332821Y-102874232D03*
D14*
X94400007Y-86899999D02*
X94000008Y-86500000D01*
D15*
G36*
X102523426Y-81910153D02*
G01*
X104181782Y-82220154D01*
X105042326Y-82465000D01*
X104898061Y-82465000D01*
X104698102Y-82504774D01*
X104509744Y-82582795D01*
X104340226Y-82696063D01*
X104196063Y-82840226D01*
X104082795Y-83009744D01*
X104004774Y-83198102D01*
X103965000Y-83398061D01*
X103965000Y-83601939D01*
X104004774Y-83801898D01*
X104082795Y-83990256D01*
X104196063Y-84159774D01*
X104340226Y-84303937D01*
X104509744Y-84417205D01*
X104698102Y-84495226D01*
X104898061Y-84535000D01*
X105101939Y-84535000D01*
X105301898Y-84495226D01*
X105490256Y-84417205D01*
X105659774Y-84303937D01*
X105803937Y-84159774D01*
X105917205Y-83990256D01*
X105995226Y-83801898D01*
X106035000Y-83601939D01*
X106035000Y-83398061D01*
X105995226Y-83198102D01*
X105917205Y-83009744D01*
X105803937Y-82840226D01*
X105659774Y-82696063D01*
X105515415Y-82599605D01*
X105804460Y-82681846D01*
X107377617Y-83291290D01*
X108887831Y-84043287D01*
X110322217Y-84931421D01*
X110373228Y-84969942D01*
X110198116Y-85004774D01*
X110009758Y-85082795D01*
X109840240Y-85196063D01*
X109696077Y-85340226D01*
X109582809Y-85509744D01*
X109504788Y-85698102D01*
X109465014Y-85898061D01*
X109465014Y-86101939D01*
X109504788Y-86301898D01*
X109582809Y-86490256D01*
X109696077Y-86659774D01*
X109840240Y-86803937D01*
X110009758Y-86917205D01*
X110198116Y-86995226D01*
X110398075Y-87035000D01*
X110601953Y-87035000D01*
X110801912Y-86995226D01*
X110990270Y-86917205D01*
X111159788Y-86803937D01*
X111303951Y-86659774D01*
X111417219Y-86490256D01*
X111495240Y-86301898D01*
X111535014Y-86101939D01*
X111535014Y-85898061D01*
X111523128Y-85838307D01*
X111619161Y-85910828D01*
X114450276Y-88859018D01*
X115068579Y-89677783D01*
X115956713Y-91112169D01*
X116708710Y-92622383D01*
X117318154Y-94195540D01*
X117779846Y-95818218D01*
X118089847Y-97476574D01*
X118245511Y-99156459D01*
X118245511Y-100843541D01*
X118089847Y-102523426D01*
X117912715Y-103470995D01*
X117152837Y-106231194D01*
X116708710Y-107377617D01*
X115956713Y-108887831D01*
X115068579Y-110322217D01*
X114921144Y-110517452D01*
X111424399Y-114236249D01*
X110322217Y-115068579D01*
X108887831Y-115956713D01*
X107377617Y-116708710D01*
X105804460Y-117318154D01*
X104181782Y-117779846D01*
X102523426Y-118089847D01*
X100843541Y-118245511D01*
X99156459Y-118245511D01*
X97476574Y-118089847D01*
X97315895Y-118059811D01*
X92342820Y-116569504D01*
X91112169Y-115956713D01*
X90091756Y-115324900D01*
X94038161Y-115324900D01*
X94038161Y-115528778D01*
X94077935Y-115728737D01*
X94155956Y-115917095D01*
X94269224Y-116086613D01*
X94413387Y-116230776D01*
X94582905Y-116344044D01*
X94771263Y-116422065D01*
X94971222Y-116461839D01*
X95175100Y-116461839D01*
X95375059Y-116422065D01*
X95563417Y-116344044D01*
X95732935Y-116230776D01*
X95877098Y-116086613D01*
X95990366Y-115917095D01*
X96068387Y-115728737D01*
X96108161Y-115528778D01*
X96108161Y-115324900D01*
X96068387Y-115124941D01*
X95990366Y-114936583D01*
X95877098Y-114767065D01*
X95732935Y-114622902D01*
X95563417Y-114509634D01*
X95375059Y-114431613D01*
X95206381Y-114398061D01*
X100965000Y-114398061D01*
X100965000Y-114601939D01*
X101004774Y-114801898D01*
X101082795Y-114990256D01*
X101196063Y-115159774D01*
X101340226Y-115303937D01*
X101509744Y-115417205D01*
X101698102Y-115495226D01*
X101898061Y-115535000D01*
X102101939Y-115535000D01*
X102301898Y-115495226D01*
X102490256Y-115417205D01*
X102659774Y-115303937D01*
X102803937Y-115159774D01*
X102917205Y-114990256D01*
X102973875Y-114853444D01*
X102965000Y-114898061D01*
X102965000Y-115101939D01*
X103004774Y-115301898D01*
X103082795Y-115490256D01*
X103196063Y-115659774D01*
X103340226Y-115803937D01*
X103509744Y-115917205D01*
X103698102Y-115995226D01*
X103898061Y-116035000D01*
X104101939Y-116035000D01*
X104301898Y-115995226D01*
X104490256Y-115917205D01*
X104659774Y-115803937D01*
X104803937Y-115659774D01*
X104917205Y-115490256D01*
X104995226Y-115301898D01*
X105035000Y-115101939D01*
X105035000Y-114898061D01*
X104995226Y-114698102D01*
X104917205Y-114509744D01*
X104803937Y-114340226D01*
X104659774Y-114196063D01*
X104490256Y-114082795D01*
X104301898Y-114004774D01*
X104101939Y-113965000D01*
X103898061Y-113965000D01*
X103698102Y-114004774D01*
X103509744Y-114082795D01*
X103340226Y-114196063D01*
X103196063Y-114340226D01*
X103082795Y-114509744D01*
X103026125Y-114646556D01*
X103035000Y-114601939D01*
X103035000Y-114398061D01*
X102995226Y-114198102D01*
X102917205Y-114009744D01*
X102803937Y-113840226D01*
X102659774Y-113696063D01*
X102490256Y-113582795D01*
X102301898Y-113504774D01*
X102101939Y-113465000D01*
X101898061Y-113465000D01*
X101698102Y-113504774D01*
X101509744Y-113582795D01*
X101340226Y-113696063D01*
X101196063Y-113840226D01*
X101082795Y-114009744D01*
X101004774Y-114198102D01*
X100965000Y-114398061D01*
X95206381Y-114398061D01*
X95175100Y-114391839D01*
X94971222Y-114391839D01*
X94771263Y-114431613D01*
X94582905Y-114509634D01*
X94413387Y-114622902D01*
X94269224Y-114767065D01*
X94155956Y-114936583D01*
X94077935Y-115124941D01*
X94038161Y-115324900D01*
X90091756Y-115324900D01*
X89677783Y-115068579D01*
X88331463Y-114051885D01*
X87200288Y-113020682D01*
X87077667Y-112898061D01*
X97465000Y-112898061D01*
X97465000Y-113101939D01*
X97504774Y-113301898D01*
X97582795Y-113490256D01*
X97696063Y-113659774D01*
X97840226Y-113803937D01*
X98009744Y-113917205D01*
X98198102Y-113995226D01*
X98398061Y-114035000D01*
X98601939Y-114035000D01*
X98801898Y-113995226D01*
X98990256Y-113917205D01*
X99159774Y-113803937D01*
X99303937Y-113659774D01*
X99417205Y-113490256D01*
X99460964Y-113384613D01*
X99509744Y-113417207D01*
X99698102Y-113495228D01*
X99898061Y-113535002D01*
X100101939Y-113535002D01*
X100301898Y-113495228D01*
X100490256Y-113417207D01*
X100659774Y-113303939D01*
X100803937Y-113159776D01*
X100917205Y-112990258D01*
X100995226Y-112801900D01*
X101035000Y-112601941D01*
X101035000Y-112398063D01*
X100995226Y-112198104D01*
X100917205Y-112009746D01*
X100803937Y-111840228D01*
X100659774Y-111696065D01*
X100490256Y-111582797D01*
X100301898Y-111504776D01*
X100101939Y-111465002D01*
X99898061Y-111465002D01*
X99698102Y-111504776D01*
X99509744Y-111582797D01*
X99340226Y-111696065D01*
X99196063Y-111840228D01*
X99082795Y-112009746D01*
X99039036Y-112115389D01*
X98990256Y-112082795D01*
X98801898Y-112004774D01*
X98601939Y-111965000D01*
X98398061Y-111965000D01*
X98198102Y-112004774D01*
X98009744Y-112082795D01*
X97840226Y-112196063D01*
X97696063Y-112340226D01*
X97582795Y-112509744D01*
X97504774Y-112698102D01*
X97465000Y-112898061D01*
X87077667Y-112898061D01*
X86979318Y-112799712D01*
X85948115Y-111668537D01*
X84998257Y-110410721D01*
X95477660Y-110410721D01*
X95477660Y-110614599D01*
X95517434Y-110814558D01*
X95595455Y-111002916D01*
X95708723Y-111172434D01*
X95852886Y-111316597D01*
X96022404Y-111429865D01*
X96210762Y-111507886D01*
X96410721Y-111547660D01*
X96614599Y-111547660D01*
X96814558Y-111507886D01*
X97002916Y-111429865D01*
X97172434Y-111316597D01*
X97316597Y-111172434D01*
X97429865Y-111002916D01*
X97507886Y-110814558D01*
X97547660Y-110614599D01*
X97547660Y-110410721D01*
X97507886Y-110210762D01*
X97429865Y-110022404D01*
X97413600Y-109998061D01*
X110565000Y-109998061D01*
X110565000Y-110201939D01*
X110604774Y-110401898D01*
X110682795Y-110590256D01*
X110796063Y-110759774D01*
X110940226Y-110903937D01*
X111109744Y-111017205D01*
X111298102Y-111095226D01*
X111498061Y-111135000D01*
X111701939Y-111135000D01*
X111901898Y-111095226D01*
X112090256Y-111017205D01*
X112259774Y-110903937D01*
X112403937Y-110759774D01*
X112517205Y-110590256D01*
X112595226Y-110401898D01*
X112635000Y-110201939D01*
X112635000Y-109998061D01*
X112595226Y-109798102D01*
X112517205Y-109609744D01*
X112403937Y-109440226D01*
X112259774Y-109296063D01*
X112090256Y-109182795D01*
X111901898Y-109104774D01*
X111701939Y-109065000D01*
X111498061Y-109065000D01*
X111298102Y-109104774D01*
X111109744Y-109182795D01*
X110940226Y-109296063D01*
X110796063Y-109440226D01*
X110682795Y-109609744D01*
X110604774Y-109798102D01*
X110565000Y-109998061D01*
X97413600Y-109998061D01*
X97316597Y-109852886D01*
X97172434Y-109708723D01*
X97002916Y-109595455D01*
X96814558Y-109517434D01*
X96614599Y-109477660D01*
X96410721Y-109477660D01*
X96210762Y-109517434D01*
X96022404Y-109595455D01*
X95852886Y-109708723D01*
X95708723Y-109852886D01*
X95595455Y-110022404D01*
X95517434Y-110210762D01*
X95477660Y-110410721D01*
X84998257Y-110410721D01*
X84931421Y-110322217D01*
X84043287Y-108887831D01*
X83428609Y-107653391D01*
X82943092Y-106035000D01*
X83101939Y-106035000D01*
X83301898Y-105995226D01*
X83490256Y-105917205D01*
X83518907Y-105898061D01*
X85465000Y-105898061D01*
X85465000Y-106101939D01*
X85504774Y-106301898D01*
X85582795Y-106490256D01*
X85696063Y-106659774D01*
X85840226Y-106803937D01*
X86009744Y-106917205D01*
X86198102Y-106995226D01*
X86398061Y-107035000D01*
X86601939Y-107035000D01*
X86801898Y-106995226D01*
X86990256Y-106917205D01*
X87159774Y-106803937D01*
X87303937Y-106659774D01*
X87417205Y-106490256D01*
X87495226Y-106301898D01*
X87530796Y-106123071D01*
X93992221Y-106123071D01*
X93992221Y-106326949D01*
X94031995Y-106526908D01*
X94110016Y-106715266D01*
X94223284Y-106884784D01*
X94367447Y-107028947D01*
X94536965Y-107142215D01*
X94725323Y-107220236D01*
X94925282Y-107260010D01*
X95129160Y-107260010D01*
X95329119Y-107220236D01*
X95517477Y-107142215D01*
X95686995Y-107028947D01*
X95831158Y-106884784D01*
X95944426Y-106715266D01*
X96013611Y-106548241D01*
X96082795Y-106715266D01*
X96196063Y-106884784D01*
X96340226Y-107028947D01*
X96509744Y-107142215D01*
X96698102Y-107220236D01*
X96898061Y-107260010D01*
X97101939Y-107260010D01*
X97287961Y-107223008D01*
X97183403Y-107327566D01*
X97070135Y-107497084D01*
X96992114Y-107685442D01*
X96952340Y-107885401D01*
X96952340Y-108089279D01*
X96992114Y-108289238D01*
X97070135Y-108477596D01*
X97183403Y-108647114D01*
X97327566Y-108791277D01*
X97497084Y-108904545D01*
X97685442Y-108982566D01*
X97885401Y-109022340D01*
X98089279Y-109022340D01*
X98289238Y-108982566D01*
X98477596Y-108904545D01*
X98647114Y-108791277D01*
X98791277Y-108647114D01*
X98904545Y-108477596D01*
X98982566Y-108289238D01*
X99022340Y-108089279D01*
X99022340Y-107885401D01*
X98982566Y-107685442D01*
X98904545Y-107497084D01*
X98791277Y-107327566D01*
X98647114Y-107183403D01*
X98477596Y-107070135D01*
X98289238Y-106992114D01*
X98089279Y-106952340D01*
X97885401Y-106952340D01*
X97699379Y-106989342D01*
X97803937Y-106884784D01*
X97917205Y-106715266D01*
X97995226Y-106526908D01*
X98020855Y-106398057D01*
X98965000Y-106398057D01*
X98965000Y-106601935D01*
X99004774Y-106801894D01*
X99082795Y-106990252D01*
X99196063Y-107159770D01*
X99340226Y-107303933D01*
X99509744Y-107417201D01*
X99698102Y-107495222D01*
X99898061Y-107534996D01*
X100101939Y-107534996D01*
X100111428Y-107533109D01*
X100196063Y-107659774D01*
X100340226Y-107803937D01*
X100509744Y-107917205D01*
X100698102Y-107995226D01*
X100898061Y-108035000D01*
X101101939Y-108035000D01*
X101301898Y-107995226D01*
X101490256Y-107917205D01*
X101659774Y-107803937D01*
X101803937Y-107659774D01*
X101917205Y-107490256D01*
X101995226Y-107301898D01*
X102035000Y-107101939D01*
X102035000Y-106898061D01*
X104465000Y-106898061D01*
X104465000Y-107101939D01*
X104504774Y-107301898D01*
X104582795Y-107490256D01*
X104696063Y-107659774D01*
X104840226Y-107803937D01*
X105009744Y-107917205D01*
X105198102Y-107995226D01*
X105398061Y-108035000D01*
X105601939Y-108035000D01*
X105801898Y-107995226D01*
X105990256Y-107917205D01*
X106159774Y-107803937D01*
X106303937Y-107659774D01*
X106417205Y-107490256D01*
X106495226Y-107301898D01*
X106535000Y-107101939D01*
X106535000Y-106898061D01*
X106495226Y-106698102D01*
X106417205Y-106509744D01*
X106303937Y-106340226D01*
X106159774Y-106196063D01*
X105990256Y-106082795D01*
X105801898Y-106004774D01*
X105601939Y-105965000D01*
X105398061Y-105965000D01*
X105198102Y-106004774D01*
X105009744Y-106082795D01*
X104840226Y-106196063D01*
X104696063Y-106340226D01*
X104582795Y-106509744D01*
X104504774Y-106698102D01*
X104465000Y-106898061D01*
X102035000Y-106898061D01*
X101995226Y-106698102D01*
X101917205Y-106509744D01*
X101803937Y-106340226D01*
X101659774Y-106196063D01*
X101490256Y-106082795D01*
X101301898Y-106004774D01*
X101101939Y-105965000D01*
X100898061Y-105965000D01*
X100888572Y-105966887D01*
X100803937Y-105840222D01*
X100659774Y-105696059D01*
X100490256Y-105582791D01*
X100301898Y-105504770D01*
X100101939Y-105464996D01*
X99898061Y-105464996D01*
X99698102Y-105504770D01*
X99509744Y-105582791D01*
X99340226Y-105696059D01*
X99196063Y-105840222D01*
X99082795Y-106009740D01*
X99004774Y-106198098D01*
X98965000Y-106398057D01*
X98020855Y-106398057D01*
X98035000Y-106326949D01*
X98035000Y-106123071D01*
X97995226Y-105923112D01*
X97917205Y-105734754D01*
X97803937Y-105565236D01*
X97659774Y-105421073D01*
X97490256Y-105307805D01*
X97301898Y-105229784D01*
X97101939Y-105190010D01*
X96898061Y-105190010D01*
X96698102Y-105229784D01*
X96509744Y-105307805D01*
X96340226Y-105421073D01*
X96196063Y-105565236D01*
X96082795Y-105734754D01*
X96013611Y-105901779D01*
X95944426Y-105734754D01*
X95831158Y-105565236D01*
X95686995Y-105421073D01*
X95517477Y-105307805D01*
X95329119Y-105229784D01*
X95129160Y-105190010D01*
X94925282Y-105190010D01*
X94725323Y-105229784D01*
X94536965Y-105307805D01*
X94367447Y-105421073D01*
X94223284Y-105565236D01*
X94110016Y-105734754D01*
X94031995Y-105923112D01*
X93992221Y-106123071D01*
X87530796Y-106123071D01*
X87535000Y-106101939D01*
X87535000Y-105898061D01*
X87495226Y-105698102D01*
X87417205Y-105509744D01*
X87303937Y-105340226D01*
X87159774Y-105196063D01*
X86990256Y-105082795D01*
X86801898Y-105004774D01*
X86601939Y-104965000D01*
X86398061Y-104965000D01*
X86198102Y-105004774D01*
X86009744Y-105082795D01*
X85840226Y-105196063D01*
X85696063Y-105340226D01*
X85582795Y-105509744D01*
X85504774Y-105698102D01*
X85465000Y-105898061D01*
X83518907Y-105898061D01*
X83659774Y-105803937D01*
X83803937Y-105659774D01*
X83917205Y-105490256D01*
X83995226Y-105301898D01*
X84010850Y-105223350D01*
X84089398Y-105207726D01*
X84277756Y-105129705D01*
X84447274Y-105016437D01*
X84565650Y-104898061D01*
X88965000Y-104898061D01*
X88965000Y-105101939D01*
X89004774Y-105301898D01*
X89082795Y-105490256D01*
X89196063Y-105659774D01*
X89340226Y-105803937D01*
X89509744Y-105917205D01*
X89698102Y-105995226D01*
X89898061Y-106035000D01*
X90101939Y-106035000D01*
X90301898Y-105995226D01*
X90490256Y-105917205D01*
X90659774Y-105803937D01*
X90803937Y-105659774D01*
X90917205Y-105490256D01*
X90995226Y-105301898D01*
X91035000Y-105101939D01*
X91035000Y-104898061D01*
X109465000Y-104898061D01*
X109465000Y-105101939D01*
X109504774Y-105301898D01*
X109582795Y-105490256D01*
X109696063Y-105659774D01*
X109840226Y-105803937D01*
X110009744Y-105917205D01*
X110198102Y-105995226D01*
X110398061Y-106035000D01*
X110594499Y-106035000D01*
X110648815Y-106101185D01*
X110745506Y-106180537D01*
X110855820Y-106239502D01*
X110975518Y-106275812D01*
X111100000Y-106288072D01*
X111214250Y-106285000D01*
X111373000Y-106126250D01*
X111373000Y-105556414D01*
X111417205Y-105490256D01*
X111495226Y-105301898D01*
X111535000Y-105101939D01*
X111535000Y-104898061D01*
X111495226Y-104698102D01*
X111417205Y-104509744D01*
X111373000Y-104443586D01*
X111373000Y-103873750D01*
X111627000Y-103873750D01*
X111627000Y-104873000D01*
X111647000Y-104873000D01*
X111647000Y-105127000D01*
X111627000Y-105127000D01*
X111627000Y-106126250D01*
X111785750Y-106285000D01*
X111900000Y-106288072D01*
X112024482Y-106275812D01*
X112144180Y-106239502D01*
X112254494Y-106180537D01*
X112270594Y-106167324D01*
X112352008Y-106210841D01*
X112547106Y-106270024D01*
X112750000Y-106290007D01*
X112952895Y-106270024D01*
X113147993Y-106210841D01*
X113327797Y-106114734D01*
X113485396Y-105985396D01*
X113557069Y-105898061D01*
X114965000Y-105898061D01*
X114965000Y-106101939D01*
X115004774Y-106301898D01*
X115082795Y-106490256D01*
X115196063Y-106659774D01*
X115340226Y-106803937D01*
X115509744Y-106917205D01*
X115698102Y-106995226D01*
X115898061Y-107035000D01*
X116101939Y-107035000D01*
X116301898Y-106995226D01*
X116490256Y-106917205D01*
X116659774Y-106803937D01*
X116803937Y-106659774D01*
X116917205Y-106490256D01*
X116995226Y-106301898D01*
X117035000Y-106101939D01*
X117035000Y-105898061D01*
X116995226Y-105698102D01*
X116917205Y-105509744D01*
X116803937Y-105340226D01*
X116659774Y-105196063D01*
X116490256Y-105082795D01*
X116301898Y-105004774D01*
X116101939Y-104965000D01*
X115898061Y-104965000D01*
X115698102Y-105004774D01*
X115509744Y-105082795D01*
X115340226Y-105196063D01*
X115196063Y-105340226D01*
X115082795Y-105509744D01*
X115004774Y-105698102D01*
X114965000Y-105898061D01*
X113557069Y-105898061D01*
X113614734Y-105827797D01*
X113710841Y-105647992D01*
X113770024Y-105452894D01*
X113785000Y-105300837D01*
X113785000Y-104699162D01*
X113770024Y-104547105D01*
X113710841Y-104352007D01*
X113614734Y-104172203D01*
X113485396Y-104014604D01*
X113327797Y-103885266D01*
X113147992Y-103789159D01*
X112952894Y-103729976D01*
X112750000Y-103709993D01*
X112547105Y-103729976D01*
X112352007Y-103789159D01*
X112270593Y-103832675D01*
X112254494Y-103819463D01*
X112144180Y-103760498D01*
X112024482Y-103724188D01*
X111900000Y-103711928D01*
X111785750Y-103715000D01*
X111627000Y-103873750D01*
X111373000Y-103873750D01*
X111214250Y-103715000D01*
X111100000Y-103711928D01*
X110975518Y-103724188D01*
X110855820Y-103760498D01*
X110745506Y-103819463D01*
X110648815Y-103898815D01*
X110594499Y-103965000D01*
X110398061Y-103965000D01*
X110198102Y-104004774D01*
X110009744Y-104082795D01*
X109840226Y-104196063D01*
X109696063Y-104340226D01*
X109582795Y-104509744D01*
X109504774Y-104698102D01*
X109465000Y-104898061D01*
X91035000Y-104898061D01*
X90995226Y-104698102D01*
X90917205Y-104509744D01*
X90803937Y-104340226D01*
X90659774Y-104196063D01*
X90490256Y-104082795D01*
X90301898Y-104004774D01*
X90101939Y-103965000D01*
X89898061Y-103965000D01*
X89698102Y-104004774D01*
X89509744Y-104082795D01*
X89340226Y-104196063D01*
X89196063Y-104340226D01*
X89082795Y-104509744D01*
X89004774Y-104698102D01*
X88965000Y-104898061D01*
X84565650Y-104898061D01*
X84591437Y-104872274D01*
X84704705Y-104702756D01*
X84782726Y-104514398D01*
X84822500Y-104314439D01*
X84822500Y-104110561D01*
X84782726Y-103910602D01*
X84704705Y-103722244D01*
X84591437Y-103552726D01*
X84447274Y-103408563D01*
X84431557Y-103398061D01*
X94965000Y-103398061D01*
X94965000Y-103601939D01*
X95004774Y-103801898D01*
X95082795Y-103990256D01*
X95196063Y-104159774D01*
X95340226Y-104303937D01*
X95509744Y-104417205D01*
X95698102Y-104495226D01*
X95898061Y-104535000D01*
X96101939Y-104535000D01*
X96301898Y-104495226D01*
X96490256Y-104417205D01*
X96659774Y-104303937D01*
X96803937Y-104159774D01*
X96917205Y-103990256D01*
X96995226Y-103801898D01*
X97035000Y-103601939D01*
X97035000Y-103398061D01*
X96995226Y-103198102D01*
X96917205Y-103009744D01*
X96803937Y-102840226D01*
X96659774Y-102696063D01*
X96490256Y-102582795D01*
X96301898Y-102504774D01*
X96101939Y-102465000D01*
X95898061Y-102465000D01*
X95698102Y-102504774D01*
X95509744Y-102582795D01*
X95340226Y-102696063D01*
X95196063Y-102840226D01*
X95082795Y-103009744D01*
X95004774Y-103198102D01*
X94965000Y-103398061D01*
X84431557Y-103398061D01*
X84277756Y-103295295D01*
X84089398Y-103217274D01*
X83889439Y-103177500D01*
X83685561Y-103177500D01*
X83485602Y-103217274D01*
X83297244Y-103295295D01*
X83127726Y-103408563D01*
X82983563Y-103552726D01*
X82870295Y-103722244D01*
X82792274Y-103910602D01*
X82776650Y-103989150D01*
X82698102Y-104004774D01*
X82509744Y-104082795D01*
X82382864Y-104167573D01*
X81944101Y-102705031D01*
X81910153Y-102523426D01*
X81877687Y-102173051D01*
X98465000Y-102173051D01*
X98465000Y-102376929D01*
X98504774Y-102576888D01*
X98582795Y-102765246D01*
X98696063Y-102934764D01*
X98840226Y-103078927D01*
X99009744Y-103192195D01*
X99198102Y-103270216D01*
X99398061Y-103309990D01*
X99508126Y-103309990D01*
X99582795Y-103490256D01*
X99696063Y-103659774D01*
X99840226Y-103803937D01*
X100009744Y-103917205D01*
X100198102Y-103995226D01*
X100398061Y-104035000D01*
X100601939Y-104035000D01*
X100801898Y-103995226D01*
X100990256Y-103917205D01*
X101159774Y-103803937D01*
X101303937Y-103659774D01*
X101417205Y-103490256D01*
X101495226Y-103301898D01*
X101535000Y-103101939D01*
X101535000Y-102898061D01*
X101509984Y-102772293D01*
X104297821Y-102772293D01*
X104297821Y-102976171D01*
X104337595Y-103176130D01*
X104415616Y-103364488D01*
X104528884Y-103534006D01*
X104673047Y-103678169D01*
X104842565Y-103791437D01*
X105030923Y-103869458D01*
X105230882Y-103909232D01*
X105434760Y-103909232D01*
X105634719Y-103869458D01*
X105823077Y-103791437D01*
X105992595Y-103678169D01*
X106136758Y-103534006D01*
X106250026Y-103364488D01*
X106328047Y-103176130D01*
X106367821Y-102976171D01*
X106367821Y-102772293D01*
X106328047Y-102572334D01*
X106250026Y-102383976D01*
X106136758Y-102214458D01*
X105992595Y-102070295D01*
X105823077Y-101957027D01*
X105634719Y-101879006D01*
X105434760Y-101839232D01*
X105230882Y-101839232D01*
X105030923Y-101879006D01*
X104842565Y-101957027D01*
X104673047Y-102070295D01*
X104528884Y-102214458D01*
X104415616Y-102383976D01*
X104337595Y-102572334D01*
X104297821Y-102772293D01*
X101509984Y-102772293D01*
X101495226Y-102698102D01*
X101417205Y-102509744D01*
X101303937Y-102340226D01*
X101213711Y-102250000D01*
X101303937Y-102159774D01*
X101417205Y-101990256D01*
X101495226Y-101801898D01*
X101535000Y-101601939D01*
X101535000Y-101398061D01*
X101495226Y-101198102D01*
X101417205Y-101009744D01*
X101342582Y-100898061D01*
X107965000Y-100898061D01*
X107965000Y-101101939D01*
X108004774Y-101301898D01*
X108082795Y-101490256D01*
X108196063Y-101659774D01*
X108340226Y-101803937D01*
X108509744Y-101917205D01*
X108698102Y-101995226D01*
X108898061Y-102035000D01*
X109101939Y-102035000D01*
X109301898Y-101995226D01*
X109490256Y-101917205D01*
X109659774Y-101803937D01*
X109803937Y-101659774D01*
X109917205Y-101490256D01*
X109995226Y-101301898D01*
X110035000Y-101101939D01*
X110035000Y-100898061D01*
X109995226Y-100698102D01*
X109917205Y-100509744D01*
X109803937Y-100340226D01*
X109659774Y-100196063D01*
X109490256Y-100082795D01*
X109301898Y-100004774D01*
X109101939Y-99965000D01*
X108898061Y-99965000D01*
X108698102Y-100004774D01*
X108509744Y-100082795D01*
X108340226Y-100196063D01*
X108196063Y-100340226D01*
X108082795Y-100509744D01*
X108004774Y-100698102D01*
X107965000Y-100898061D01*
X101342582Y-100898061D01*
X101303937Y-100840226D01*
X101159774Y-100696063D01*
X100990256Y-100582795D01*
X100801898Y-100504774D01*
X100601939Y-100465000D01*
X100398061Y-100465000D01*
X100198102Y-100504774D01*
X100009744Y-100582795D01*
X99840226Y-100696063D01*
X99696063Y-100840226D01*
X99582795Y-101009744D01*
X99504774Y-101198102D01*
X99496442Y-101239990D01*
X99398061Y-101239990D01*
X99198102Y-101279764D01*
X99009744Y-101357785D01*
X98840226Y-101471053D01*
X98696063Y-101615216D01*
X98582795Y-101784734D01*
X98504774Y-101973092D01*
X98465000Y-102173051D01*
X81877687Y-102173051D01*
X81759542Y-100898061D01*
X85465000Y-100898061D01*
X85465000Y-101101939D01*
X85504774Y-101301898D01*
X85582795Y-101490256D01*
X85696063Y-101659774D01*
X85840226Y-101803937D01*
X86009744Y-101917205D01*
X86198102Y-101995226D01*
X86398061Y-102035000D01*
X86601939Y-102035000D01*
X86801898Y-101995226D01*
X86990256Y-101917205D01*
X87159774Y-101803937D01*
X87303937Y-101659774D01*
X87417205Y-101490256D01*
X87495226Y-101301898D01*
X87535000Y-101101939D01*
X87535000Y-100898061D01*
X87495226Y-100698102D01*
X87417205Y-100509744D01*
X87303937Y-100340226D01*
X87159774Y-100196063D01*
X87055019Y-100126068D01*
X95750180Y-100126068D01*
X95750180Y-100329946D01*
X95789954Y-100529905D01*
X95867975Y-100718263D01*
X95981243Y-100887781D01*
X96125406Y-101031944D01*
X96294924Y-101145212D01*
X96483282Y-101223233D01*
X96683241Y-101263007D01*
X96887119Y-101263007D01*
X97087078Y-101223233D01*
X97275436Y-101145212D01*
X97444954Y-101031944D01*
X97589117Y-100887781D01*
X97702385Y-100718263D01*
X97780406Y-100529905D01*
X97820180Y-100329946D01*
X97820180Y-100126068D01*
X97780406Y-99926109D01*
X97702385Y-99737751D01*
X97589117Y-99568233D01*
X97444954Y-99424070D01*
X97275436Y-99310802D01*
X97087078Y-99232781D01*
X96887119Y-99193007D01*
X96683241Y-99193007D01*
X96483282Y-99232781D01*
X96294924Y-99310802D01*
X96125406Y-99424070D01*
X95981243Y-99568233D01*
X95867975Y-99737751D01*
X95789954Y-99926109D01*
X95750180Y-100126068D01*
X87055019Y-100126068D01*
X86990256Y-100082795D01*
X86801898Y-100004774D01*
X86601939Y-99965000D01*
X86398061Y-99965000D01*
X86198102Y-100004774D01*
X86009744Y-100082795D01*
X85840226Y-100196063D01*
X85696063Y-100340226D01*
X85582795Y-100509744D01*
X85504774Y-100698102D01*
X85465000Y-100898061D01*
X81759542Y-100898061D01*
X81754489Y-100843541D01*
X81754489Y-99156459D01*
X81871096Y-97898061D01*
X81965000Y-97898061D01*
X81965000Y-98101939D01*
X82004774Y-98301898D01*
X82082795Y-98490256D01*
X82196063Y-98659774D01*
X82340226Y-98803937D01*
X82509744Y-98917205D01*
X82698102Y-98995226D01*
X82898061Y-99035000D01*
X82984907Y-99035000D01*
X83007795Y-99090256D01*
X83121063Y-99259774D01*
X83265226Y-99403937D01*
X83434744Y-99517205D01*
X83623102Y-99595226D01*
X83823061Y-99635000D01*
X84026939Y-99635000D01*
X84226898Y-99595226D01*
X84415256Y-99517205D01*
X84584774Y-99403937D01*
X84728937Y-99259774D01*
X84842205Y-99090256D01*
X84920226Y-98901898D01*
X84960000Y-98701939D01*
X84960000Y-98498061D01*
X84920226Y-98298102D01*
X84842205Y-98109744D01*
X84728937Y-97940226D01*
X84676923Y-97888212D01*
X89865000Y-97888212D01*
X89865000Y-98111788D01*
X89908617Y-98331067D01*
X89994176Y-98537624D01*
X90118388Y-98723520D01*
X90276480Y-98881612D01*
X90462376Y-99005824D01*
X90668933Y-99091383D01*
X90888212Y-99135000D01*
X91111788Y-99135000D01*
X91331067Y-99091383D01*
X91537624Y-99005824D01*
X91723520Y-98881612D01*
X91881612Y-98723520D01*
X91950000Y-98621170D01*
X92018388Y-98723520D01*
X92176480Y-98881612D01*
X92362376Y-99005824D01*
X92568933Y-99091383D01*
X92788212Y-99135000D01*
X93011788Y-99135000D01*
X93231067Y-99091383D01*
X93437624Y-99005824D01*
X93623520Y-98881612D01*
X93781612Y-98723520D01*
X93905824Y-98537624D01*
X93991383Y-98331067D01*
X94035000Y-98111788D01*
X94035000Y-97888212D01*
X93991383Y-97668933D01*
X93905824Y-97462376D01*
X93862850Y-97398061D01*
X96965000Y-97398061D01*
X96965000Y-97601939D01*
X97004774Y-97801898D01*
X97082795Y-97990256D01*
X97196063Y-98159774D01*
X97340226Y-98303937D01*
X97509744Y-98417205D01*
X97698102Y-98495226D01*
X97898061Y-98535000D01*
X98101939Y-98535000D01*
X98301898Y-98495226D01*
X98490256Y-98417205D01*
X98659774Y-98303937D01*
X98803937Y-98159774D01*
X98917205Y-97990256D01*
X98995226Y-97801898D01*
X99035000Y-97601939D01*
X99035000Y-97398061D01*
X99965000Y-97398061D01*
X99965000Y-97601939D01*
X100004774Y-97801898D01*
X100082795Y-97990256D01*
X100196063Y-98159774D01*
X100340226Y-98303937D01*
X100509744Y-98417205D01*
X100698102Y-98495226D01*
X100898061Y-98535000D01*
X101101939Y-98535000D01*
X101301898Y-98495226D01*
X101490256Y-98417205D01*
X101659774Y-98303937D01*
X101803937Y-98159774D01*
X101917205Y-97990256D01*
X101995226Y-97801898D01*
X101999998Y-97777909D01*
X102004770Y-97801902D01*
X102082791Y-97990260D01*
X102196059Y-98159778D01*
X102340222Y-98303941D01*
X102509740Y-98417209D01*
X102698098Y-98495230D01*
X102898057Y-98535004D01*
X103101935Y-98535004D01*
X103301894Y-98495230D01*
X103490252Y-98417209D01*
X103659770Y-98303941D01*
X103803933Y-98159778D01*
X103917201Y-97990260D01*
X103995222Y-97801902D01*
X104034996Y-97601943D01*
X104034996Y-97398065D01*
X103995222Y-97198106D01*
X103917201Y-97009748D01*
X103803933Y-96840230D01*
X103659770Y-96696067D01*
X103490252Y-96582799D01*
X103301894Y-96504778D01*
X103101935Y-96465004D01*
X102898057Y-96465004D01*
X102698098Y-96504778D01*
X102509740Y-96582799D01*
X102340222Y-96696067D01*
X102196059Y-96840230D01*
X102082791Y-97009748D01*
X102004770Y-97198106D01*
X101999998Y-97222095D01*
X101995226Y-97198102D01*
X101917205Y-97009744D01*
X101803937Y-96840226D01*
X101659774Y-96696063D01*
X101490256Y-96582795D01*
X101301898Y-96504774D01*
X101101939Y-96465000D01*
X100898061Y-96465000D01*
X100698102Y-96504774D01*
X100509744Y-96582795D01*
X100340226Y-96696063D01*
X100196063Y-96840226D01*
X100082795Y-97009744D01*
X100004774Y-97198102D01*
X99965000Y-97398061D01*
X99035000Y-97398061D01*
X98995226Y-97198102D01*
X98917205Y-97009744D01*
X98803937Y-96840226D01*
X98659774Y-96696063D01*
X98490256Y-96582795D01*
X98301898Y-96504774D01*
X98101939Y-96465000D01*
X97898061Y-96465000D01*
X97698102Y-96504774D01*
X97509744Y-96582795D01*
X97340226Y-96696063D01*
X97196063Y-96840226D01*
X97082795Y-97009744D01*
X97004774Y-97198102D01*
X96965000Y-97398061D01*
X93862850Y-97398061D01*
X93781612Y-97276480D01*
X93623520Y-97118388D01*
X93437624Y-96994176D01*
X93231067Y-96908617D01*
X93011788Y-96865000D01*
X92788212Y-96865000D01*
X92568933Y-96908617D01*
X92362376Y-96994176D01*
X92176480Y-97118388D01*
X92018388Y-97276480D01*
X91950000Y-97378830D01*
X91881612Y-97276480D01*
X91723520Y-97118388D01*
X91537624Y-96994176D01*
X91331067Y-96908617D01*
X91111788Y-96865000D01*
X90888212Y-96865000D01*
X90668933Y-96908617D01*
X90462376Y-96994176D01*
X90276480Y-97118388D01*
X90118388Y-97276480D01*
X89994176Y-97462376D01*
X89908617Y-97668933D01*
X89865000Y-97888212D01*
X84676923Y-97888212D01*
X84584774Y-97796063D01*
X84415256Y-97682795D01*
X84226898Y-97604774D01*
X84026939Y-97565000D01*
X83940093Y-97565000D01*
X83917205Y-97509744D01*
X83803937Y-97340226D01*
X83659774Y-97196063D01*
X83490256Y-97082795D01*
X83301898Y-97004774D01*
X83101939Y-96965000D01*
X82898061Y-96965000D01*
X82698102Y-97004774D01*
X82509744Y-97082795D01*
X82340226Y-97196063D01*
X82196063Y-97340226D01*
X82082795Y-97509744D01*
X82004774Y-97698102D01*
X81965000Y-97898061D01*
X81871096Y-97898061D01*
X81910153Y-97476574D01*
X82111762Y-96398061D01*
X107965000Y-96398061D01*
X107965000Y-96601939D01*
X108004774Y-96801898D01*
X108082795Y-96990256D01*
X108196063Y-97159774D01*
X108286289Y-97250000D01*
X108196063Y-97340226D01*
X108082795Y-97509744D01*
X108004774Y-97698102D01*
X107965000Y-97898061D01*
X107965000Y-98101939D01*
X108004774Y-98301898D01*
X108082795Y-98490256D01*
X108196063Y-98659774D01*
X108340226Y-98803937D01*
X108509744Y-98917205D01*
X108698102Y-98995226D01*
X108898061Y-99035000D01*
X109101939Y-99035000D01*
X109301898Y-98995226D01*
X109490256Y-98917205D01*
X109659774Y-98803937D01*
X109803937Y-98659774D01*
X109917205Y-98490256D01*
X109995226Y-98301898D01*
X110035000Y-98101939D01*
X110035000Y-97898061D01*
X109995226Y-97698102D01*
X109917205Y-97509744D01*
X109803937Y-97340226D01*
X109713711Y-97250000D01*
X109803937Y-97159774D01*
X109917205Y-96990256D01*
X109995226Y-96801898D01*
X110035000Y-96601939D01*
X110035000Y-96398061D01*
X109995226Y-96198102D01*
X109917205Y-96009744D01*
X109842582Y-95898061D01*
X110964970Y-95898061D01*
X110964970Y-96101939D01*
X111004744Y-96301898D01*
X111082765Y-96490256D01*
X111196033Y-96659774D01*
X111340196Y-96803937D01*
X111509714Y-96917205D01*
X111698072Y-96995226D01*
X111898031Y-97035000D01*
X112101909Y-97035000D01*
X112301868Y-96995226D01*
X112490226Y-96917205D01*
X112518877Y-96898061D01*
X113465000Y-96898061D01*
X113465000Y-97101939D01*
X113504774Y-97301898D01*
X113582795Y-97490256D01*
X113696063Y-97659774D01*
X113840226Y-97803937D01*
X114009744Y-97917205D01*
X114198102Y-97995226D01*
X114398061Y-98035000D01*
X114601939Y-98035000D01*
X114801898Y-97995226D01*
X114990256Y-97917205D01*
X115159774Y-97803937D01*
X115303937Y-97659774D01*
X115417205Y-97490256D01*
X115495226Y-97301898D01*
X115535000Y-97101939D01*
X115535000Y-96898061D01*
X115495226Y-96698102D01*
X115417205Y-96509744D01*
X115303937Y-96340226D01*
X115159774Y-96196063D01*
X114990256Y-96082795D01*
X114801898Y-96004774D01*
X114601939Y-95965000D01*
X114398061Y-95965000D01*
X114198102Y-96004774D01*
X114009744Y-96082795D01*
X113840226Y-96196063D01*
X113696063Y-96340226D01*
X113582795Y-96509744D01*
X113504774Y-96698102D01*
X113465000Y-96898061D01*
X112518877Y-96898061D01*
X112659744Y-96803937D01*
X112803907Y-96659774D01*
X112917175Y-96490256D01*
X112995196Y-96301898D01*
X113034970Y-96101939D01*
X113034970Y-95898061D01*
X112995196Y-95698102D01*
X112917175Y-95509744D01*
X112803907Y-95340226D01*
X112659744Y-95196063D01*
X112490226Y-95082795D01*
X112301868Y-95004774D01*
X112101909Y-94965000D01*
X111898031Y-94965000D01*
X111698072Y-95004774D01*
X111509714Y-95082795D01*
X111340196Y-95196063D01*
X111196033Y-95340226D01*
X111082765Y-95509744D01*
X111004744Y-95698102D01*
X110964970Y-95898061D01*
X109842582Y-95898061D01*
X109803937Y-95840226D01*
X109659774Y-95696063D01*
X109490256Y-95582795D01*
X109301898Y-95504774D01*
X109101939Y-95465000D01*
X108898061Y-95465000D01*
X108698102Y-95504774D01*
X108509744Y-95582795D01*
X108340226Y-95696063D01*
X108196063Y-95840226D01*
X108082795Y-96009744D01*
X108004774Y-96198102D01*
X107965000Y-96398061D01*
X82111762Y-96398061D01*
X82220154Y-95818218D01*
X82481961Y-94898061D01*
X104465000Y-94898061D01*
X104465000Y-95101939D01*
X104504774Y-95301898D01*
X104582795Y-95490256D01*
X104696063Y-95659774D01*
X104840226Y-95803937D01*
X105009744Y-95917205D01*
X105198102Y-95995226D01*
X105398061Y-96035000D01*
X105601939Y-96035000D01*
X105801898Y-95995226D01*
X105990256Y-95917205D01*
X106159774Y-95803937D01*
X106303937Y-95659774D01*
X106417205Y-95490256D01*
X106495226Y-95301898D01*
X106535000Y-95101939D01*
X106535000Y-94898061D01*
X106495226Y-94698102D01*
X106417205Y-94509744D01*
X106303937Y-94340226D01*
X106159774Y-94196063D01*
X105990256Y-94082795D01*
X105801898Y-94004774D01*
X105601939Y-93965000D01*
X105398061Y-93965000D01*
X105198102Y-94004774D01*
X105009744Y-94082795D01*
X104840226Y-94196063D01*
X104696063Y-94340226D01*
X104582795Y-94509744D01*
X104504774Y-94698102D01*
X104465000Y-94898061D01*
X82481961Y-94898061D01*
X82681846Y-94195540D01*
X83291290Y-92622383D01*
X83651959Y-91898061D01*
X96965000Y-91898061D01*
X96965000Y-92101939D01*
X97004774Y-92301898D01*
X97082795Y-92490256D01*
X97196063Y-92659774D01*
X97340226Y-92803937D01*
X97509744Y-92917205D01*
X97698102Y-92995226D01*
X97898061Y-93035000D01*
X98101939Y-93035000D01*
X98301898Y-92995226D01*
X98490256Y-92917205D01*
X98659774Y-92803937D01*
X98803937Y-92659774D01*
X98917205Y-92490256D01*
X98955393Y-92398061D01*
X99965000Y-92398061D01*
X99965000Y-92601939D01*
X100004774Y-92801898D01*
X100082795Y-92990256D01*
X100196063Y-93159774D01*
X100340226Y-93303937D01*
X100509744Y-93417205D01*
X100698102Y-93495226D01*
X100898061Y-93535000D01*
X101101939Y-93535000D01*
X101301898Y-93495226D01*
X101490256Y-93417205D01*
X101659774Y-93303937D01*
X101803937Y-93159774D01*
X101917205Y-92990256D01*
X101960637Y-92885401D01*
X110477660Y-92885401D01*
X110477660Y-93089279D01*
X110517434Y-93289238D01*
X110595455Y-93477596D01*
X110708723Y-93647114D01*
X110852886Y-93791277D01*
X111022404Y-93904545D01*
X111210762Y-93982566D01*
X111410721Y-94022340D01*
X111614599Y-94022340D01*
X111814558Y-93982566D01*
X112002916Y-93904545D01*
X112172434Y-93791277D01*
X112316597Y-93647114D01*
X112429865Y-93477596D01*
X112507886Y-93289238D01*
X112547660Y-93089279D01*
X112547660Y-92885401D01*
X112507886Y-92685442D01*
X112429865Y-92497084D01*
X112316597Y-92327566D01*
X112172434Y-92183403D01*
X112002916Y-92070135D01*
X111814558Y-91992114D01*
X111614599Y-91952340D01*
X111410721Y-91952340D01*
X111210762Y-91992114D01*
X111022404Y-92070135D01*
X110852886Y-92183403D01*
X110708723Y-92327566D01*
X110595455Y-92497084D01*
X110517434Y-92685442D01*
X110477660Y-92885401D01*
X101960637Y-92885401D01*
X101995226Y-92801898D01*
X102035000Y-92601939D01*
X102035000Y-92398061D01*
X101995226Y-92198102D01*
X101917205Y-92009744D01*
X101803937Y-91840226D01*
X101659774Y-91696063D01*
X101490256Y-91582795D01*
X101301898Y-91504774D01*
X101101939Y-91465000D01*
X100898061Y-91465000D01*
X100698102Y-91504774D01*
X100509744Y-91582795D01*
X100340226Y-91696063D01*
X100196063Y-91840226D01*
X100082795Y-92009744D01*
X100004774Y-92198102D01*
X99965000Y-92398061D01*
X98955393Y-92398061D01*
X98995226Y-92301898D01*
X99035000Y-92101939D01*
X99035000Y-91898061D01*
X98995226Y-91698102D01*
X98917205Y-91509744D01*
X98842582Y-91398061D01*
X103715000Y-91398061D01*
X103715000Y-91601939D01*
X103754774Y-91801898D01*
X103832795Y-91990256D01*
X103946063Y-92159774D01*
X104090226Y-92303937D01*
X104259744Y-92417205D01*
X104448102Y-92495226D01*
X104648061Y-92535000D01*
X104851939Y-92535000D01*
X105051898Y-92495226D01*
X105240256Y-92417205D01*
X105409774Y-92303937D01*
X105553937Y-92159774D01*
X105667205Y-91990256D01*
X105745226Y-91801898D01*
X105785000Y-91601939D01*
X105785000Y-91398061D01*
X105745226Y-91198102D01*
X105667205Y-91009744D01*
X105553937Y-90840226D01*
X105409774Y-90696063D01*
X105240256Y-90582795D01*
X105051898Y-90504774D01*
X104851939Y-90465000D01*
X104648061Y-90465000D01*
X104448102Y-90504774D01*
X104259744Y-90582795D01*
X104090226Y-90696063D01*
X103946063Y-90840226D01*
X103832795Y-91009744D01*
X103754774Y-91198102D01*
X103715000Y-91398061D01*
X98842582Y-91398061D01*
X98803937Y-91340226D01*
X98659774Y-91196063D01*
X98490256Y-91082795D01*
X98301898Y-91004774D01*
X98101939Y-90965000D01*
X97898061Y-90965000D01*
X97698102Y-91004774D01*
X97509744Y-91082795D01*
X97340226Y-91196063D01*
X97196063Y-91340226D01*
X97082795Y-91509744D01*
X97004774Y-91698102D01*
X96965000Y-91898061D01*
X83651959Y-91898061D01*
X84043287Y-91112169D01*
X84931421Y-89677783D01*
X85520239Y-88898061D01*
X86965000Y-88898061D01*
X86965000Y-89101939D01*
X87004774Y-89301898D01*
X87082795Y-89490256D01*
X87196063Y-89659774D01*
X87340226Y-89803937D01*
X87509744Y-89917205D01*
X87698102Y-89995226D01*
X87898061Y-90035000D01*
X88101939Y-90035000D01*
X88301898Y-89995226D01*
X88490256Y-89917205D01*
X88659774Y-89803937D01*
X88803937Y-89659774D01*
X88917205Y-89490256D01*
X88995226Y-89301898D01*
X89023872Y-89157879D01*
X92122277Y-89157879D01*
X92122277Y-89361757D01*
X92162051Y-89561716D01*
X92240072Y-89750074D01*
X92353340Y-89919592D01*
X92497503Y-90063755D01*
X92667021Y-90177023D01*
X92855379Y-90255044D01*
X93055338Y-90294818D01*
X93259216Y-90294818D01*
X93459175Y-90255044D01*
X93647533Y-90177023D01*
X93817051Y-90063755D01*
X93961214Y-89919592D01*
X94074482Y-89750074D01*
X94152503Y-89561716D01*
X94192277Y-89361757D01*
X94192277Y-89157879D01*
X94152503Y-88957920D01*
X94127709Y-88898061D01*
X102965000Y-88898061D01*
X102965000Y-89101939D01*
X103004774Y-89301898D01*
X103082795Y-89490256D01*
X103196063Y-89659774D01*
X103340226Y-89803937D01*
X103509744Y-89917205D01*
X103698102Y-89995226D01*
X103898061Y-90035000D01*
X104101939Y-90035000D01*
X104301898Y-89995226D01*
X104490256Y-89917205D01*
X104659774Y-89803937D01*
X104803937Y-89659774D01*
X104917205Y-89490256D01*
X104995226Y-89301898D01*
X105035000Y-89101939D01*
X105035000Y-88898061D01*
X104995226Y-88698102D01*
X104917205Y-88509744D01*
X104803937Y-88340226D01*
X104659774Y-88196063D01*
X104490256Y-88082795D01*
X104301898Y-88004774D01*
X104101939Y-87965000D01*
X103898061Y-87965000D01*
X103698102Y-88004774D01*
X103509744Y-88082795D01*
X103340226Y-88196063D01*
X103196063Y-88340226D01*
X103082795Y-88509744D01*
X103004774Y-88698102D01*
X102965000Y-88898061D01*
X94127709Y-88898061D01*
X94074482Y-88769562D01*
X93961214Y-88600044D01*
X93817051Y-88455881D01*
X93647533Y-88342613D01*
X93459175Y-88264592D01*
X93259216Y-88224818D01*
X93055338Y-88224818D01*
X92855379Y-88264592D01*
X92667021Y-88342613D01*
X92497503Y-88455881D01*
X92353340Y-88600044D01*
X92240072Y-88769562D01*
X92162051Y-88957920D01*
X92122277Y-89157879D01*
X89023872Y-89157879D01*
X89035000Y-89101939D01*
X89035000Y-88898061D01*
X88995226Y-88698102D01*
X88917205Y-88509744D01*
X88803937Y-88340226D01*
X88659774Y-88196063D01*
X88490256Y-88082795D01*
X88301898Y-88004774D01*
X88101939Y-87965000D01*
X87898061Y-87965000D01*
X87698102Y-88004774D01*
X87509744Y-88082795D01*
X87340226Y-88196063D01*
X87196063Y-88340226D01*
X87082795Y-88509744D01*
X87004774Y-88698102D01*
X86965000Y-88898061D01*
X85520239Y-88898061D01*
X85948115Y-88331463D01*
X86979318Y-87200288D01*
X87200288Y-86979318D01*
X87837896Y-86398061D01*
X92965008Y-86398061D01*
X92965008Y-86601939D01*
X93004782Y-86801898D01*
X93082803Y-86990256D01*
X93196071Y-87159774D01*
X93340234Y-87303937D01*
X93509752Y-87417205D01*
X93698110Y-87495226D01*
X93754965Y-87506535D01*
X93804961Y-87556531D01*
X93905948Y-87639409D01*
X94059693Y-87721587D01*
X94226516Y-87772193D01*
X94400006Y-87789280D01*
X94573497Y-87772193D01*
X94740320Y-87721587D01*
X94894066Y-87639409D01*
X95028824Y-87528816D01*
X95139417Y-87394058D01*
X95221595Y-87240312D01*
X95272201Y-87073489D01*
X95289288Y-86899998D01*
X95272201Y-86726508D01*
X95221595Y-86559685D01*
X95139417Y-86405940D01*
X95056539Y-86304953D01*
X95006543Y-86254957D01*
X94995234Y-86198102D01*
X94917213Y-86009744D01*
X94803945Y-85840226D01*
X94659782Y-85696063D01*
X94490264Y-85582795D01*
X94301906Y-85504774D01*
X94101947Y-85465000D01*
X93898069Y-85465000D01*
X93698110Y-85504774D01*
X93509752Y-85582795D01*
X93340234Y-85696063D01*
X93196071Y-85840226D01*
X93082803Y-86009744D01*
X93004782Y-86198102D01*
X92965008Y-86398061D01*
X87837896Y-86398061D01*
X88331463Y-85948115D01*
X89059851Y-85398061D01*
X96364997Y-85398061D01*
X96364997Y-85601939D01*
X96404771Y-85801898D01*
X96482792Y-85990256D01*
X96596060Y-86159774D01*
X96740223Y-86303937D01*
X96909741Y-86417205D01*
X97098099Y-86495226D01*
X97298058Y-86535000D01*
X97501936Y-86535000D01*
X97578655Y-86519740D01*
X97504774Y-86698102D01*
X97465000Y-86898061D01*
X97465000Y-87101939D01*
X97504774Y-87301898D01*
X97582795Y-87490256D01*
X97696063Y-87659774D01*
X97840226Y-87803937D01*
X98009744Y-87917205D01*
X98198102Y-87995226D01*
X98398061Y-88035000D01*
X98601939Y-88035000D01*
X98801898Y-87995226D01*
X98990256Y-87917205D01*
X99159774Y-87803937D01*
X99303937Y-87659774D01*
X99417205Y-87490256D01*
X99495226Y-87301898D01*
X99535000Y-87101939D01*
X99535000Y-86898061D01*
X99495226Y-86698102D01*
X99417205Y-86509744D01*
X99303937Y-86340226D01*
X99159774Y-86196063D01*
X98990256Y-86082795D01*
X98801898Y-86004774D01*
X98601939Y-85965000D01*
X98398061Y-85965000D01*
X98321342Y-85980260D01*
X98395223Y-85801898D01*
X98434997Y-85601939D01*
X98434997Y-85398061D01*
X98395223Y-85198102D01*
X98317202Y-85009744D01*
X98203934Y-84840226D01*
X98059771Y-84696063D01*
X97890253Y-84582795D01*
X97701895Y-84504774D01*
X97501936Y-84465000D01*
X97298058Y-84465000D01*
X97098099Y-84504774D01*
X96909741Y-84582795D01*
X96740223Y-84696063D01*
X96596060Y-84840226D01*
X96482792Y-85009744D01*
X96404771Y-85198102D01*
X96364997Y-85398061D01*
X89059851Y-85398061D01*
X89677783Y-84931421D01*
X90539189Y-84398061D01*
X101965000Y-84398061D01*
X101965000Y-84601939D01*
X102004774Y-84801898D01*
X102082795Y-84990256D01*
X102196063Y-85159774D01*
X102340226Y-85303937D01*
X102509744Y-85417205D01*
X102698102Y-85495226D01*
X102898061Y-85535000D01*
X103101939Y-85535000D01*
X103301898Y-85495226D01*
X103490256Y-85417205D01*
X103659774Y-85303937D01*
X103803937Y-85159774D01*
X103917205Y-84990256D01*
X103995226Y-84801898D01*
X104035000Y-84601939D01*
X104035000Y-84398061D01*
X103995226Y-84198102D01*
X103917205Y-84009744D01*
X103803937Y-83840226D01*
X103659774Y-83696063D01*
X103490256Y-83582795D01*
X103301898Y-83504774D01*
X103101939Y-83465000D01*
X102898061Y-83465000D01*
X102698102Y-83504774D01*
X102509744Y-83582795D01*
X102340226Y-83696063D01*
X102196063Y-83840226D01*
X102082795Y-84009744D01*
X102004774Y-84198102D01*
X101965000Y-84398061D01*
X90539189Y-84398061D01*
X91112169Y-84043287D01*
X92622383Y-83291290D01*
X94195540Y-82681846D01*
X95818218Y-82220154D01*
X97476574Y-81910153D01*
X99156459Y-81754489D01*
X100843541Y-81754489D01*
X102523426Y-81910153D01*
X102523426Y-81910153D01*
G37*
X102523426Y-81910153D02*
X104181782Y-82220154D01*
X105042326Y-82465000D01*
X104898061Y-82465000D01*
X104698102Y-82504774D01*
X104509744Y-82582795D01*
X104340226Y-82696063D01*
X104196063Y-82840226D01*
X104082795Y-83009744D01*
X104004774Y-83198102D01*
X103965000Y-83398061D01*
X103965000Y-83601939D01*
X104004774Y-83801898D01*
X104082795Y-83990256D01*
X104196063Y-84159774D01*
X104340226Y-84303937D01*
X104509744Y-84417205D01*
X104698102Y-84495226D01*
X104898061Y-84535000D01*
X105101939Y-84535000D01*
X105301898Y-84495226D01*
X105490256Y-84417205D01*
X105659774Y-84303937D01*
X105803937Y-84159774D01*
X105917205Y-83990256D01*
X105995226Y-83801898D01*
X106035000Y-83601939D01*
X106035000Y-83398061D01*
X105995226Y-83198102D01*
X105917205Y-83009744D01*
X105803937Y-82840226D01*
X105659774Y-82696063D01*
X105515415Y-82599605D01*
X105804460Y-82681846D01*
X107377617Y-83291290D01*
X108887831Y-84043287D01*
X110322217Y-84931421D01*
X110373228Y-84969942D01*
X110198116Y-85004774D01*
X110009758Y-85082795D01*
X109840240Y-85196063D01*
X109696077Y-85340226D01*
X109582809Y-85509744D01*
X109504788Y-85698102D01*
X109465014Y-85898061D01*
X109465014Y-86101939D01*
X109504788Y-86301898D01*
X109582809Y-86490256D01*
X109696077Y-86659774D01*
X109840240Y-86803937D01*
X110009758Y-86917205D01*
X110198116Y-86995226D01*
X110398075Y-87035000D01*
X110601953Y-87035000D01*
X110801912Y-86995226D01*
X110990270Y-86917205D01*
X111159788Y-86803937D01*
X111303951Y-86659774D01*
X111417219Y-86490256D01*
X111495240Y-86301898D01*
X111535014Y-86101939D01*
X111535014Y-85898061D01*
X111523128Y-85838307D01*
X111619161Y-85910828D01*
X114450276Y-88859018D01*
X115068579Y-89677783D01*
X115956713Y-91112169D01*
X116708710Y-92622383D01*
X117318154Y-94195540D01*
X117779846Y-95818218D01*
X118089847Y-97476574D01*
X118245511Y-99156459D01*
X118245511Y-100843541D01*
X118089847Y-102523426D01*
X117912715Y-103470995D01*
X117152837Y-106231194D01*
X116708710Y-107377617D01*
X115956713Y-108887831D01*
X115068579Y-110322217D01*
X114921144Y-110517452D01*
X111424399Y-114236249D01*
X110322217Y-115068579D01*
X108887831Y-115956713D01*
X107377617Y-116708710D01*
X105804460Y-117318154D01*
X104181782Y-117779846D01*
X102523426Y-118089847D01*
X100843541Y-118245511D01*
X99156459Y-118245511D01*
X97476574Y-118089847D01*
X97315895Y-118059811D01*
X92342820Y-116569504D01*
X91112169Y-115956713D01*
X90091756Y-115324900D01*
X94038161Y-115324900D01*
X94038161Y-115528778D01*
X94077935Y-115728737D01*
X94155956Y-115917095D01*
X94269224Y-116086613D01*
X94413387Y-116230776D01*
X94582905Y-116344044D01*
X94771263Y-116422065D01*
X94971222Y-116461839D01*
X95175100Y-116461839D01*
X95375059Y-116422065D01*
X95563417Y-116344044D01*
X95732935Y-116230776D01*
X95877098Y-116086613D01*
X95990366Y-115917095D01*
X96068387Y-115728737D01*
X96108161Y-115528778D01*
X96108161Y-115324900D01*
X96068387Y-115124941D01*
X95990366Y-114936583D01*
X95877098Y-114767065D01*
X95732935Y-114622902D01*
X95563417Y-114509634D01*
X95375059Y-114431613D01*
X95206381Y-114398061D01*
X100965000Y-114398061D01*
X100965000Y-114601939D01*
X101004774Y-114801898D01*
X101082795Y-114990256D01*
X101196063Y-115159774D01*
X101340226Y-115303937D01*
X101509744Y-115417205D01*
X101698102Y-115495226D01*
X101898061Y-115535000D01*
X102101939Y-115535000D01*
X102301898Y-115495226D01*
X102490256Y-115417205D01*
X102659774Y-115303937D01*
X102803937Y-115159774D01*
X102917205Y-114990256D01*
X102973875Y-114853444D01*
X102965000Y-114898061D01*
X102965000Y-115101939D01*
X103004774Y-115301898D01*
X103082795Y-115490256D01*
X103196063Y-115659774D01*
X103340226Y-115803937D01*
X103509744Y-115917205D01*
X103698102Y-115995226D01*
X103898061Y-116035000D01*
X104101939Y-116035000D01*
X104301898Y-115995226D01*
X104490256Y-115917205D01*
X104659774Y-115803937D01*
X104803937Y-115659774D01*
X104917205Y-115490256D01*
X104995226Y-115301898D01*
X105035000Y-115101939D01*
X105035000Y-114898061D01*
X104995226Y-114698102D01*
X104917205Y-114509744D01*
X104803937Y-114340226D01*
X104659774Y-114196063D01*
X104490256Y-114082795D01*
X104301898Y-114004774D01*
X104101939Y-113965000D01*
X103898061Y-113965000D01*
X103698102Y-114004774D01*
X103509744Y-114082795D01*
X103340226Y-114196063D01*
X103196063Y-114340226D01*
X103082795Y-114509744D01*
X103026125Y-114646556D01*
X103035000Y-114601939D01*
X103035000Y-114398061D01*
X102995226Y-114198102D01*
X102917205Y-114009744D01*
X102803937Y-113840226D01*
X102659774Y-113696063D01*
X102490256Y-113582795D01*
X102301898Y-113504774D01*
X102101939Y-113465000D01*
X101898061Y-113465000D01*
X101698102Y-113504774D01*
X101509744Y-113582795D01*
X101340226Y-113696063D01*
X101196063Y-113840226D01*
X101082795Y-114009744D01*
X101004774Y-114198102D01*
X100965000Y-114398061D01*
X95206381Y-114398061D01*
X95175100Y-114391839D01*
X94971222Y-114391839D01*
X94771263Y-114431613D01*
X94582905Y-114509634D01*
X94413387Y-114622902D01*
X94269224Y-114767065D01*
X94155956Y-114936583D01*
X94077935Y-115124941D01*
X94038161Y-115324900D01*
X90091756Y-115324900D01*
X89677783Y-115068579D01*
X88331463Y-114051885D01*
X87200288Y-113020682D01*
X87077667Y-112898061D01*
X97465000Y-112898061D01*
X97465000Y-113101939D01*
X97504774Y-113301898D01*
X97582795Y-113490256D01*
X97696063Y-113659774D01*
X97840226Y-113803937D01*
X98009744Y-113917205D01*
X98198102Y-113995226D01*
X98398061Y-114035000D01*
X98601939Y-114035000D01*
X98801898Y-113995226D01*
X98990256Y-113917205D01*
X99159774Y-113803937D01*
X99303937Y-113659774D01*
X99417205Y-113490256D01*
X99460964Y-113384613D01*
X99509744Y-113417207D01*
X99698102Y-113495228D01*
X99898061Y-113535002D01*
X100101939Y-113535002D01*
X100301898Y-113495228D01*
X100490256Y-113417207D01*
X100659774Y-113303939D01*
X100803937Y-113159776D01*
X100917205Y-112990258D01*
X100995226Y-112801900D01*
X101035000Y-112601941D01*
X101035000Y-112398063D01*
X100995226Y-112198104D01*
X100917205Y-112009746D01*
X100803937Y-111840228D01*
X100659774Y-111696065D01*
X100490256Y-111582797D01*
X100301898Y-111504776D01*
X100101939Y-111465002D01*
X99898061Y-111465002D01*
X99698102Y-111504776D01*
X99509744Y-111582797D01*
X99340226Y-111696065D01*
X99196063Y-111840228D01*
X99082795Y-112009746D01*
X99039036Y-112115389D01*
X98990256Y-112082795D01*
X98801898Y-112004774D01*
X98601939Y-111965000D01*
X98398061Y-111965000D01*
X98198102Y-112004774D01*
X98009744Y-112082795D01*
X97840226Y-112196063D01*
X97696063Y-112340226D01*
X97582795Y-112509744D01*
X97504774Y-112698102D01*
X97465000Y-112898061D01*
X87077667Y-112898061D01*
X86979318Y-112799712D01*
X85948115Y-111668537D01*
X84998257Y-110410721D01*
X95477660Y-110410721D01*
X95477660Y-110614599D01*
X95517434Y-110814558D01*
X95595455Y-111002916D01*
X95708723Y-111172434D01*
X95852886Y-111316597D01*
X96022404Y-111429865D01*
X96210762Y-111507886D01*
X96410721Y-111547660D01*
X96614599Y-111547660D01*
X96814558Y-111507886D01*
X97002916Y-111429865D01*
X97172434Y-111316597D01*
X97316597Y-111172434D01*
X97429865Y-111002916D01*
X97507886Y-110814558D01*
X97547660Y-110614599D01*
X97547660Y-110410721D01*
X97507886Y-110210762D01*
X97429865Y-110022404D01*
X97413600Y-109998061D01*
X110565000Y-109998061D01*
X110565000Y-110201939D01*
X110604774Y-110401898D01*
X110682795Y-110590256D01*
X110796063Y-110759774D01*
X110940226Y-110903937D01*
X111109744Y-111017205D01*
X111298102Y-111095226D01*
X111498061Y-111135000D01*
X111701939Y-111135000D01*
X111901898Y-111095226D01*
X112090256Y-111017205D01*
X112259774Y-110903937D01*
X112403937Y-110759774D01*
X112517205Y-110590256D01*
X112595226Y-110401898D01*
X112635000Y-110201939D01*
X112635000Y-109998061D01*
X112595226Y-109798102D01*
X112517205Y-109609744D01*
X112403937Y-109440226D01*
X112259774Y-109296063D01*
X112090256Y-109182795D01*
X111901898Y-109104774D01*
X111701939Y-109065000D01*
X111498061Y-109065000D01*
X111298102Y-109104774D01*
X111109744Y-109182795D01*
X110940226Y-109296063D01*
X110796063Y-109440226D01*
X110682795Y-109609744D01*
X110604774Y-109798102D01*
X110565000Y-109998061D01*
X97413600Y-109998061D01*
X97316597Y-109852886D01*
X97172434Y-109708723D01*
X97002916Y-109595455D01*
X96814558Y-109517434D01*
X96614599Y-109477660D01*
X96410721Y-109477660D01*
X96210762Y-109517434D01*
X96022404Y-109595455D01*
X95852886Y-109708723D01*
X95708723Y-109852886D01*
X95595455Y-110022404D01*
X95517434Y-110210762D01*
X95477660Y-110410721D01*
X84998257Y-110410721D01*
X84931421Y-110322217D01*
X84043287Y-108887831D01*
X83428609Y-107653391D01*
X82943092Y-106035000D01*
X83101939Y-106035000D01*
X83301898Y-105995226D01*
X83490256Y-105917205D01*
X83518907Y-105898061D01*
X85465000Y-105898061D01*
X85465000Y-106101939D01*
X85504774Y-106301898D01*
X85582795Y-106490256D01*
X85696063Y-106659774D01*
X85840226Y-106803937D01*
X86009744Y-106917205D01*
X86198102Y-106995226D01*
X86398061Y-107035000D01*
X86601939Y-107035000D01*
X86801898Y-106995226D01*
X86990256Y-106917205D01*
X87159774Y-106803937D01*
X87303937Y-106659774D01*
X87417205Y-106490256D01*
X87495226Y-106301898D01*
X87530796Y-106123071D01*
X93992221Y-106123071D01*
X93992221Y-106326949D01*
X94031995Y-106526908D01*
X94110016Y-106715266D01*
X94223284Y-106884784D01*
X94367447Y-107028947D01*
X94536965Y-107142215D01*
X94725323Y-107220236D01*
X94925282Y-107260010D01*
X95129160Y-107260010D01*
X95329119Y-107220236D01*
X95517477Y-107142215D01*
X95686995Y-107028947D01*
X95831158Y-106884784D01*
X95944426Y-106715266D01*
X96013611Y-106548241D01*
X96082795Y-106715266D01*
X96196063Y-106884784D01*
X96340226Y-107028947D01*
X96509744Y-107142215D01*
X96698102Y-107220236D01*
X96898061Y-107260010D01*
X97101939Y-107260010D01*
X97287961Y-107223008D01*
X97183403Y-107327566D01*
X97070135Y-107497084D01*
X96992114Y-107685442D01*
X96952340Y-107885401D01*
X96952340Y-108089279D01*
X96992114Y-108289238D01*
X97070135Y-108477596D01*
X97183403Y-108647114D01*
X97327566Y-108791277D01*
X97497084Y-108904545D01*
X97685442Y-108982566D01*
X97885401Y-109022340D01*
X98089279Y-109022340D01*
X98289238Y-108982566D01*
X98477596Y-108904545D01*
X98647114Y-108791277D01*
X98791277Y-108647114D01*
X98904545Y-108477596D01*
X98982566Y-108289238D01*
X99022340Y-108089279D01*
X99022340Y-107885401D01*
X98982566Y-107685442D01*
X98904545Y-107497084D01*
X98791277Y-107327566D01*
X98647114Y-107183403D01*
X98477596Y-107070135D01*
X98289238Y-106992114D01*
X98089279Y-106952340D01*
X97885401Y-106952340D01*
X97699379Y-106989342D01*
X97803937Y-106884784D01*
X97917205Y-106715266D01*
X97995226Y-106526908D01*
X98020855Y-106398057D01*
X98965000Y-106398057D01*
X98965000Y-106601935D01*
X99004774Y-106801894D01*
X99082795Y-106990252D01*
X99196063Y-107159770D01*
X99340226Y-107303933D01*
X99509744Y-107417201D01*
X99698102Y-107495222D01*
X99898061Y-107534996D01*
X100101939Y-107534996D01*
X100111428Y-107533109D01*
X100196063Y-107659774D01*
X100340226Y-107803937D01*
X100509744Y-107917205D01*
X100698102Y-107995226D01*
X100898061Y-108035000D01*
X101101939Y-108035000D01*
X101301898Y-107995226D01*
X101490256Y-107917205D01*
X101659774Y-107803937D01*
X101803937Y-107659774D01*
X101917205Y-107490256D01*
X101995226Y-107301898D01*
X102035000Y-107101939D01*
X102035000Y-106898061D01*
X104465000Y-106898061D01*
X104465000Y-107101939D01*
X104504774Y-107301898D01*
X104582795Y-107490256D01*
X104696063Y-107659774D01*
X104840226Y-107803937D01*
X105009744Y-107917205D01*
X105198102Y-107995226D01*
X105398061Y-108035000D01*
X105601939Y-108035000D01*
X105801898Y-107995226D01*
X105990256Y-107917205D01*
X106159774Y-107803937D01*
X106303937Y-107659774D01*
X106417205Y-107490256D01*
X106495226Y-107301898D01*
X106535000Y-107101939D01*
X106535000Y-106898061D01*
X106495226Y-106698102D01*
X106417205Y-106509744D01*
X106303937Y-106340226D01*
X106159774Y-106196063D01*
X105990256Y-106082795D01*
X105801898Y-106004774D01*
X105601939Y-105965000D01*
X105398061Y-105965000D01*
X105198102Y-106004774D01*
X105009744Y-106082795D01*
X104840226Y-106196063D01*
X104696063Y-106340226D01*
X104582795Y-106509744D01*
X104504774Y-106698102D01*
X104465000Y-106898061D01*
X102035000Y-106898061D01*
X101995226Y-106698102D01*
X101917205Y-106509744D01*
X101803937Y-106340226D01*
X101659774Y-106196063D01*
X101490256Y-106082795D01*
X101301898Y-106004774D01*
X101101939Y-105965000D01*
X100898061Y-105965000D01*
X100888572Y-105966887D01*
X100803937Y-105840222D01*
X100659774Y-105696059D01*
X100490256Y-105582791D01*
X100301898Y-105504770D01*
X100101939Y-105464996D01*
X99898061Y-105464996D01*
X99698102Y-105504770D01*
X99509744Y-105582791D01*
X99340226Y-105696059D01*
X99196063Y-105840222D01*
X99082795Y-106009740D01*
X99004774Y-106198098D01*
X98965000Y-106398057D01*
X98020855Y-106398057D01*
X98035000Y-106326949D01*
X98035000Y-106123071D01*
X97995226Y-105923112D01*
X97917205Y-105734754D01*
X97803937Y-105565236D01*
X97659774Y-105421073D01*
X97490256Y-105307805D01*
X97301898Y-105229784D01*
X97101939Y-105190010D01*
X96898061Y-105190010D01*
X96698102Y-105229784D01*
X96509744Y-105307805D01*
X96340226Y-105421073D01*
X96196063Y-105565236D01*
X96082795Y-105734754D01*
X96013611Y-105901779D01*
X95944426Y-105734754D01*
X95831158Y-105565236D01*
X95686995Y-105421073D01*
X95517477Y-105307805D01*
X95329119Y-105229784D01*
X95129160Y-105190010D01*
X94925282Y-105190010D01*
X94725323Y-105229784D01*
X94536965Y-105307805D01*
X94367447Y-105421073D01*
X94223284Y-105565236D01*
X94110016Y-105734754D01*
X94031995Y-105923112D01*
X93992221Y-106123071D01*
X87530796Y-106123071D01*
X87535000Y-106101939D01*
X87535000Y-105898061D01*
X87495226Y-105698102D01*
X87417205Y-105509744D01*
X87303937Y-105340226D01*
X87159774Y-105196063D01*
X86990256Y-105082795D01*
X86801898Y-105004774D01*
X86601939Y-104965000D01*
X86398061Y-104965000D01*
X86198102Y-105004774D01*
X86009744Y-105082795D01*
X85840226Y-105196063D01*
X85696063Y-105340226D01*
X85582795Y-105509744D01*
X85504774Y-105698102D01*
X85465000Y-105898061D01*
X83518907Y-105898061D01*
X83659774Y-105803937D01*
X83803937Y-105659774D01*
X83917205Y-105490256D01*
X83995226Y-105301898D01*
X84010850Y-105223350D01*
X84089398Y-105207726D01*
X84277756Y-105129705D01*
X84447274Y-105016437D01*
X84565650Y-104898061D01*
X88965000Y-104898061D01*
X88965000Y-105101939D01*
X89004774Y-105301898D01*
X89082795Y-105490256D01*
X89196063Y-105659774D01*
X89340226Y-105803937D01*
X89509744Y-105917205D01*
X89698102Y-105995226D01*
X89898061Y-106035000D01*
X90101939Y-106035000D01*
X90301898Y-105995226D01*
X90490256Y-105917205D01*
X90659774Y-105803937D01*
X90803937Y-105659774D01*
X90917205Y-105490256D01*
X90995226Y-105301898D01*
X91035000Y-105101939D01*
X91035000Y-104898061D01*
X109465000Y-104898061D01*
X109465000Y-105101939D01*
X109504774Y-105301898D01*
X109582795Y-105490256D01*
X109696063Y-105659774D01*
X109840226Y-105803937D01*
X110009744Y-105917205D01*
X110198102Y-105995226D01*
X110398061Y-106035000D01*
X110594499Y-106035000D01*
X110648815Y-106101185D01*
X110745506Y-106180537D01*
X110855820Y-106239502D01*
X110975518Y-106275812D01*
X111100000Y-106288072D01*
X111214250Y-106285000D01*
X111373000Y-106126250D01*
X111373000Y-105556414D01*
X111417205Y-105490256D01*
X111495226Y-105301898D01*
X111535000Y-105101939D01*
X111535000Y-104898061D01*
X111495226Y-104698102D01*
X111417205Y-104509744D01*
X111373000Y-104443586D01*
X111373000Y-103873750D01*
X111627000Y-103873750D01*
X111627000Y-104873000D01*
X111647000Y-104873000D01*
X111647000Y-105127000D01*
X111627000Y-105127000D01*
X111627000Y-106126250D01*
X111785750Y-106285000D01*
X111900000Y-106288072D01*
X112024482Y-106275812D01*
X112144180Y-106239502D01*
X112254494Y-106180537D01*
X112270594Y-106167324D01*
X112352008Y-106210841D01*
X112547106Y-106270024D01*
X112750000Y-106290007D01*
X112952895Y-106270024D01*
X113147993Y-106210841D01*
X113327797Y-106114734D01*
X113485396Y-105985396D01*
X113557069Y-105898061D01*
X114965000Y-105898061D01*
X114965000Y-106101939D01*
X115004774Y-106301898D01*
X115082795Y-106490256D01*
X115196063Y-106659774D01*
X115340226Y-106803937D01*
X115509744Y-106917205D01*
X115698102Y-106995226D01*
X115898061Y-107035000D01*
X116101939Y-107035000D01*
X116301898Y-106995226D01*
X116490256Y-106917205D01*
X116659774Y-106803937D01*
X116803937Y-106659774D01*
X116917205Y-106490256D01*
X116995226Y-106301898D01*
X117035000Y-106101939D01*
X117035000Y-105898061D01*
X116995226Y-105698102D01*
X116917205Y-105509744D01*
X116803937Y-105340226D01*
X116659774Y-105196063D01*
X116490256Y-105082795D01*
X116301898Y-105004774D01*
X116101939Y-104965000D01*
X115898061Y-104965000D01*
X115698102Y-105004774D01*
X115509744Y-105082795D01*
X115340226Y-105196063D01*
X115196063Y-105340226D01*
X115082795Y-105509744D01*
X115004774Y-105698102D01*
X114965000Y-105898061D01*
X113557069Y-105898061D01*
X113614734Y-105827797D01*
X113710841Y-105647992D01*
X113770024Y-105452894D01*
X113785000Y-105300837D01*
X113785000Y-104699162D01*
X113770024Y-104547105D01*
X113710841Y-104352007D01*
X113614734Y-104172203D01*
X113485396Y-104014604D01*
X113327797Y-103885266D01*
X113147992Y-103789159D01*
X112952894Y-103729976D01*
X112750000Y-103709993D01*
X112547105Y-103729976D01*
X112352007Y-103789159D01*
X112270593Y-103832675D01*
X112254494Y-103819463D01*
X112144180Y-103760498D01*
X112024482Y-103724188D01*
X111900000Y-103711928D01*
X111785750Y-103715000D01*
X111627000Y-103873750D01*
X111373000Y-103873750D01*
X111214250Y-103715000D01*
X111100000Y-103711928D01*
X110975518Y-103724188D01*
X110855820Y-103760498D01*
X110745506Y-103819463D01*
X110648815Y-103898815D01*
X110594499Y-103965000D01*
X110398061Y-103965000D01*
X110198102Y-104004774D01*
X110009744Y-104082795D01*
X109840226Y-104196063D01*
X109696063Y-104340226D01*
X109582795Y-104509744D01*
X109504774Y-104698102D01*
X109465000Y-104898061D01*
X91035000Y-104898061D01*
X90995226Y-104698102D01*
X90917205Y-104509744D01*
X90803937Y-104340226D01*
X90659774Y-104196063D01*
X90490256Y-104082795D01*
X90301898Y-104004774D01*
X90101939Y-103965000D01*
X89898061Y-103965000D01*
X89698102Y-104004774D01*
X89509744Y-104082795D01*
X89340226Y-104196063D01*
X89196063Y-104340226D01*
X89082795Y-104509744D01*
X89004774Y-104698102D01*
X88965000Y-104898061D01*
X84565650Y-104898061D01*
X84591437Y-104872274D01*
X84704705Y-104702756D01*
X84782726Y-104514398D01*
X84822500Y-104314439D01*
X84822500Y-104110561D01*
X84782726Y-103910602D01*
X84704705Y-103722244D01*
X84591437Y-103552726D01*
X84447274Y-103408563D01*
X84431557Y-103398061D01*
X94965000Y-103398061D01*
X94965000Y-103601939D01*
X95004774Y-103801898D01*
X95082795Y-103990256D01*
X95196063Y-104159774D01*
X95340226Y-104303937D01*
X95509744Y-104417205D01*
X95698102Y-104495226D01*
X95898061Y-104535000D01*
X96101939Y-104535000D01*
X96301898Y-104495226D01*
X96490256Y-104417205D01*
X96659774Y-104303937D01*
X96803937Y-104159774D01*
X96917205Y-103990256D01*
X96995226Y-103801898D01*
X97035000Y-103601939D01*
X97035000Y-103398061D01*
X96995226Y-103198102D01*
X96917205Y-103009744D01*
X96803937Y-102840226D01*
X96659774Y-102696063D01*
X96490256Y-102582795D01*
X96301898Y-102504774D01*
X96101939Y-102465000D01*
X95898061Y-102465000D01*
X95698102Y-102504774D01*
X95509744Y-102582795D01*
X95340226Y-102696063D01*
X95196063Y-102840226D01*
X95082795Y-103009744D01*
X95004774Y-103198102D01*
X94965000Y-103398061D01*
X84431557Y-103398061D01*
X84277756Y-103295295D01*
X84089398Y-103217274D01*
X83889439Y-103177500D01*
X83685561Y-103177500D01*
X83485602Y-103217274D01*
X83297244Y-103295295D01*
X83127726Y-103408563D01*
X82983563Y-103552726D01*
X82870295Y-103722244D01*
X82792274Y-103910602D01*
X82776650Y-103989150D01*
X82698102Y-104004774D01*
X82509744Y-104082795D01*
X82382864Y-104167573D01*
X81944101Y-102705031D01*
X81910153Y-102523426D01*
X81877687Y-102173051D01*
X98465000Y-102173051D01*
X98465000Y-102376929D01*
X98504774Y-102576888D01*
X98582795Y-102765246D01*
X98696063Y-102934764D01*
X98840226Y-103078927D01*
X99009744Y-103192195D01*
X99198102Y-103270216D01*
X99398061Y-103309990D01*
X99508126Y-103309990D01*
X99582795Y-103490256D01*
X99696063Y-103659774D01*
X99840226Y-103803937D01*
X100009744Y-103917205D01*
X100198102Y-103995226D01*
X100398061Y-104035000D01*
X100601939Y-104035000D01*
X100801898Y-103995226D01*
X100990256Y-103917205D01*
X101159774Y-103803937D01*
X101303937Y-103659774D01*
X101417205Y-103490256D01*
X101495226Y-103301898D01*
X101535000Y-103101939D01*
X101535000Y-102898061D01*
X101509984Y-102772293D01*
X104297821Y-102772293D01*
X104297821Y-102976171D01*
X104337595Y-103176130D01*
X104415616Y-103364488D01*
X104528884Y-103534006D01*
X104673047Y-103678169D01*
X104842565Y-103791437D01*
X105030923Y-103869458D01*
X105230882Y-103909232D01*
X105434760Y-103909232D01*
X105634719Y-103869458D01*
X105823077Y-103791437D01*
X105992595Y-103678169D01*
X106136758Y-103534006D01*
X106250026Y-103364488D01*
X106328047Y-103176130D01*
X106367821Y-102976171D01*
X106367821Y-102772293D01*
X106328047Y-102572334D01*
X106250026Y-102383976D01*
X106136758Y-102214458D01*
X105992595Y-102070295D01*
X105823077Y-101957027D01*
X105634719Y-101879006D01*
X105434760Y-101839232D01*
X105230882Y-101839232D01*
X105030923Y-101879006D01*
X104842565Y-101957027D01*
X104673047Y-102070295D01*
X104528884Y-102214458D01*
X104415616Y-102383976D01*
X104337595Y-102572334D01*
X104297821Y-102772293D01*
X101509984Y-102772293D01*
X101495226Y-102698102D01*
X101417205Y-102509744D01*
X101303937Y-102340226D01*
X101213711Y-102250000D01*
X101303937Y-102159774D01*
X101417205Y-101990256D01*
X101495226Y-101801898D01*
X101535000Y-101601939D01*
X101535000Y-101398061D01*
X101495226Y-101198102D01*
X101417205Y-101009744D01*
X101342582Y-100898061D01*
X107965000Y-100898061D01*
X107965000Y-101101939D01*
X108004774Y-101301898D01*
X108082795Y-101490256D01*
X108196063Y-101659774D01*
X108340226Y-101803937D01*
X108509744Y-101917205D01*
X108698102Y-101995226D01*
X108898061Y-102035000D01*
X109101939Y-102035000D01*
X109301898Y-101995226D01*
X109490256Y-101917205D01*
X109659774Y-101803937D01*
X109803937Y-101659774D01*
X109917205Y-101490256D01*
X109995226Y-101301898D01*
X110035000Y-101101939D01*
X110035000Y-100898061D01*
X109995226Y-100698102D01*
X109917205Y-100509744D01*
X109803937Y-100340226D01*
X109659774Y-100196063D01*
X109490256Y-100082795D01*
X109301898Y-100004774D01*
X109101939Y-99965000D01*
X108898061Y-99965000D01*
X108698102Y-100004774D01*
X108509744Y-100082795D01*
X108340226Y-100196063D01*
X108196063Y-100340226D01*
X108082795Y-100509744D01*
X108004774Y-100698102D01*
X107965000Y-100898061D01*
X101342582Y-100898061D01*
X101303937Y-100840226D01*
X101159774Y-100696063D01*
X100990256Y-100582795D01*
X100801898Y-100504774D01*
X100601939Y-100465000D01*
X100398061Y-100465000D01*
X100198102Y-100504774D01*
X100009744Y-100582795D01*
X99840226Y-100696063D01*
X99696063Y-100840226D01*
X99582795Y-101009744D01*
X99504774Y-101198102D01*
X99496442Y-101239990D01*
X99398061Y-101239990D01*
X99198102Y-101279764D01*
X99009744Y-101357785D01*
X98840226Y-101471053D01*
X98696063Y-101615216D01*
X98582795Y-101784734D01*
X98504774Y-101973092D01*
X98465000Y-102173051D01*
X81877687Y-102173051D01*
X81759542Y-100898061D01*
X85465000Y-100898061D01*
X85465000Y-101101939D01*
X85504774Y-101301898D01*
X85582795Y-101490256D01*
X85696063Y-101659774D01*
X85840226Y-101803937D01*
X86009744Y-101917205D01*
X86198102Y-101995226D01*
X86398061Y-102035000D01*
X86601939Y-102035000D01*
X86801898Y-101995226D01*
X86990256Y-101917205D01*
X87159774Y-101803937D01*
X87303937Y-101659774D01*
X87417205Y-101490256D01*
X87495226Y-101301898D01*
X87535000Y-101101939D01*
X87535000Y-100898061D01*
X87495226Y-100698102D01*
X87417205Y-100509744D01*
X87303937Y-100340226D01*
X87159774Y-100196063D01*
X87055019Y-100126068D01*
X95750180Y-100126068D01*
X95750180Y-100329946D01*
X95789954Y-100529905D01*
X95867975Y-100718263D01*
X95981243Y-100887781D01*
X96125406Y-101031944D01*
X96294924Y-101145212D01*
X96483282Y-101223233D01*
X96683241Y-101263007D01*
X96887119Y-101263007D01*
X97087078Y-101223233D01*
X97275436Y-101145212D01*
X97444954Y-101031944D01*
X97589117Y-100887781D01*
X97702385Y-100718263D01*
X97780406Y-100529905D01*
X97820180Y-100329946D01*
X97820180Y-100126068D01*
X97780406Y-99926109D01*
X97702385Y-99737751D01*
X97589117Y-99568233D01*
X97444954Y-99424070D01*
X97275436Y-99310802D01*
X97087078Y-99232781D01*
X96887119Y-99193007D01*
X96683241Y-99193007D01*
X96483282Y-99232781D01*
X96294924Y-99310802D01*
X96125406Y-99424070D01*
X95981243Y-99568233D01*
X95867975Y-99737751D01*
X95789954Y-99926109D01*
X95750180Y-100126068D01*
X87055019Y-100126068D01*
X86990256Y-100082795D01*
X86801898Y-100004774D01*
X86601939Y-99965000D01*
X86398061Y-99965000D01*
X86198102Y-100004774D01*
X86009744Y-100082795D01*
X85840226Y-100196063D01*
X85696063Y-100340226D01*
X85582795Y-100509744D01*
X85504774Y-100698102D01*
X85465000Y-100898061D01*
X81759542Y-100898061D01*
X81754489Y-100843541D01*
X81754489Y-99156459D01*
X81871096Y-97898061D01*
X81965000Y-97898061D01*
X81965000Y-98101939D01*
X82004774Y-98301898D01*
X82082795Y-98490256D01*
X82196063Y-98659774D01*
X82340226Y-98803937D01*
X82509744Y-98917205D01*
X82698102Y-98995226D01*
X82898061Y-99035000D01*
X82984907Y-99035000D01*
X83007795Y-99090256D01*
X83121063Y-99259774D01*
X83265226Y-99403937D01*
X83434744Y-99517205D01*
X83623102Y-99595226D01*
X83823061Y-99635000D01*
X84026939Y-99635000D01*
X84226898Y-99595226D01*
X84415256Y-99517205D01*
X84584774Y-99403937D01*
X84728937Y-99259774D01*
X84842205Y-99090256D01*
X84920226Y-98901898D01*
X84960000Y-98701939D01*
X84960000Y-98498061D01*
X84920226Y-98298102D01*
X84842205Y-98109744D01*
X84728937Y-97940226D01*
X84676923Y-97888212D01*
X89865000Y-97888212D01*
X89865000Y-98111788D01*
X89908617Y-98331067D01*
X89994176Y-98537624D01*
X90118388Y-98723520D01*
X90276480Y-98881612D01*
X90462376Y-99005824D01*
X90668933Y-99091383D01*
X90888212Y-99135000D01*
X91111788Y-99135000D01*
X91331067Y-99091383D01*
X91537624Y-99005824D01*
X91723520Y-98881612D01*
X91881612Y-98723520D01*
X91950000Y-98621170D01*
X92018388Y-98723520D01*
X92176480Y-98881612D01*
X92362376Y-99005824D01*
X92568933Y-99091383D01*
X92788212Y-99135000D01*
X93011788Y-99135000D01*
X93231067Y-99091383D01*
X93437624Y-99005824D01*
X93623520Y-98881612D01*
X93781612Y-98723520D01*
X93905824Y-98537624D01*
X93991383Y-98331067D01*
X94035000Y-98111788D01*
X94035000Y-97888212D01*
X93991383Y-97668933D01*
X93905824Y-97462376D01*
X93862850Y-97398061D01*
X96965000Y-97398061D01*
X96965000Y-97601939D01*
X97004774Y-97801898D01*
X97082795Y-97990256D01*
X97196063Y-98159774D01*
X97340226Y-98303937D01*
X97509744Y-98417205D01*
X97698102Y-98495226D01*
X97898061Y-98535000D01*
X98101939Y-98535000D01*
X98301898Y-98495226D01*
X98490256Y-98417205D01*
X98659774Y-98303937D01*
X98803937Y-98159774D01*
X98917205Y-97990256D01*
X98995226Y-97801898D01*
X99035000Y-97601939D01*
X99035000Y-97398061D01*
X99965000Y-97398061D01*
X99965000Y-97601939D01*
X100004774Y-97801898D01*
X100082795Y-97990256D01*
X100196063Y-98159774D01*
X100340226Y-98303937D01*
X100509744Y-98417205D01*
X100698102Y-98495226D01*
X100898061Y-98535000D01*
X101101939Y-98535000D01*
X101301898Y-98495226D01*
X101490256Y-98417205D01*
X101659774Y-98303937D01*
X101803937Y-98159774D01*
X101917205Y-97990256D01*
X101995226Y-97801898D01*
X101999998Y-97777909D01*
X102004770Y-97801902D01*
X102082791Y-97990260D01*
X102196059Y-98159778D01*
X102340222Y-98303941D01*
X102509740Y-98417209D01*
X102698098Y-98495230D01*
X102898057Y-98535004D01*
X103101935Y-98535004D01*
X103301894Y-98495230D01*
X103490252Y-98417209D01*
X103659770Y-98303941D01*
X103803933Y-98159778D01*
X103917201Y-97990260D01*
X103995222Y-97801902D01*
X104034996Y-97601943D01*
X104034996Y-97398065D01*
X103995222Y-97198106D01*
X103917201Y-97009748D01*
X103803933Y-96840230D01*
X103659770Y-96696067D01*
X103490252Y-96582799D01*
X103301894Y-96504778D01*
X103101935Y-96465004D01*
X102898057Y-96465004D01*
X102698098Y-96504778D01*
X102509740Y-96582799D01*
X102340222Y-96696067D01*
X102196059Y-96840230D01*
X102082791Y-97009748D01*
X102004770Y-97198106D01*
X101999998Y-97222095D01*
X101995226Y-97198102D01*
X101917205Y-97009744D01*
X101803937Y-96840226D01*
X101659774Y-96696063D01*
X101490256Y-96582795D01*
X101301898Y-96504774D01*
X101101939Y-96465000D01*
X100898061Y-96465000D01*
X100698102Y-96504774D01*
X100509744Y-96582795D01*
X100340226Y-96696063D01*
X100196063Y-96840226D01*
X100082795Y-97009744D01*
X100004774Y-97198102D01*
X99965000Y-97398061D01*
X99035000Y-97398061D01*
X98995226Y-97198102D01*
X98917205Y-97009744D01*
X98803937Y-96840226D01*
X98659774Y-96696063D01*
X98490256Y-96582795D01*
X98301898Y-96504774D01*
X98101939Y-96465000D01*
X97898061Y-96465000D01*
X97698102Y-96504774D01*
X97509744Y-96582795D01*
X97340226Y-96696063D01*
X97196063Y-96840226D01*
X97082795Y-97009744D01*
X97004774Y-97198102D01*
X96965000Y-97398061D01*
X93862850Y-97398061D01*
X93781612Y-97276480D01*
X93623520Y-97118388D01*
X93437624Y-96994176D01*
X93231067Y-96908617D01*
X93011788Y-96865000D01*
X92788212Y-96865000D01*
X92568933Y-96908617D01*
X92362376Y-96994176D01*
X92176480Y-97118388D01*
X92018388Y-97276480D01*
X91950000Y-97378830D01*
X91881612Y-97276480D01*
X91723520Y-97118388D01*
X91537624Y-96994176D01*
X91331067Y-96908617D01*
X91111788Y-96865000D01*
X90888212Y-96865000D01*
X90668933Y-96908617D01*
X90462376Y-96994176D01*
X90276480Y-97118388D01*
X90118388Y-97276480D01*
X89994176Y-97462376D01*
X89908617Y-97668933D01*
X89865000Y-97888212D01*
X84676923Y-97888212D01*
X84584774Y-97796063D01*
X84415256Y-97682795D01*
X84226898Y-97604774D01*
X84026939Y-97565000D01*
X83940093Y-97565000D01*
X83917205Y-97509744D01*
X83803937Y-97340226D01*
X83659774Y-97196063D01*
X83490256Y-97082795D01*
X83301898Y-97004774D01*
X83101939Y-96965000D01*
X82898061Y-96965000D01*
X82698102Y-97004774D01*
X82509744Y-97082795D01*
X82340226Y-97196063D01*
X82196063Y-97340226D01*
X82082795Y-97509744D01*
X82004774Y-97698102D01*
X81965000Y-97898061D01*
X81871096Y-97898061D01*
X81910153Y-97476574D01*
X82111762Y-96398061D01*
X107965000Y-96398061D01*
X107965000Y-96601939D01*
X108004774Y-96801898D01*
X108082795Y-96990256D01*
X108196063Y-97159774D01*
X108286289Y-97250000D01*
X108196063Y-97340226D01*
X108082795Y-97509744D01*
X108004774Y-97698102D01*
X107965000Y-97898061D01*
X107965000Y-98101939D01*
X108004774Y-98301898D01*
X108082795Y-98490256D01*
X108196063Y-98659774D01*
X108340226Y-98803937D01*
X108509744Y-98917205D01*
X108698102Y-98995226D01*
X108898061Y-99035000D01*
X109101939Y-99035000D01*
X109301898Y-98995226D01*
X109490256Y-98917205D01*
X109659774Y-98803937D01*
X109803937Y-98659774D01*
X109917205Y-98490256D01*
X109995226Y-98301898D01*
X110035000Y-98101939D01*
X110035000Y-97898061D01*
X109995226Y-97698102D01*
X109917205Y-97509744D01*
X109803937Y-97340226D01*
X109713711Y-97250000D01*
X109803937Y-97159774D01*
X109917205Y-96990256D01*
X109995226Y-96801898D01*
X110035000Y-96601939D01*
X110035000Y-96398061D01*
X109995226Y-96198102D01*
X109917205Y-96009744D01*
X109842582Y-95898061D01*
X110964970Y-95898061D01*
X110964970Y-96101939D01*
X111004744Y-96301898D01*
X111082765Y-96490256D01*
X111196033Y-96659774D01*
X111340196Y-96803937D01*
X111509714Y-96917205D01*
X111698072Y-96995226D01*
X111898031Y-97035000D01*
X112101909Y-97035000D01*
X112301868Y-96995226D01*
X112490226Y-96917205D01*
X112518877Y-96898061D01*
X113465000Y-96898061D01*
X113465000Y-97101939D01*
X113504774Y-97301898D01*
X113582795Y-97490256D01*
X113696063Y-97659774D01*
X113840226Y-97803937D01*
X114009744Y-97917205D01*
X114198102Y-97995226D01*
X114398061Y-98035000D01*
X114601939Y-98035000D01*
X114801898Y-97995226D01*
X114990256Y-97917205D01*
X115159774Y-97803937D01*
X115303937Y-97659774D01*
X115417205Y-97490256D01*
X115495226Y-97301898D01*
X115535000Y-97101939D01*
X115535000Y-96898061D01*
X115495226Y-96698102D01*
X115417205Y-96509744D01*
X115303937Y-96340226D01*
X115159774Y-96196063D01*
X114990256Y-96082795D01*
X114801898Y-96004774D01*
X114601939Y-95965000D01*
X114398061Y-95965000D01*
X114198102Y-96004774D01*
X114009744Y-96082795D01*
X113840226Y-96196063D01*
X113696063Y-96340226D01*
X113582795Y-96509744D01*
X113504774Y-96698102D01*
X113465000Y-96898061D01*
X112518877Y-96898061D01*
X112659744Y-96803937D01*
X112803907Y-96659774D01*
X112917175Y-96490256D01*
X112995196Y-96301898D01*
X113034970Y-96101939D01*
X113034970Y-95898061D01*
X112995196Y-95698102D01*
X112917175Y-95509744D01*
X112803907Y-95340226D01*
X112659744Y-95196063D01*
X112490226Y-95082795D01*
X112301868Y-95004774D01*
X112101909Y-94965000D01*
X111898031Y-94965000D01*
X111698072Y-95004774D01*
X111509714Y-95082795D01*
X111340196Y-95196063D01*
X111196033Y-95340226D01*
X111082765Y-95509744D01*
X111004744Y-95698102D01*
X110964970Y-95898061D01*
X109842582Y-95898061D01*
X109803937Y-95840226D01*
X109659774Y-95696063D01*
X109490256Y-95582795D01*
X109301898Y-95504774D01*
X109101939Y-95465000D01*
X108898061Y-95465000D01*
X108698102Y-95504774D01*
X108509744Y-95582795D01*
X108340226Y-95696063D01*
X108196063Y-95840226D01*
X108082795Y-96009744D01*
X108004774Y-96198102D01*
X107965000Y-96398061D01*
X82111762Y-96398061D01*
X82220154Y-95818218D01*
X82481961Y-94898061D01*
X104465000Y-94898061D01*
X104465000Y-95101939D01*
X104504774Y-95301898D01*
X104582795Y-95490256D01*
X104696063Y-95659774D01*
X104840226Y-95803937D01*
X105009744Y-95917205D01*
X105198102Y-95995226D01*
X105398061Y-96035000D01*
X105601939Y-96035000D01*
X105801898Y-95995226D01*
X105990256Y-95917205D01*
X106159774Y-95803937D01*
X106303937Y-95659774D01*
X106417205Y-95490256D01*
X106495226Y-95301898D01*
X106535000Y-95101939D01*
X106535000Y-94898061D01*
X106495226Y-94698102D01*
X106417205Y-94509744D01*
X106303937Y-94340226D01*
X106159774Y-94196063D01*
X105990256Y-94082795D01*
X105801898Y-94004774D01*
X105601939Y-93965000D01*
X105398061Y-93965000D01*
X105198102Y-94004774D01*
X105009744Y-94082795D01*
X104840226Y-94196063D01*
X104696063Y-94340226D01*
X104582795Y-94509744D01*
X104504774Y-94698102D01*
X104465000Y-94898061D01*
X82481961Y-94898061D01*
X82681846Y-94195540D01*
X83291290Y-92622383D01*
X83651959Y-91898061D01*
X96965000Y-91898061D01*
X96965000Y-92101939D01*
X97004774Y-92301898D01*
X97082795Y-92490256D01*
X97196063Y-92659774D01*
X97340226Y-92803937D01*
X97509744Y-92917205D01*
X97698102Y-92995226D01*
X97898061Y-93035000D01*
X98101939Y-93035000D01*
X98301898Y-92995226D01*
X98490256Y-92917205D01*
X98659774Y-92803937D01*
X98803937Y-92659774D01*
X98917205Y-92490256D01*
X98955393Y-92398061D01*
X99965000Y-92398061D01*
X99965000Y-92601939D01*
X100004774Y-92801898D01*
X100082795Y-92990256D01*
X100196063Y-93159774D01*
X100340226Y-93303937D01*
X100509744Y-93417205D01*
X100698102Y-93495226D01*
X100898061Y-93535000D01*
X101101939Y-93535000D01*
X101301898Y-93495226D01*
X101490256Y-93417205D01*
X101659774Y-93303937D01*
X101803937Y-93159774D01*
X101917205Y-92990256D01*
X101960637Y-92885401D01*
X110477660Y-92885401D01*
X110477660Y-93089279D01*
X110517434Y-93289238D01*
X110595455Y-93477596D01*
X110708723Y-93647114D01*
X110852886Y-93791277D01*
X111022404Y-93904545D01*
X111210762Y-93982566D01*
X111410721Y-94022340D01*
X111614599Y-94022340D01*
X111814558Y-93982566D01*
X112002916Y-93904545D01*
X112172434Y-93791277D01*
X112316597Y-93647114D01*
X112429865Y-93477596D01*
X112507886Y-93289238D01*
X112547660Y-93089279D01*
X112547660Y-92885401D01*
X112507886Y-92685442D01*
X112429865Y-92497084D01*
X112316597Y-92327566D01*
X112172434Y-92183403D01*
X112002916Y-92070135D01*
X111814558Y-91992114D01*
X111614599Y-91952340D01*
X111410721Y-91952340D01*
X111210762Y-91992114D01*
X111022404Y-92070135D01*
X110852886Y-92183403D01*
X110708723Y-92327566D01*
X110595455Y-92497084D01*
X110517434Y-92685442D01*
X110477660Y-92885401D01*
X101960637Y-92885401D01*
X101995226Y-92801898D01*
X102035000Y-92601939D01*
X102035000Y-92398061D01*
X101995226Y-92198102D01*
X101917205Y-92009744D01*
X101803937Y-91840226D01*
X101659774Y-91696063D01*
X101490256Y-91582795D01*
X101301898Y-91504774D01*
X101101939Y-91465000D01*
X100898061Y-91465000D01*
X100698102Y-91504774D01*
X100509744Y-91582795D01*
X100340226Y-91696063D01*
X100196063Y-91840226D01*
X100082795Y-92009744D01*
X100004774Y-92198102D01*
X99965000Y-92398061D01*
X98955393Y-92398061D01*
X98995226Y-92301898D01*
X99035000Y-92101939D01*
X99035000Y-91898061D01*
X98995226Y-91698102D01*
X98917205Y-91509744D01*
X98842582Y-91398061D01*
X103715000Y-91398061D01*
X103715000Y-91601939D01*
X103754774Y-91801898D01*
X103832795Y-91990256D01*
X103946063Y-92159774D01*
X104090226Y-92303937D01*
X104259744Y-92417205D01*
X104448102Y-92495226D01*
X104648061Y-92535000D01*
X104851939Y-92535000D01*
X105051898Y-92495226D01*
X105240256Y-92417205D01*
X105409774Y-92303937D01*
X105553937Y-92159774D01*
X105667205Y-91990256D01*
X105745226Y-91801898D01*
X105785000Y-91601939D01*
X105785000Y-91398061D01*
X105745226Y-91198102D01*
X105667205Y-91009744D01*
X105553937Y-90840226D01*
X105409774Y-90696063D01*
X105240256Y-90582795D01*
X105051898Y-90504774D01*
X104851939Y-90465000D01*
X104648061Y-90465000D01*
X104448102Y-90504774D01*
X104259744Y-90582795D01*
X104090226Y-90696063D01*
X103946063Y-90840226D01*
X103832795Y-91009744D01*
X103754774Y-91198102D01*
X103715000Y-91398061D01*
X98842582Y-91398061D01*
X98803937Y-91340226D01*
X98659774Y-91196063D01*
X98490256Y-91082795D01*
X98301898Y-91004774D01*
X98101939Y-90965000D01*
X97898061Y-90965000D01*
X97698102Y-91004774D01*
X97509744Y-91082795D01*
X97340226Y-91196063D01*
X97196063Y-91340226D01*
X97082795Y-91509744D01*
X97004774Y-91698102D01*
X96965000Y-91898061D01*
X83651959Y-91898061D01*
X84043287Y-91112169D01*
X84931421Y-89677783D01*
X85520239Y-88898061D01*
X86965000Y-88898061D01*
X86965000Y-89101939D01*
X87004774Y-89301898D01*
X87082795Y-89490256D01*
X87196063Y-89659774D01*
X87340226Y-89803937D01*
X87509744Y-89917205D01*
X87698102Y-89995226D01*
X87898061Y-90035000D01*
X88101939Y-90035000D01*
X88301898Y-89995226D01*
X88490256Y-89917205D01*
X88659774Y-89803937D01*
X88803937Y-89659774D01*
X88917205Y-89490256D01*
X88995226Y-89301898D01*
X89023872Y-89157879D01*
X92122277Y-89157879D01*
X92122277Y-89361757D01*
X92162051Y-89561716D01*
X92240072Y-89750074D01*
X92353340Y-89919592D01*
X92497503Y-90063755D01*
X92667021Y-90177023D01*
X92855379Y-90255044D01*
X93055338Y-90294818D01*
X93259216Y-90294818D01*
X93459175Y-90255044D01*
X93647533Y-90177023D01*
X93817051Y-90063755D01*
X93961214Y-89919592D01*
X94074482Y-89750074D01*
X94152503Y-89561716D01*
X94192277Y-89361757D01*
X94192277Y-89157879D01*
X94152503Y-88957920D01*
X94127709Y-88898061D01*
X102965000Y-88898061D01*
X102965000Y-89101939D01*
X103004774Y-89301898D01*
X103082795Y-89490256D01*
X103196063Y-89659774D01*
X103340226Y-89803937D01*
X103509744Y-89917205D01*
X103698102Y-89995226D01*
X103898061Y-90035000D01*
X104101939Y-90035000D01*
X104301898Y-89995226D01*
X104490256Y-89917205D01*
X104659774Y-89803937D01*
X104803937Y-89659774D01*
X104917205Y-89490256D01*
X104995226Y-89301898D01*
X105035000Y-89101939D01*
X105035000Y-88898061D01*
X104995226Y-88698102D01*
X104917205Y-88509744D01*
X104803937Y-88340226D01*
X104659774Y-88196063D01*
X104490256Y-88082795D01*
X104301898Y-88004774D01*
X104101939Y-87965000D01*
X103898061Y-87965000D01*
X103698102Y-88004774D01*
X103509744Y-88082795D01*
X103340226Y-88196063D01*
X103196063Y-88340226D01*
X103082795Y-88509744D01*
X103004774Y-88698102D01*
X102965000Y-88898061D01*
X94127709Y-88898061D01*
X94074482Y-88769562D01*
X93961214Y-88600044D01*
X93817051Y-88455881D01*
X93647533Y-88342613D01*
X93459175Y-88264592D01*
X93259216Y-88224818D01*
X93055338Y-88224818D01*
X92855379Y-88264592D01*
X92667021Y-88342613D01*
X92497503Y-88455881D01*
X92353340Y-88600044D01*
X92240072Y-88769562D01*
X92162051Y-88957920D01*
X92122277Y-89157879D01*
X89023872Y-89157879D01*
X89035000Y-89101939D01*
X89035000Y-88898061D01*
X88995226Y-88698102D01*
X88917205Y-88509744D01*
X88803937Y-88340226D01*
X88659774Y-88196063D01*
X88490256Y-88082795D01*
X88301898Y-88004774D01*
X88101939Y-87965000D01*
X87898061Y-87965000D01*
X87698102Y-88004774D01*
X87509744Y-88082795D01*
X87340226Y-88196063D01*
X87196063Y-88340226D01*
X87082795Y-88509744D01*
X87004774Y-88698102D01*
X86965000Y-88898061D01*
X85520239Y-88898061D01*
X85948115Y-88331463D01*
X86979318Y-87200288D01*
X87200288Y-86979318D01*
X87837896Y-86398061D01*
X92965008Y-86398061D01*
X92965008Y-86601939D01*
X93004782Y-86801898D01*
X93082803Y-86990256D01*
X93196071Y-87159774D01*
X93340234Y-87303937D01*
X93509752Y-87417205D01*
X93698110Y-87495226D01*
X93754965Y-87506535D01*
X93804961Y-87556531D01*
X93905948Y-87639409D01*
X94059693Y-87721587D01*
X94226516Y-87772193D01*
X94400006Y-87789280D01*
X94573497Y-87772193D01*
X94740320Y-87721587D01*
X94894066Y-87639409D01*
X95028824Y-87528816D01*
X95139417Y-87394058D01*
X95221595Y-87240312D01*
X95272201Y-87073489D01*
X95289288Y-86899998D01*
X95272201Y-86726508D01*
X95221595Y-86559685D01*
X95139417Y-86405940D01*
X95056539Y-86304953D01*
X95006543Y-86254957D01*
X94995234Y-86198102D01*
X94917213Y-86009744D01*
X94803945Y-85840226D01*
X94659782Y-85696063D01*
X94490264Y-85582795D01*
X94301906Y-85504774D01*
X94101947Y-85465000D01*
X93898069Y-85465000D01*
X93698110Y-85504774D01*
X93509752Y-85582795D01*
X93340234Y-85696063D01*
X93196071Y-85840226D01*
X93082803Y-86009744D01*
X93004782Y-86198102D01*
X92965008Y-86398061D01*
X87837896Y-86398061D01*
X88331463Y-85948115D01*
X89059851Y-85398061D01*
X96364997Y-85398061D01*
X96364997Y-85601939D01*
X96404771Y-85801898D01*
X96482792Y-85990256D01*
X96596060Y-86159774D01*
X96740223Y-86303937D01*
X96909741Y-86417205D01*
X97098099Y-86495226D01*
X97298058Y-86535000D01*
X97501936Y-86535000D01*
X97578655Y-86519740D01*
X97504774Y-86698102D01*
X97465000Y-86898061D01*
X97465000Y-87101939D01*
X97504774Y-87301898D01*
X97582795Y-87490256D01*
X97696063Y-87659774D01*
X97840226Y-87803937D01*
X98009744Y-87917205D01*
X98198102Y-87995226D01*
X98398061Y-88035000D01*
X98601939Y-88035000D01*
X98801898Y-87995226D01*
X98990256Y-87917205D01*
X99159774Y-87803937D01*
X99303937Y-87659774D01*
X99417205Y-87490256D01*
X99495226Y-87301898D01*
X99535000Y-87101939D01*
X99535000Y-86898061D01*
X99495226Y-86698102D01*
X99417205Y-86509744D01*
X99303937Y-86340226D01*
X99159774Y-86196063D01*
X98990256Y-86082795D01*
X98801898Y-86004774D01*
X98601939Y-85965000D01*
X98398061Y-85965000D01*
X98321342Y-85980260D01*
X98395223Y-85801898D01*
X98434997Y-85601939D01*
X98434997Y-85398061D01*
X98395223Y-85198102D01*
X98317202Y-85009744D01*
X98203934Y-84840226D01*
X98059771Y-84696063D01*
X97890253Y-84582795D01*
X97701895Y-84504774D01*
X97501936Y-84465000D01*
X97298058Y-84465000D01*
X97098099Y-84504774D01*
X96909741Y-84582795D01*
X96740223Y-84696063D01*
X96596060Y-84840226D01*
X96482792Y-85009744D01*
X96404771Y-85198102D01*
X96364997Y-85398061D01*
X89059851Y-85398061D01*
X89677783Y-84931421D01*
X90539189Y-84398061D01*
X101965000Y-84398061D01*
X101965000Y-84601939D01*
X102004774Y-84801898D01*
X102082795Y-84990256D01*
X102196063Y-85159774D01*
X102340226Y-85303937D01*
X102509744Y-85417205D01*
X102698102Y-85495226D01*
X102898061Y-85535000D01*
X103101939Y-85535000D01*
X103301898Y-85495226D01*
X103490256Y-85417205D01*
X103659774Y-85303937D01*
X103803937Y-85159774D01*
X103917205Y-84990256D01*
X103995226Y-84801898D01*
X104035000Y-84601939D01*
X104035000Y-84398061D01*
X103995226Y-84198102D01*
X103917205Y-84009744D01*
X103803937Y-83840226D01*
X103659774Y-83696063D01*
X103490256Y-83582795D01*
X103301898Y-83504774D01*
X103101939Y-83465000D01*
X102898061Y-83465000D01*
X102698102Y-83504774D01*
X102509744Y-83582795D01*
X102340226Y-83696063D01*
X102196063Y-83840226D01*
X102082795Y-84009744D01*
X102004774Y-84198102D01*
X101965000Y-84398061D01*
X90539189Y-84398061D01*
X91112169Y-84043287D01*
X92622383Y-83291290D01*
X94195540Y-82681846D01*
X95818218Y-82220154D01*
X97476574Y-81910153D01*
X99156459Y-81754489D01*
X100843541Y-81754489D01*
X102523426Y-81910153D01*
M02*
