G04 #@! TF.GenerationSoftware,KiCad,Pcbnew,5.1.4*
G04 #@! TF.CreationDate,2019-11-28T00:41:57+01:00*
G04 #@! TF.ProjectId,SICKWATCH1,5349434b-5741-4544-9348-312e6b696361,rev?*
G04 #@! TF.SameCoordinates,Original*
G04 #@! TF.FileFunction,Paste,Top*
G04 #@! TF.FilePolarity,Positive*
%FSLAX46Y46*%
G04 Gerber Fmt 4.6, Leading zero omitted, Abs format (unit mm)*
G04 Created by KiCad (PCBNEW 5.1.4) date 2019-11-28 00:41:57*
%MOMM*%
%LPD*%
G04 APERTURE LIST*
%ADD10C,0.100000*%
%ADD11C,0.875000*%
%ADD12R,1.300000X0.250000*%
%ADD13R,0.250000X1.300000*%
G04 APERTURE END LIST*
D10*
G36*
X100277691Y-117351053D02*
G01*
X100298926Y-117354203D01*
X100319750Y-117359419D01*
X100339962Y-117366651D01*
X100359368Y-117375830D01*
X100377781Y-117386866D01*
X100395024Y-117399654D01*
X100410930Y-117414070D01*
X100425346Y-117429976D01*
X100438134Y-117447219D01*
X100449170Y-117465632D01*
X100458349Y-117485038D01*
X100465581Y-117505250D01*
X100470797Y-117526074D01*
X100473947Y-117547309D01*
X100475000Y-117568750D01*
X100475000Y-118006250D01*
X100473947Y-118027691D01*
X100470797Y-118048926D01*
X100465581Y-118069750D01*
X100458349Y-118089962D01*
X100449170Y-118109368D01*
X100438134Y-118127781D01*
X100425346Y-118145024D01*
X100410930Y-118160930D01*
X100395024Y-118175346D01*
X100377781Y-118188134D01*
X100359368Y-118199170D01*
X100339962Y-118208349D01*
X100319750Y-118215581D01*
X100298926Y-118220797D01*
X100277691Y-118223947D01*
X100256250Y-118225000D01*
X99743750Y-118225000D01*
X99722309Y-118223947D01*
X99701074Y-118220797D01*
X99680250Y-118215581D01*
X99660038Y-118208349D01*
X99640632Y-118199170D01*
X99622219Y-118188134D01*
X99604976Y-118175346D01*
X99589070Y-118160930D01*
X99574654Y-118145024D01*
X99561866Y-118127781D01*
X99550830Y-118109368D01*
X99541651Y-118089962D01*
X99534419Y-118069750D01*
X99529203Y-118048926D01*
X99526053Y-118027691D01*
X99525000Y-118006250D01*
X99525000Y-117568750D01*
X99526053Y-117547309D01*
X99529203Y-117526074D01*
X99534419Y-117505250D01*
X99541651Y-117485038D01*
X99550830Y-117465632D01*
X99561866Y-117447219D01*
X99574654Y-117429976D01*
X99589070Y-117414070D01*
X99604976Y-117399654D01*
X99622219Y-117386866D01*
X99640632Y-117375830D01*
X99660038Y-117366651D01*
X99680250Y-117359419D01*
X99701074Y-117354203D01*
X99722309Y-117351053D01*
X99743750Y-117350000D01*
X100256250Y-117350000D01*
X100277691Y-117351053D01*
X100277691Y-117351053D01*
G37*
D11*
X100000000Y-117787500D03*
D10*
G36*
X100277691Y-115776053D02*
G01*
X100298926Y-115779203D01*
X100319750Y-115784419D01*
X100339962Y-115791651D01*
X100359368Y-115800830D01*
X100377781Y-115811866D01*
X100395024Y-115824654D01*
X100410930Y-115839070D01*
X100425346Y-115854976D01*
X100438134Y-115872219D01*
X100449170Y-115890632D01*
X100458349Y-115910038D01*
X100465581Y-115930250D01*
X100470797Y-115951074D01*
X100473947Y-115972309D01*
X100475000Y-115993750D01*
X100475000Y-116431250D01*
X100473947Y-116452691D01*
X100470797Y-116473926D01*
X100465581Y-116494750D01*
X100458349Y-116514962D01*
X100449170Y-116534368D01*
X100438134Y-116552781D01*
X100425346Y-116570024D01*
X100410930Y-116585930D01*
X100395024Y-116600346D01*
X100377781Y-116613134D01*
X100359368Y-116624170D01*
X100339962Y-116633349D01*
X100319750Y-116640581D01*
X100298926Y-116645797D01*
X100277691Y-116648947D01*
X100256250Y-116650000D01*
X99743750Y-116650000D01*
X99722309Y-116648947D01*
X99701074Y-116645797D01*
X99680250Y-116640581D01*
X99660038Y-116633349D01*
X99640632Y-116624170D01*
X99622219Y-116613134D01*
X99604976Y-116600346D01*
X99589070Y-116585930D01*
X99574654Y-116570024D01*
X99561866Y-116552781D01*
X99550830Y-116534368D01*
X99541651Y-116514962D01*
X99534419Y-116494750D01*
X99529203Y-116473926D01*
X99526053Y-116452691D01*
X99525000Y-116431250D01*
X99525000Y-115993750D01*
X99526053Y-115972309D01*
X99529203Y-115951074D01*
X99534419Y-115930250D01*
X99541651Y-115910038D01*
X99550830Y-115890632D01*
X99561866Y-115872219D01*
X99574654Y-115854976D01*
X99589070Y-115839070D01*
X99604976Y-115824654D01*
X99622219Y-115811866D01*
X99640632Y-115800830D01*
X99660038Y-115791651D01*
X99680250Y-115784419D01*
X99701074Y-115779203D01*
X99722309Y-115776053D01*
X99743750Y-115775000D01*
X100256250Y-115775000D01*
X100277691Y-115776053D01*
X100277691Y-115776053D01*
G37*
D11*
X100000000Y-116212500D03*
D10*
G36*
X108233101Y-113502155D02*
G01*
X108254427Y-113504609D01*
X108275411Y-113509141D01*
X108295849Y-113515708D01*
X108315545Y-113524246D01*
X108334309Y-113534674D01*
X108351961Y-113546891D01*
X108368330Y-113560779D01*
X108383259Y-113576205D01*
X108396604Y-113593020D01*
X108408237Y-113611062D01*
X108626987Y-113989948D01*
X108636795Y-114009043D01*
X108644685Y-114029008D01*
X108650580Y-114049650D01*
X108654423Y-114070770D01*
X108656177Y-114092166D01*
X108655826Y-114113630D01*
X108653372Y-114134956D01*
X108648840Y-114155940D01*
X108642273Y-114176378D01*
X108633735Y-114196074D01*
X108623307Y-114214838D01*
X108611090Y-114232490D01*
X108597202Y-114248859D01*
X108581776Y-114263788D01*
X108564961Y-114277133D01*
X108546919Y-114288766D01*
X108103081Y-114545016D01*
X108083986Y-114554824D01*
X108064021Y-114562714D01*
X108043379Y-114568609D01*
X108022259Y-114572452D01*
X108000863Y-114574206D01*
X107979399Y-114573855D01*
X107958073Y-114571401D01*
X107937089Y-114566869D01*
X107916651Y-114560302D01*
X107896955Y-114551764D01*
X107878191Y-114541336D01*
X107860539Y-114529119D01*
X107844170Y-114515231D01*
X107829241Y-114499805D01*
X107815896Y-114482990D01*
X107804263Y-114464948D01*
X107585513Y-114086062D01*
X107575705Y-114066967D01*
X107567815Y-114047002D01*
X107561920Y-114026360D01*
X107558077Y-114005240D01*
X107556323Y-113983844D01*
X107556674Y-113962380D01*
X107559128Y-113941054D01*
X107563660Y-113920070D01*
X107570227Y-113899632D01*
X107578765Y-113879936D01*
X107589193Y-113861172D01*
X107601410Y-113843520D01*
X107615298Y-113827151D01*
X107630724Y-113812222D01*
X107647539Y-113798877D01*
X107665581Y-113787244D01*
X108109419Y-113530994D01*
X108128514Y-113521186D01*
X108148479Y-113513296D01*
X108169121Y-113507401D01*
X108190241Y-113503558D01*
X108211637Y-113501804D01*
X108233101Y-113502155D01*
X108233101Y-113502155D01*
G37*
D11*
X108106250Y-114038005D03*
D10*
G36*
X109020601Y-114866145D02*
G01*
X109041927Y-114868599D01*
X109062911Y-114873131D01*
X109083349Y-114879698D01*
X109103045Y-114888236D01*
X109121809Y-114898664D01*
X109139461Y-114910881D01*
X109155830Y-114924769D01*
X109170759Y-114940195D01*
X109184104Y-114957010D01*
X109195737Y-114975052D01*
X109414487Y-115353938D01*
X109424295Y-115373033D01*
X109432185Y-115392998D01*
X109438080Y-115413640D01*
X109441923Y-115434760D01*
X109443677Y-115456156D01*
X109443326Y-115477620D01*
X109440872Y-115498946D01*
X109436340Y-115519930D01*
X109429773Y-115540368D01*
X109421235Y-115560064D01*
X109410807Y-115578828D01*
X109398590Y-115596480D01*
X109384702Y-115612849D01*
X109369276Y-115627778D01*
X109352461Y-115641123D01*
X109334419Y-115652756D01*
X108890581Y-115909006D01*
X108871486Y-115918814D01*
X108851521Y-115926704D01*
X108830879Y-115932599D01*
X108809759Y-115936442D01*
X108788363Y-115938196D01*
X108766899Y-115937845D01*
X108745573Y-115935391D01*
X108724589Y-115930859D01*
X108704151Y-115924292D01*
X108684455Y-115915754D01*
X108665691Y-115905326D01*
X108648039Y-115893109D01*
X108631670Y-115879221D01*
X108616741Y-115863795D01*
X108603396Y-115846980D01*
X108591763Y-115828938D01*
X108373013Y-115450052D01*
X108363205Y-115430957D01*
X108355315Y-115410992D01*
X108349420Y-115390350D01*
X108345577Y-115369230D01*
X108343823Y-115347834D01*
X108344174Y-115326370D01*
X108346628Y-115305044D01*
X108351160Y-115284060D01*
X108357727Y-115263622D01*
X108366265Y-115243926D01*
X108376693Y-115225162D01*
X108388910Y-115207510D01*
X108402798Y-115191141D01*
X108418224Y-115176212D01*
X108435039Y-115162867D01*
X108453081Y-115151234D01*
X108896919Y-114894984D01*
X108916014Y-114885176D01*
X108935979Y-114877286D01*
X108956621Y-114871391D01*
X108977741Y-114867548D01*
X108999137Y-114865794D01*
X109020601Y-114866145D01*
X109020601Y-114866145D01*
G37*
D11*
X108893750Y-115401995D03*
D10*
G36*
X115369230Y-108345577D02*
G01*
X115390350Y-108349420D01*
X115410992Y-108355315D01*
X115430957Y-108363205D01*
X115450052Y-108373013D01*
X115828938Y-108591763D01*
X115846980Y-108603396D01*
X115863795Y-108616741D01*
X115879221Y-108631670D01*
X115893109Y-108648039D01*
X115905326Y-108665691D01*
X115915754Y-108684455D01*
X115924292Y-108704151D01*
X115930859Y-108724589D01*
X115935391Y-108745573D01*
X115937845Y-108766899D01*
X115938196Y-108788363D01*
X115936442Y-108809759D01*
X115932599Y-108830879D01*
X115926704Y-108851521D01*
X115918814Y-108871486D01*
X115909006Y-108890581D01*
X115652756Y-109334419D01*
X115641123Y-109352461D01*
X115627778Y-109369276D01*
X115612849Y-109384702D01*
X115596480Y-109398590D01*
X115578828Y-109410807D01*
X115560064Y-109421235D01*
X115540368Y-109429773D01*
X115519930Y-109436340D01*
X115498946Y-109440872D01*
X115477620Y-109443326D01*
X115456156Y-109443677D01*
X115434760Y-109441923D01*
X115413640Y-109438080D01*
X115392998Y-109432185D01*
X115373033Y-109424295D01*
X115353938Y-109414487D01*
X114975052Y-109195737D01*
X114957010Y-109184104D01*
X114940195Y-109170759D01*
X114924769Y-109155830D01*
X114910881Y-109139461D01*
X114898664Y-109121809D01*
X114888236Y-109103045D01*
X114879698Y-109083349D01*
X114873131Y-109062911D01*
X114868599Y-109041927D01*
X114866145Y-109020601D01*
X114865794Y-108999137D01*
X114867548Y-108977741D01*
X114871391Y-108956621D01*
X114877286Y-108935979D01*
X114885176Y-108916014D01*
X114894984Y-108896919D01*
X115151234Y-108453081D01*
X115162867Y-108435039D01*
X115176212Y-108418224D01*
X115191141Y-108402798D01*
X115207510Y-108388910D01*
X115225162Y-108376693D01*
X115243926Y-108366265D01*
X115263622Y-108357727D01*
X115284060Y-108351160D01*
X115305044Y-108346628D01*
X115326370Y-108344174D01*
X115347834Y-108343823D01*
X115369230Y-108345577D01*
X115369230Y-108345577D01*
G37*
D11*
X115401995Y-108893750D03*
D10*
G36*
X114005240Y-107558077D02*
G01*
X114026360Y-107561920D01*
X114047002Y-107567815D01*
X114066967Y-107575705D01*
X114086062Y-107585513D01*
X114464948Y-107804263D01*
X114482990Y-107815896D01*
X114499805Y-107829241D01*
X114515231Y-107844170D01*
X114529119Y-107860539D01*
X114541336Y-107878191D01*
X114551764Y-107896955D01*
X114560302Y-107916651D01*
X114566869Y-107937089D01*
X114571401Y-107958073D01*
X114573855Y-107979399D01*
X114574206Y-108000863D01*
X114572452Y-108022259D01*
X114568609Y-108043379D01*
X114562714Y-108064021D01*
X114554824Y-108083986D01*
X114545016Y-108103081D01*
X114288766Y-108546919D01*
X114277133Y-108564961D01*
X114263788Y-108581776D01*
X114248859Y-108597202D01*
X114232490Y-108611090D01*
X114214838Y-108623307D01*
X114196074Y-108633735D01*
X114176378Y-108642273D01*
X114155940Y-108648840D01*
X114134956Y-108653372D01*
X114113630Y-108655826D01*
X114092166Y-108656177D01*
X114070770Y-108654423D01*
X114049650Y-108650580D01*
X114029008Y-108644685D01*
X114009043Y-108636795D01*
X113989948Y-108626987D01*
X113611062Y-108408237D01*
X113593020Y-108396604D01*
X113576205Y-108383259D01*
X113560779Y-108368330D01*
X113546891Y-108351961D01*
X113534674Y-108334309D01*
X113524246Y-108315545D01*
X113515708Y-108295849D01*
X113509141Y-108275411D01*
X113504609Y-108254427D01*
X113502155Y-108233101D01*
X113501804Y-108211637D01*
X113503558Y-108190241D01*
X113507401Y-108169121D01*
X113513296Y-108148479D01*
X113521186Y-108128514D01*
X113530994Y-108109419D01*
X113787244Y-107665581D01*
X113798877Y-107647539D01*
X113812222Y-107630724D01*
X113827151Y-107615298D01*
X113843520Y-107601410D01*
X113861172Y-107589193D01*
X113879936Y-107578765D01*
X113899632Y-107570227D01*
X113920070Y-107563660D01*
X113941054Y-107559128D01*
X113962380Y-107556674D01*
X113983844Y-107556323D01*
X114005240Y-107558077D01*
X114005240Y-107558077D01*
G37*
D11*
X114038005Y-108106250D03*
D10*
G36*
X116452691Y-99526053D02*
G01*
X116473926Y-99529203D01*
X116494750Y-99534419D01*
X116514962Y-99541651D01*
X116534368Y-99550830D01*
X116552781Y-99561866D01*
X116570024Y-99574654D01*
X116585930Y-99589070D01*
X116600346Y-99604976D01*
X116613134Y-99622219D01*
X116624170Y-99640632D01*
X116633349Y-99660038D01*
X116640581Y-99680250D01*
X116645797Y-99701074D01*
X116648947Y-99722309D01*
X116650000Y-99743750D01*
X116650000Y-100256250D01*
X116648947Y-100277691D01*
X116645797Y-100298926D01*
X116640581Y-100319750D01*
X116633349Y-100339962D01*
X116624170Y-100359368D01*
X116613134Y-100377781D01*
X116600346Y-100395024D01*
X116585930Y-100410930D01*
X116570024Y-100425346D01*
X116552781Y-100438134D01*
X116534368Y-100449170D01*
X116514962Y-100458349D01*
X116494750Y-100465581D01*
X116473926Y-100470797D01*
X116452691Y-100473947D01*
X116431250Y-100475000D01*
X115993750Y-100475000D01*
X115972309Y-100473947D01*
X115951074Y-100470797D01*
X115930250Y-100465581D01*
X115910038Y-100458349D01*
X115890632Y-100449170D01*
X115872219Y-100438134D01*
X115854976Y-100425346D01*
X115839070Y-100410930D01*
X115824654Y-100395024D01*
X115811866Y-100377781D01*
X115800830Y-100359368D01*
X115791651Y-100339962D01*
X115784419Y-100319750D01*
X115779203Y-100298926D01*
X115776053Y-100277691D01*
X115775000Y-100256250D01*
X115775000Y-99743750D01*
X115776053Y-99722309D01*
X115779203Y-99701074D01*
X115784419Y-99680250D01*
X115791651Y-99660038D01*
X115800830Y-99640632D01*
X115811866Y-99622219D01*
X115824654Y-99604976D01*
X115839070Y-99589070D01*
X115854976Y-99574654D01*
X115872219Y-99561866D01*
X115890632Y-99550830D01*
X115910038Y-99541651D01*
X115930250Y-99534419D01*
X115951074Y-99529203D01*
X115972309Y-99526053D01*
X115993750Y-99525000D01*
X116431250Y-99525000D01*
X116452691Y-99526053D01*
X116452691Y-99526053D01*
G37*
D11*
X116212500Y-100000000D03*
D10*
G36*
X118027691Y-99526053D02*
G01*
X118048926Y-99529203D01*
X118069750Y-99534419D01*
X118089962Y-99541651D01*
X118109368Y-99550830D01*
X118127781Y-99561866D01*
X118145024Y-99574654D01*
X118160930Y-99589070D01*
X118175346Y-99604976D01*
X118188134Y-99622219D01*
X118199170Y-99640632D01*
X118208349Y-99660038D01*
X118215581Y-99680250D01*
X118220797Y-99701074D01*
X118223947Y-99722309D01*
X118225000Y-99743750D01*
X118225000Y-100256250D01*
X118223947Y-100277691D01*
X118220797Y-100298926D01*
X118215581Y-100319750D01*
X118208349Y-100339962D01*
X118199170Y-100359368D01*
X118188134Y-100377781D01*
X118175346Y-100395024D01*
X118160930Y-100410930D01*
X118145024Y-100425346D01*
X118127781Y-100438134D01*
X118109368Y-100449170D01*
X118089962Y-100458349D01*
X118069750Y-100465581D01*
X118048926Y-100470797D01*
X118027691Y-100473947D01*
X118006250Y-100475000D01*
X117568750Y-100475000D01*
X117547309Y-100473947D01*
X117526074Y-100470797D01*
X117505250Y-100465581D01*
X117485038Y-100458349D01*
X117465632Y-100449170D01*
X117447219Y-100438134D01*
X117429976Y-100425346D01*
X117414070Y-100410930D01*
X117399654Y-100395024D01*
X117386866Y-100377781D01*
X117375830Y-100359368D01*
X117366651Y-100339962D01*
X117359419Y-100319750D01*
X117354203Y-100298926D01*
X117351053Y-100277691D01*
X117350000Y-100256250D01*
X117350000Y-99743750D01*
X117351053Y-99722309D01*
X117354203Y-99701074D01*
X117359419Y-99680250D01*
X117366651Y-99660038D01*
X117375830Y-99640632D01*
X117386866Y-99622219D01*
X117399654Y-99604976D01*
X117414070Y-99589070D01*
X117429976Y-99574654D01*
X117447219Y-99561866D01*
X117465632Y-99550830D01*
X117485038Y-99541651D01*
X117505250Y-99534419D01*
X117526074Y-99529203D01*
X117547309Y-99526053D01*
X117568750Y-99525000D01*
X118006250Y-99525000D01*
X118027691Y-99526053D01*
X118027691Y-99526053D01*
G37*
D11*
X117787500Y-100000000D03*
D10*
G36*
X115477620Y-90556674D02*
G01*
X115498946Y-90559128D01*
X115519930Y-90563660D01*
X115540368Y-90570227D01*
X115560064Y-90578765D01*
X115578828Y-90589193D01*
X115596480Y-90601410D01*
X115612849Y-90615298D01*
X115627778Y-90630724D01*
X115641123Y-90647539D01*
X115652756Y-90665581D01*
X115909006Y-91109419D01*
X115918814Y-91128514D01*
X115926704Y-91148479D01*
X115932599Y-91169121D01*
X115936442Y-91190241D01*
X115938196Y-91211637D01*
X115937845Y-91233101D01*
X115935391Y-91254427D01*
X115930859Y-91275411D01*
X115924292Y-91295849D01*
X115915754Y-91315545D01*
X115905326Y-91334309D01*
X115893109Y-91351961D01*
X115879221Y-91368330D01*
X115863795Y-91383259D01*
X115846980Y-91396604D01*
X115828938Y-91408237D01*
X115450052Y-91626987D01*
X115430957Y-91636795D01*
X115410992Y-91644685D01*
X115390350Y-91650580D01*
X115369230Y-91654423D01*
X115347834Y-91656177D01*
X115326370Y-91655826D01*
X115305044Y-91653372D01*
X115284060Y-91648840D01*
X115263622Y-91642273D01*
X115243926Y-91633735D01*
X115225162Y-91623307D01*
X115207510Y-91611090D01*
X115191141Y-91597202D01*
X115176212Y-91581776D01*
X115162867Y-91564961D01*
X115151234Y-91546919D01*
X114894984Y-91103081D01*
X114885176Y-91083986D01*
X114877286Y-91064021D01*
X114871391Y-91043379D01*
X114867548Y-91022259D01*
X114865794Y-91000863D01*
X114866145Y-90979399D01*
X114868599Y-90958073D01*
X114873131Y-90937089D01*
X114879698Y-90916651D01*
X114888236Y-90896955D01*
X114898664Y-90878191D01*
X114910881Y-90860539D01*
X114924769Y-90844170D01*
X114940195Y-90829241D01*
X114957010Y-90815896D01*
X114975052Y-90804263D01*
X115353938Y-90585513D01*
X115373033Y-90575705D01*
X115392998Y-90567815D01*
X115413640Y-90561920D01*
X115434760Y-90558077D01*
X115456156Y-90556323D01*
X115477620Y-90556674D01*
X115477620Y-90556674D01*
G37*
D11*
X115401995Y-91106250D03*
D10*
G36*
X114113630Y-91344174D02*
G01*
X114134956Y-91346628D01*
X114155940Y-91351160D01*
X114176378Y-91357727D01*
X114196074Y-91366265D01*
X114214838Y-91376693D01*
X114232490Y-91388910D01*
X114248859Y-91402798D01*
X114263788Y-91418224D01*
X114277133Y-91435039D01*
X114288766Y-91453081D01*
X114545016Y-91896919D01*
X114554824Y-91916014D01*
X114562714Y-91935979D01*
X114568609Y-91956621D01*
X114572452Y-91977741D01*
X114574206Y-91999137D01*
X114573855Y-92020601D01*
X114571401Y-92041927D01*
X114566869Y-92062911D01*
X114560302Y-92083349D01*
X114551764Y-92103045D01*
X114541336Y-92121809D01*
X114529119Y-92139461D01*
X114515231Y-92155830D01*
X114499805Y-92170759D01*
X114482990Y-92184104D01*
X114464948Y-92195737D01*
X114086062Y-92414487D01*
X114066967Y-92424295D01*
X114047002Y-92432185D01*
X114026360Y-92438080D01*
X114005240Y-92441923D01*
X113983844Y-92443677D01*
X113962380Y-92443326D01*
X113941054Y-92440872D01*
X113920070Y-92436340D01*
X113899632Y-92429773D01*
X113879936Y-92421235D01*
X113861172Y-92410807D01*
X113843520Y-92398590D01*
X113827151Y-92384702D01*
X113812222Y-92369276D01*
X113798877Y-92352461D01*
X113787244Y-92334419D01*
X113530994Y-91890581D01*
X113521186Y-91871486D01*
X113513296Y-91851521D01*
X113507401Y-91830879D01*
X113503558Y-91809759D01*
X113501804Y-91788363D01*
X113502155Y-91766899D01*
X113504609Y-91745573D01*
X113509141Y-91724589D01*
X113515708Y-91704151D01*
X113524246Y-91684455D01*
X113534674Y-91665691D01*
X113546891Y-91648039D01*
X113560779Y-91631670D01*
X113576205Y-91616741D01*
X113593020Y-91603396D01*
X113611062Y-91591763D01*
X113989948Y-91373013D01*
X114009043Y-91363205D01*
X114029008Y-91355315D01*
X114049650Y-91349420D01*
X114070770Y-91345577D01*
X114092166Y-91343823D01*
X114113630Y-91344174D01*
X114113630Y-91344174D01*
G37*
D11*
X114038005Y-91893750D03*
D10*
G36*
X108022259Y-85427548D02*
G01*
X108043379Y-85431391D01*
X108064021Y-85437286D01*
X108083986Y-85445176D01*
X108103081Y-85454984D01*
X108546919Y-85711234D01*
X108564961Y-85722867D01*
X108581776Y-85736212D01*
X108597202Y-85751141D01*
X108611090Y-85767510D01*
X108623307Y-85785162D01*
X108633735Y-85803926D01*
X108642273Y-85823622D01*
X108648840Y-85844060D01*
X108653372Y-85865044D01*
X108655826Y-85886370D01*
X108656177Y-85907834D01*
X108654423Y-85929230D01*
X108650580Y-85950350D01*
X108644685Y-85970992D01*
X108636795Y-85990957D01*
X108626987Y-86010052D01*
X108408237Y-86388938D01*
X108396604Y-86406980D01*
X108383259Y-86423795D01*
X108368330Y-86439221D01*
X108351961Y-86453109D01*
X108334309Y-86465326D01*
X108315545Y-86475754D01*
X108295849Y-86484292D01*
X108275411Y-86490859D01*
X108254427Y-86495391D01*
X108233101Y-86497845D01*
X108211637Y-86498196D01*
X108190241Y-86496442D01*
X108169121Y-86492599D01*
X108148479Y-86486704D01*
X108128514Y-86478814D01*
X108109419Y-86469006D01*
X107665581Y-86212756D01*
X107647539Y-86201123D01*
X107630724Y-86187778D01*
X107615298Y-86172849D01*
X107601410Y-86156480D01*
X107589193Y-86138828D01*
X107578765Y-86120064D01*
X107570227Y-86100368D01*
X107563660Y-86079930D01*
X107559128Y-86058946D01*
X107556674Y-86037620D01*
X107556323Y-86016156D01*
X107558077Y-85994760D01*
X107561920Y-85973640D01*
X107567815Y-85952998D01*
X107575705Y-85933033D01*
X107585513Y-85913938D01*
X107804263Y-85535052D01*
X107815896Y-85517010D01*
X107829241Y-85500195D01*
X107844170Y-85484769D01*
X107860539Y-85470881D01*
X107878191Y-85458664D01*
X107896955Y-85448236D01*
X107916651Y-85439698D01*
X107937089Y-85433131D01*
X107958073Y-85428599D01*
X107979399Y-85426145D01*
X108000863Y-85425794D01*
X108022259Y-85427548D01*
X108022259Y-85427548D01*
G37*
D11*
X108106250Y-85961995D03*
D10*
G36*
X108809759Y-84063558D02*
G01*
X108830879Y-84067401D01*
X108851521Y-84073296D01*
X108871486Y-84081186D01*
X108890581Y-84090994D01*
X109334419Y-84347244D01*
X109352461Y-84358877D01*
X109369276Y-84372222D01*
X109384702Y-84387151D01*
X109398590Y-84403520D01*
X109410807Y-84421172D01*
X109421235Y-84439936D01*
X109429773Y-84459632D01*
X109436340Y-84480070D01*
X109440872Y-84501054D01*
X109443326Y-84522380D01*
X109443677Y-84543844D01*
X109441923Y-84565240D01*
X109438080Y-84586360D01*
X109432185Y-84607002D01*
X109424295Y-84626967D01*
X109414487Y-84646062D01*
X109195737Y-85024948D01*
X109184104Y-85042990D01*
X109170759Y-85059805D01*
X109155830Y-85075231D01*
X109139461Y-85089119D01*
X109121809Y-85101336D01*
X109103045Y-85111764D01*
X109083349Y-85120302D01*
X109062911Y-85126869D01*
X109041927Y-85131401D01*
X109020601Y-85133855D01*
X108999137Y-85134206D01*
X108977741Y-85132452D01*
X108956621Y-85128609D01*
X108935979Y-85122714D01*
X108916014Y-85114824D01*
X108896919Y-85105016D01*
X108453081Y-84848766D01*
X108435039Y-84837133D01*
X108418224Y-84823788D01*
X108402798Y-84808859D01*
X108388910Y-84792490D01*
X108376693Y-84774838D01*
X108366265Y-84756074D01*
X108357727Y-84736378D01*
X108351160Y-84715940D01*
X108346628Y-84694956D01*
X108344174Y-84673630D01*
X108343823Y-84652166D01*
X108345577Y-84630770D01*
X108349420Y-84609650D01*
X108355315Y-84589008D01*
X108363205Y-84569043D01*
X108373013Y-84549948D01*
X108591763Y-84171062D01*
X108603396Y-84153020D01*
X108616741Y-84136205D01*
X108631670Y-84120779D01*
X108648039Y-84106891D01*
X108665691Y-84094674D01*
X108684455Y-84084246D01*
X108704151Y-84075708D01*
X108724589Y-84069141D01*
X108745573Y-84064609D01*
X108766899Y-84062155D01*
X108788363Y-84061804D01*
X108809759Y-84063558D01*
X108809759Y-84063558D01*
G37*
D11*
X108893750Y-84598005D03*
D10*
G36*
X100277691Y-81776053D02*
G01*
X100298926Y-81779203D01*
X100319750Y-81784419D01*
X100339962Y-81791651D01*
X100359368Y-81800830D01*
X100377781Y-81811866D01*
X100395024Y-81824654D01*
X100410930Y-81839070D01*
X100425346Y-81854976D01*
X100438134Y-81872219D01*
X100449170Y-81890632D01*
X100458349Y-81910038D01*
X100465581Y-81930250D01*
X100470797Y-81951074D01*
X100473947Y-81972309D01*
X100475000Y-81993750D01*
X100475000Y-82431250D01*
X100473947Y-82452691D01*
X100470797Y-82473926D01*
X100465581Y-82494750D01*
X100458349Y-82514962D01*
X100449170Y-82534368D01*
X100438134Y-82552781D01*
X100425346Y-82570024D01*
X100410930Y-82585930D01*
X100395024Y-82600346D01*
X100377781Y-82613134D01*
X100359368Y-82624170D01*
X100339962Y-82633349D01*
X100319750Y-82640581D01*
X100298926Y-82645797D01*
X100277691Y-82648947D01*
X100256250Y-82650000D01*
X99743750Y-82650000D01*
X99722309Y-82648947D01*
X99701074Y-82645797D01*
X99680250Y-82640581D01*
X99660038Y-82633349D01*
X99640632Y-82624170D01*
X99622219Y-82613134D01*
X99604976Y-82600346D01*
X99589070Y-82585930D01*
X99574654Y-82570024D01*
X99561866Y-82552781D01*
X99550830Y-82534368D01*
X99541651Y-82514962D01*
X99534419Y-82494750D01*
X99529203Y-82473926D01*
X99526053Y-82452691D01*
X99525000Y-82431250D01*
X99525000Y-81993750D01*
X99526053Y-81972309D01*
X99529203Y-81951074D01*
X99534419Y-81930250D01*
X99541651Y-81910038D01*
X99550830Y-81890632D01*
X99561866Y-81872219D01*
X99574654Y-81854976D01*
X99589070Y-81839070D01*
X99604976Y-81824654D01*
X99622219Y-81811866D01*
X99640632Y-81800830D01*
X99660038Y-81791651D01*
X99680250Y-81784419D01*
X99701074Y-81779203D01*
X99722309Y-81776053D01*
X99743750Y-81775000D01*
X100256250Y-81775000D01*
X100277691Y-81776053D01*
X100277691Y-81776053D01*
G37*
D11*
X100000000Y-82212500D03*
D10*
G36*
X100277691Y-83351053D02*
G01*
X100298926Y-83354203D01*
X100319750Y-83359419D01*
X100339962Y-83366651D01*
X100359368Y-83375830D01*
X100377781Y-83386866D01*
X100395024Y-83399654D01*
X100410930Y-83414070D01*
X100425346Y-83429976D01*
X100438134Y-83447219D01*
X100449170Y-83465632D01*
X100458349Y-83485038D01*
X100465581Y-83505250D01*
X100470797Y-83526074D01*
X100473947Y-83547309D01*
X100475000Y-83568750D01*
X100475000Y-84006250D01*
X100473947Y-84027691D01*
X100470797Y-84048926D01*
X100465581Y-84069750D01*
X100458349Y-84089962D01*
X100449170Y-84109368D01*
X100438134Y-84127781D01*
X100425346Y-84145024D01*
X100410930Y-84160930D01*
X100395024Y-84175346D01*
X100377781Y-84188134D01*
X100359368Y-84199170D01*
X100339962Y-84208349D01*
X100319750Y-84215581D01*
X100298926Y-84220797D01*
X100277691Y-84223947D01*
X100256250Y-84225000D01*
X99743750Y-84225000D01*
X99722309Y-84223947D01*
X99701074Y-84220797D01*
X99680250Y-84215581D01*
X99660038Y-84208349D01*
X99640632Y-84199170D01*
X99622219Y-84188134D01*
X99604976Y-84175346D01*
X99589070Y-84160930D01*
X99574654Y-84145024D01*
X99561866Y-84127781D01*
X99550830Y-84109368D01*
X99541651Y-84089962D01*
X99534419Y-84069750D01*
X99529203Y-84048926D01*
X99526053Y-84027691D01*
X99525000Y-84006250D01*
X99525000Y-83568750D01*
X99526053Y-83547309D01*
X99529203Y-83526074D01*
X99534419Y-83505250D01*
X99541651Y-83485038D01*
X99550830Y-83465632D01*
X99561866Y-83447219D01*
X99574654Y-83429976D01*
X99589070Y-83414070D01*
X99604976Y-83399654D01*
X99622219Y-83386866D01*
X99640632Y-83375830D01*
X99660038Y-83366651D01*
X99680250Y-83359419D01*
X99701074Y-83354203D01*
X99722309Y-83351053D01*
X99743750Y-83350000D01*
X100256250Y-83350000D01*
X100277691Y-83351053D01*
X100277691Y-83351053D01*
G37*
D11*
X100000000Y-83787500D03*
D10*
G36*
X86037620Y-107556674D02*
G01*
X86058946Y-107559128D01*
X86079930Y-107563660D01*
X86100368Y-107570227D01*
X86120064Y-107578765D01*
X86138828Y-107589193D01*
X86156480Y-107601410D01*
X86172849Y-107615298D01*
X86187778Y-107630724D01*
X86201123Y-107647539D01*
X86212756Y-107665581D01*
X86469006Y-108109419D01*
X86478814Y-108128514D01*
X86486704Y-108148479D01*
X86492599Y-108169121D01*
X86496442Y-108190241D01*
X86498196Y-108211637D01*
X86497845Y-108233101D01*
X86495391Y-108254427D01*
X86490859Y-108275411D01*
X86484292Y-108295849D01*
X86475754Y-108315545D01*
X86465326Y-108334309D01*
X86453109Y-108351961D01*
X86439221Y-108368330D01*
X86423795Y-108383259D01*
X86406980Y-108396604D01*
X86388938Y-108408237D01*
X86010052Y-108626987D01*
X85990957Y-108636795D01*
X85970992Y-108644685D01*
X85950350Y-108650580D01*
X85929230Y-108654423D01*
X85907834Y-108656177D01*
X85886370Y-108655826D01*
X85865044Y-108653372D01*
X85844060Y-108648840D01*
X85823622Y-108642273D01*
X85803926Y-108633735D01*
X85785162Y-108623307D01*
X85767510Y-108611090D01*
X85751141Y-108597202D01*
X85736212Y-108581776D01*
X85722867Y-108564961D01*
X85711234Y-108546919D01*
X85454984Y-108103081D01*
X85445176Y-108083986D01*
X85437286Y-108064021D01*
X85431391Y-108043379D01*
X85427548Y-108022259D01*
X85425794Y-108000863D01*
X85426145Y-107979399D01*
X85428599Y-107958073D01*
X85433131Y-107937089D01*
X85439698Y-107916651D01*
X85448236Y-107896955D01*
X85458664Y-107878191D01*
X85470881Y-107860539D01*
X85484769Y-107844170D01*
X85500195Y-107829241D01*
X85517010Y-107815896D01*
X85535052Y-107804263D01*
X85913938Y-107585513D01*
X85933033Y-107575705D01*
X85952998Y-107567815D01*
X85973640Y-107561920D01*
X85994760Y-107558077D01*
X86016156Y-107556323D01*
X86037620Y-107556674D01*
X86037620Y-107556674D01*
G37*
D11*
X85961995Y-108106250D03*
D10*
G36*
X84673630Y-108344174D02*
G01*
X84694956Y-108346628D01*
X84715940Y-108351160D01*
X84736378Y-108357727D01*
X84756074Y-108366265D01*
X84774838Y-108376693D01*
X84792490Y-108388910D01*
X84808859Y-108402798D01*
X84823788Y-108418224D01*
X84837133Y-108435039D01*
X84848766Y-108453081D01*
X85105016Y-108896919D01*
X85114824Y-108916014D01*
X85122714Y-108935979D01*
X85128609Y-108956621D01*
X85132452Y-108977741D01*
X85134206Y-108999137D01*
X85133855Y-109020601D01*
X85131401Y-109041927D01*
X85126869Y-109062911D01*
X85120302Y-109083349D01*
X85111764Y-109103045D01*
X85101336Y-109121809D01*
X85089119Y-109139461D01*
X85075231Y-109155830D01*
X85059805Y-109170759D01*
X85042990Y-109184104D01*
X85024948Y-109195737D01*
X84646062Y-109414487D01*
X84626967Y-109424295D01*
X84607002Y-109432185D01*
X84586360Y-109438080D01*
X84565240Y-109441923D01*
X84543844Y-109443677D01*
X84522380Y-109443326D01*
X84501054Y-109440872D01*
X84480070Y-109436340D01*
X84459632Y-109429773D01*
X84439936Y-109421235D01*
X84421172Y-109410807D01*
X84403520Y-109398590D01*
X84387151Y-109384702D01*
X84372222Y-109369276D01*
X84358877Y-109352461D01*
X84347244Y-109334419D01*
X84090994Y-108890581D01*
X84081186Y-108871486D01*
X84073296Y-108851521D01*
X84067401Y-108830879D01*
X84063558Y-108809759D01*
X84061804Y-108788363D01*
X84062155Y-108766899D01*
X84064609Y-108745573D01*
X84069141Y-108724589D01*
X84075708Y-108704151D01*
X84084246Y-108684455D01*
X84094674Y-108665691D01*
X84106891Y-108648039D01*
X84120779Y-108631670D01*
X84136205Y-108616741D01*
X84153020Y-108603396D01*
X84171062Y-108591763D01*
X84549948Y-108373013D01*
X84569043Y-108363205D01*
X84589008Y-108355315D01*
X84609650Y-108349420D01*
X84630770Y-108345577D01*
X84652166Y-108343823D01*
X84673630Y-108344174D01*
X84673630Y-108344174D01*
G37*
D11*
X84598005Y-108893750D03*
D10*
G36*
X94022259Y-109677548D02*
G01*
X94043379Y-109681391D01*
X94064021Y-109687286D01*
X94083986Y-109695176D01*
X94103081Y-109704984D01*
X94546919Y-109961234D01*
X94564961Y-109972867D01*
X94581776Y-109986212D01*
X94597202Y-110001141D01*
X94611090Y-110017510D01*
X94623307Y-110035162D01*
X94633735Y-110053926D01*
X94642273Y-110073622D01*
X94648840Y-110094060D01*
X94653372Y-110115044D01*
X94655826Y-110136370D01*
X94656177Y-110157834D01*
X94654423Y-110179230D01*
X94650580Y-110200350D01*
X94644685Y-110220992D01*
X94636795Y-110240957D01*
X94626987Y-110260052D01*
X94408237Y-110638938D01*
X94396604Y-110656980D01*
X94383259Y-110673795D01*
X94368330Y-110689221D01*
X94351961Y-110703109D01*
X94334309Y-110715326D01*
X94315545Y-110725754D01*
X94295849Y-110734292D01*
X94275411Y-110740859D01*
X94254427Y-110745391D01*
X94233101Y-110747845D01*
X94211637Y-110748196D01*
X94190241Y-110746442D01*
X94169121Y-110742599D01*
X94148479Y-110736704D01*
X94128514Y-110728814D01*
X94109419Y-110719006D01*
X93665581Y-110462756D01*
X93647539Y-110451123D01*
X93630724Y-110437778D01*
X93615298Y-110422849D01*
X93601410Y-110406480D01*
X93589193Y-110388828D01*
X93578765Y-110370064D01*
X93570227Y-110350368D01*
X93563660Y-110329930D01*
X93559128Y-110308946D01*
X93556674Y-110287620D01*
X93556323Y-110266156D01*
X93558077Y-110244760D01*
X93561920Y-110223640D01*
X93567815Y-110202998D01*
X93575705Y-110183033D01*
X93585513Y-110163938D01*
X93804263Y-109785052D01*
X93815896Y-109767010D01*
X93829241Y-109750195D01*
X93844170Y-109734769D01*
X93860539Y-109720881D01*
X93878191Y-109708664D01*
X93896955Y-109698236D01*
X93916651Y-109689698D01*
X93937089Y-109683131D01*
X93958073Y-109678599D01*
X93979399Y-109676145D01*
X94000863Y-109675794D01*
X94022259Y-109677548D01*
X94022259Y-109677548D01*
G37*
D11*
X94106250Y-110211995D03*
D10*
G36*
X94809759Y-108313558D02*
G01*
X94830879Y-108317401D01*
X94851521Y-108323296D01*
X94871486Y-108331186D01*
X94890581Y-108340994D01*
X95334419Y-108597244D01*
X95352461Y-108608877D01*
X95369276Y-108622222D01*
X95384702Y-108637151D01*
X95398590Y-108653520D01*
X95410807Y-108671172D01*
X95421235Y-108689936D01*
X95429773Y-108709632D01*
X95436340Y-108730070D01*
X95440872Y-108751054D01*
X95443326Y-108772380D01*
X95443677Y-108793844D01*
X95441923Y-108815240D01*
X95438080Y-108836360D01*
X95432185Y-108857002D01*
X95424295Y-108876967D01*
X95414487Y-108896062D01*
X95195737Y-109274948D01*
X95184104Y-109292990D01*
X95170759Y-109309805D01*
X95155830Y-109325231D01*
X95139461Y-109339119D01*
X95121809Y-109351336D01*
X95103045Y-109361764D01*
X95083349Y-109370302D01*
X95062911Y-109376869D01*
X95041927Y-109381401D01*
X95020601Y-109383855D01*
X94999137Y-109384206D01*
X94977741Y-109382452D01*
X94956621Y-109378609D01*
X94935979Y-109372714D01*
X94916014Y-109364824D01*
X94896919Y-109355016D01*
X94453081Y-109098766D01*
X94435039Y-109087133D01*
X94418224Y-109073788D01*
X94402798Y-109058859D01*
X94388910Y-109042490D01*
X94376693Y-109024838D01*
X94366265Y-109006074D01*
X94357727Y-108986378D01*
X94351160Y-108965940D01*
X94346628Y-108944956D01*
X94344174Y-108923630D01*
X94343823Y-108902166D01*
X94345577Y-108880770D01*
X94349420Y-108859650D01*
X94355315Y-108839008D01*
X94363205Y-108819043D01*
X94373013Y-108799948D01*
X94591763Y-108421062D01*
X94603396Y-108403020D01*
X94616741Y-108386205D01*
X94631670Y-108370779D01*
X94648039Y-108356891D01*
X94665691Y-108344674D01*
X94684455Y-108334246D01*
X94704151Y-108325708D01*
X94724589Y-108319141D01*
X94745573Y-108314609D01*
X94766899Y-108312155D01*
X94788363Y-108311804D01*
X94809759Y-108313558D01*
X94809759Y-108313558D01*
G37*
D11*
X94893750Y-108848005D03*
D10*
G36*
X90027691Y-99526053D02*
G01*
X90048926Y-99529203D01*
X90069750Y-99534419D01*
X90089962Y-99541651D01*
X90109368Y-99550830D01*
X90127781Y-99561866D01*
X90145024Y-99574654D01*
X90160930Y-99589070D01*
X90175346Y-99604976D01*
X90188134Y-99622219D01*
X90199170Y-99640632D01*
X90208349Y-99660038D01*
X90215581Y-99680250D01*
X90220797Y-99701074D01*
X90223947Y-99722309D01*
X90225000Y-99743750D01*
X90225000Y-100256250D01*
X90223947Y-100277691D01*
X90220797Y-100298926D01*
X90215581Y-100319750D01*
X90208349Y-100339962D01*
X90199170Y-100359368D01*
X90188134Y-100377781D01*
X90175346Y-100395024D01*
X90160930Y-100410930D01*
X90145024Y-100425346D01*
X90127781Y-100438134D01*
X90109368Y-100449170D01*
X90089962Y-100458349D01*
X90069750Y-100465581D01*
X90048926Y-100470797D01*
X90027691Y-100473947D01*
X90006250Y-100475000D01*
X89568750Y-100475000D01*
X89547309Y-100473947D01*
X89526074Y-100470797D01*
X89505250Y-100465581D01*
X89485038Y-100458349D01*
X89465632Y-100449170D01*
X89447219Y-100438134D01*
X89429976Y-100425346D01*
X89414070Y-100410930D01*
X89399654Y-100395024D01*
X89386866Y-100377781D01*
X89375830Y-100359368D01*
X89366651Y-100339962D01*
X89359419Y-100319750D01*
X89354203Y-100298926D01*
X89351053Y-100277691D01*
X89350000Y-100256250D01*
X89350000Y-99743750D01*
X89351053Y-99722309D01*
X89354203Y-99701074D01*
X89359419Y-99680250D01*
X89366651Y-99660038D01*
X89375830Y-99640632D01*
X89386866Y-99622219D01*
X89399654Y-99604976D01*
X89414070Y-99589070D01*
X89429976Y-99574654D01*
X89447219Y-99561866D01*
X89465632Y-99550830D01*
X89485038Y-99541651D01*
X89505250Y-99534419D01*
X89526074Y-99529203D01*
X89547309Y-99526053D01*
X89568750Y-99525000D01*
X90006250Y-99525000D01*
X90027691Y-99526053D01*
X90027691Y-99526053D01*
G37*
D11*
X89787500Y-100000000D03*
D10*
G36*
X88452691Y-99526053D02*
G01*
X88473926Y-99529203D01*
X88494750Y-99534419D01*
X88514962Y-99541651D01*
X88534368Y-99550830D01*
X88552781Y-99561866D01*
X88570024Y-99574654D01*
X88585930Y-99589070D01*
X88600346Y-99604976D01*
X88613134Y-99622219D01*
X88624170Y-99640632D01*
X88633349Y-99660038D01*
X88640581Y-99680250D01*
X88645797Y-99701074D01*
X88648947Y-99722309D01*
X88650000Y-99743750D01*
X88650000Y-100256250D01*
X88648947Y-100277691D01*
X88645797Y-100298926D01*
X88640581Y-100319750D01*
X88633349Y-100339962D01*
X88624170Y-100359368D01*
X88613134Y-100377781D01*
X88600346Y-100395024D01*
X88585930Y-100410930D01*
X88570024Y-100425346D01*
X88552781Y-100438134D01*
X88534368Y-100449170D01*
X88514962Y-100458349D01*
X88494750Y-100465581D01*
X88473926Y-100470797D01*
X88452691Y-100473947D01*
X88431250Y-100475000D01*
X87993750Y-100475000D01*
X87972309Y-100473947D01*
X87951074Y-100470797D01*
X87930250Y-100465581D01*
X87910038Y-100458349D01*
X87890632Y-100449170D01*
X87872219Y-100438134D01*
X87854976Y-100425346D01*
X87839070Y-100410930D01*
X87824654Y-100395024D01*
X87811866Y-100377781D01*
X87800830Y-100359368D01*
X87791651Y-100339962D01*
X87784419Y-100319750D01*
X87779203Y-100298926D01*
X87776053Y-100277691D01*
X87775000Y-100256250D01*
X87775000Y-99743750D01*
X87776053Y-99722309D01*
X87779203Y-99701074D01*
X87784419Y-99680250D01*
X87791651Y-99660038D01*
X87800830Y-99640632D01*
X87811866Y-99622219D01*
X87824654Y-99604976D01*
X87839070Y-99589070D01*
X87854976Y-99574654D01*
X87872219Y-99561866D01*
X87890632Y-99550830D01*
X87910038Y-99541651D01*
X87930250Y-99534419D01*
X87951074Y-99529203D01*
X87972309Y-99526053D01*
X87993750Y-99525000D01*
X88431250Y-99525000D01*
X88452691Y-99526053D01*
X88452691Y-99526053D01*
G37*
D11*
X88212500Y-100000000D03*
D10*
G36*
X106020601Y-109676145D02*
G01*
X106041927Y-109678599D01*
X106062911Y-109683131D01*
X106083349Y-109689698D01*
X106103045Y-109698236D01*
X106121809Y-109708664D01*
X106139461Y-109720881D01*
X106155830Y-109734769D01*
X106170759Y-109750195D01*
X106184104Y-109767010D01*
X106195737Y-109785052D01*
X106414487Y-110163938D01*
X106424295Y-110183033D01*
X106432185Y-110202998D01*
X106438080Y-110223640D01*
X106441923Y-110244760D01*
X106443677Y-110266156D01*
X106443326Y-110287620D01*
X106440872Y-110308946D01*
X106436340Y-110329930D01*
X106429773Y-110350368D01*
X106421235Y-110370064D01*
X106410807Y-110388828D01*
X106398590Y-110406480D01*
X106384702Y-110422849D01*
X106369276Y-110437778D01*
X106352461Y-110451123D01*
X106334419Y-110462756D01*
X105890581Y-110719006D01*
X105871486Y-110728814D01*
X105851521Y-110736704D01*
X105830879Y-110742599D01*
X105809759Y-110746442D01*
X105788363Y-110748196D01*
X105766899Y-110747845D01*
X105745573Y-110745391D01*
X105724589Y-110740859D01*
X105704151Y-110734292D01*
X105684455Y-110725754D01*
X105665691Y-110715326D01*
X105648039Y-110703109D01*
X105631670Y-110689221D01*
X105616741Y-110673795D01*
X105603396Y-110656980D01*
X105591763Y-110638938D01*
X105373013Y-110260052D01*
X105363205Y-110240957D01*
X105355315Y-110220992D01*
X105349420Y-110200350D01*
X105345577Y-110179230D01*
X105343823Y-110157834D01*
X105344174Y-110136370D01*
X105346628Y-110115044D01*
X105351160Y-110094060D01*
X105357727Y-110073622D01*
X105366265Y-110053926D01*
X105376693Y-110035162D01*
X105388910Y-110017510D01*
X105402798Y-110001141D01*
X105418224Y-109986212D01*
X105435039Y-109972867D01*
X105453081Y-109961234D01*
X105896919Y-109704984D01*
X105916014Y-109695176D01*
X105935979Y-109687286D01*
X105956621Y-109681391D01*
X105977741Y-109677548D01*
X105999137Y-109675794D01*
X106020601Y-109676145D01*
X106020601Y-109676145D01*
G37*
D11*
X105893750Y-110211995D03*
D10*
G36*
X105233101Y-108312155D02*
G01*
X105254427Y-108314609D01*
X105275411Y-108319141D01*
X105295849Y-108325708D01*
X105315545Y-108334246D01*
X105334309Y-108344674D01*
X105351961Y-108356891D01*
X105368330Y-108370779D01*
X105383259Y-108386205D01*
X105396604Y-108403020D01*
X105408237Y-108421062D01*
X105626987Y-108799948D01*
X105636795Y-108819043D01*
X105644685Y-108839008D01*
X105650580Y-108859650D01*
X105654423Y-108880770D01*
X105656177Y-108902166D01*
X105655826Y-108923630D01*
X105653372Y-108944956D01*
X105648840Y-108965940D01*
X105642273Y-108986378D01*
X105633735Y-109006074D01*
X105623307Y-109024838D01*
X105611090Y-109042490D01*
X105597202Y-109058859D01*
X105581776Y-109073788D01*
X105564961Y-109087133D01*
X105546919Y-109098766D01*
X105103081Y-109355016D01*
X105083986Y-109364824D01*
X105064021Y-109372714D01*
X105043379Y-109378609D01*
X105022259Y-109382452D01*
X105000863Y-109384206D01*
X104979399Y-109383855D01*
X104958073Y-109381401D01*
X104937089Y-109376869D01*
X104916651Y-109370302D01*
X104896955Y-109361764D01*
X104878191Y-109351336D01*
X104860539Y-109339119D01*
X104844170Y-109325231D01*
X104829241Y-109309805D01*
X104815896Y-109292990D01*
X104804263Y-109274948D01*
X104585513Y-108896062D01*
X104575705Y-108876967D01*
X104567815Y-108857002D01*
X104561920Y-108836360D01*
X104558077Y-108815240D01*
X104556323Y-108793844D01*
X104556674Y-108772380D01*
X104559128Y-108751054D01*
X104563660Y-108730070D01*
X104570227Y-108709632D01*
X104578765Y-108689936D01*
X104589193Y-108671172D01*
X104601410Y-108653520D01*
X104615298Y-108637151D01*
X104630724Y-108622222D01*
X104647539Y-108608877D01*
X104665581Y-108597244D01*
X105109419Y-108340994D01*
X105128514Y-108331186D01*
X105148479Y-108323296D01*
X105169121Y-108317401D01*
X105190241Y-108313558D01*
X105211637Y-108311804D01*
X105233101Y-108312155D01*
X105233101Y-108312155D01*
G37*
D11*
X105106250Y-108848005D03*
D10*
G36*
X110452691Y-99526053D02*
G01*
X110473926Y-99529203D01*
X110494750Y-99534419D01*
X110514962Y-99541651D01*
X110534368Y-99550830D01*
X110552781Y-99561866D01*
X110570024Y-99574654D01*
X110585930Y-99589070D01*
X110600346Y-99604976D01*
X110613134Y-99622219D01*
X110624170Y-99640632D01*
X110633349Y-99660038D01*
X110640581Y-99680250D01*
X110645797Y-99701074D01*
X110648947Y-99722309D01*
X110650000Y-99743750D01*
X110650000Y-100256250D01*
X110648947Y-100277691D01*
X110645797Y-100298926D01*
X110640581Y-100319750D01*
X110633349Y-100339962D01*
X110624170Y-100359368D01*
X110613134Y-100377781D01*
X110600346Y-100395024D01*
X110585930Y-100410930D01*
X110570024Y-100425346D01*
X110552781Y-100438134D01*
X110534368Y-100449170D01*
X110514962Y-100458349D01*
X110494750Y-100465581D01*
X110473926Y-100470797D01*
X110452691Y-100473947D01*
X110431250Y-100475000D01*
X109993750Y-100475000D01*
X109972309Y-100473947D01*
X109951074Y-100470797D01*
X109930250Y-100465581D01*
X109910038Y-100458349D01*
X109890632Y-100449170D01*
X109872219Y-100438134D01*
X109854976Y-100425346D01*
X109839070Y-100410930D01*
X109824654Y-100395024D01*
X109811866Y-100377781D01*
X109800830Y-100359368D01*
X109791651Y-100339962D01*
X109784419Y-100319750D01*
X109779203Y-100298926D01*
X109776053Y-100277691D01*
X109775000Y-100256250D01*
X109775000Y-99743750D01*
X109776053Y-99722309D01*
X109779203Y-99701074D01*
X109784419Y-99680250D01*
X109791651Y-99660038D01*
X109800830Y-99640632D01*
X109811866Y-99622219D01*
X109824654Y-99604976D01*
X109839070Y-99589070D01*
X109854976Y-99574654D01*
X109872219Y-99561866D01*
X109890632Y-99550830D01*
X109910038Y-99541651D01*
X109930250Y-99534419D01*
X109951074Y-99529203D01*
X109972309Y-99526053D01*
X109993750Y-99525000D01*
X110431250Y-99525000D01*
X110452691Y-99526053D01*
X110452691Y-99526053D01*
G37*
D11*
X110212500Y-100000000D03*
D10*
G36*
X112027691Y-99526053D02*
G01*
X112048926Y-99529203D01*
X112069750Y-99534419D01*
X112089962Y-99541651D01*
X112109368Y-99550830D01*
X112127781Y-99561866D01*
X112145024Y-99574654D01*
X112160930Y-99589070D01*
X112175346Y-99604976D01*
X112188134Y-99622219D01*
X112199170Y-99640632D01*
X112208349Y-99660038D01*
X112215581Y-99680250D01*
X112220797Y-99701074D01*
X112223947Y-99722309D01*
X112225000Y-99743750D01*
X112225000Y-100256250D01*
X112223947Y-100277691D01*
X112220797Y-100298926D01*
X112215581Y-100319750D01*
X112208349Y-100339962D01*
X112199170Y-100359368D01*
X112188134Y-100377781D01*
X112175346Y-100395024D01*
X112160930Y-100410930D01*
X112145024Y-100425346D01*
X112127781Y-100438134D01*
X112109368Y-100449170D01*
X112089962Y-100458349D01*
X112069750Y-100465581D01*
X112048926Y-100470797D01*
X112027691Y-100473947D01*
X112006250Y-100475000D01*
X111568750Y-100475000D01*
X111547309Y-100473947D01*
X111526074Y-100470797D01*
X111505250Y-100465581D01*
X111485038Y-100458349D01*
X111465632Y-100449170D01*
X111447219Y-100438134D01*
X111429976Y-100425346D01*
X111414070Y-100410930D01*
X111399654Y-100395024D01*
X111386866Y-100377781D01*
X111375830Y-100359368D01*
X111366651Y-100339962D01*
X111359419Y-100319750D01*
X111354203Y-100298926D01*
X111351053Y-100277691D01*
X111350000Y-100256250D01*
X111350000Y-99743750D01*
X111351053Y-99722309D01*
X111354203Y-99701074D01*
X111359419Y-99680250D01*
X111366651Y-99660038D01*
X111375830Y-99640632D01*
X111386866Y-99622219D01*
X111399654Y-99604976D01*
X111414070Y-99589070D01*
X111429976Y-99574654D01*
X111447219Y-99561866D01*
X111465632Y-99550830D01*
X111485038Y-99541651D01*
X111505250Y-99534419D01*
X111526074Y-99529203D01*
X111547309Y-99526053D01*
X111568750Y-99525000D01*
X112006250Y-99525000D01*
X112027691Y-99526053D01*
X112027691Y-99526053D01*
G37*
D11*
X111787500Y-100000000D03*
D10*
G36*
X92020601Y-85426145D02*
G01*
X92041927Y-85428599D01*
X92062911Y-85433131D01*
X92083349Y-85439698D01*
X92103045Y-85448236D01*
X92121809Y-85458664D01*
X92139461Y-85470881D01*
X92155830Y-85484769D01*
X92170759Y-85500195D01*
X92184104Y-85517010D01*
X92195737Y-85535052D01*
X92414487Y-85913938D01*
X92424295Y-85933033D01*
X92432185Y-85952998D01*
X92438080Y-85973640D01*
X92441923Y-85994760D01*
X92443677Y-86016156D01*
X92443326Y-86037620D01*
X92440872Y-86058946D01*
X92436340Y-86079930D01*
X92429773Y-86100368D01*
X92421235Y-86120064D01*
X92410807Y-86138828D01*
X92398590Y-86156480D01*
X92384702Y-86172849D01*
X92369276Y-86187778D01*
X92352461Y-86201123D01*
X92334419Y-86212756D01*
X91890581Y-86469006D01*
X91871486Y-86478814D01*
X91851521Y-86486704D01*
X91830879Y-86492599D01*
X91809759Y-86496442D01*
X91788363Y-86498196D01*
X91766899Y-86497845D01*
X91745573Y-86495391D01*
X91724589Y-86490859D01*
X91704151Y-86484292D01*
X91684455Y-86475754D01*
X91665691Y-86465326D01*
X91648039Y-86453109D01*
X91631670Y-86439221D01*
X91616741Y-86423795D01*
X91603396Y-86406980D01*
X91591763Y-86388938D01*
X91373013Y-86010052D01*
X91363205Y-85990957D01*
X91355315Y-85970992D01*
X91349420Y-85950350D01*
X91345577Y-85929230D01*
X91343823Y-85907834D01*
X91344174Y-85886370D01*
X91346628Y-85865044D01*
X91351160Y-85844060D01*
X91357727Y-85823622D01*
X91366265Y-85803926D01*
X91376693Y-85785162D01*
X91388910Y-85767510D01*
X91402798Y-85751141D01*
X91418224Y-85736212D01*
X91435039Y-85722867D01*
X91453081Y-85711234D01*
X91896919Y-85454984D01*
X91916014Y-85445176D01*
X91935979Y-85437286D01*
X91956621Y-85431391D01*
X91977741Y-85427548D01*
X91999137Y-85425794D01*
X92020601Y-85426145D01*
X92020601Y-85426145D01*
G37*
D11*
X91893750Y-85961995D03*
D10*
G36*
X91233101Y-84062155D02*
G01*
X91254427Y-84064609D01*
X91275411Y-84069141D01*
X91295849Y-84075708D01*
X91315545Y-84084246D01*
X91334309Y-84094674D01*
X91351961Y-84106891D01*
X91368330Y-84120779D01*
X91383259Y-84136205D01*
X91396604Y-84153020D01*
X91408237Y-84171062D01*
X91626987Y-84549948D01*
X91636795Y-84569043D01*
X91644685Y-84589008D01*
X91650580Y-84609650D01*
X91654423Y-84630770D01*
X91656177Y-84652166D01*
X91655826Y-84673630D01*
X91653372Y-84694956D01*
X91648840Y-84715940D01*
X91642273Y-84736378D01*
X91633735Y-84756074D01*
X91623307Y-84774838D01*
X91611090Y-84792490D01*
X91597202Y-84808859D01*
X91581776Y-84823788D01*
X91564961Y-84837133D01*
X91546919Y-84848766D01*
X91103081Y-85105016D01*
X91083986Y-85114824D01*
X91064021Y-85122714D01*
X91043379Y-85128609D01*
X91022259Y-85132452D01*
X91000863Y-85134206D01*
X90979399Y-85133855D01*
X90958073Y-85131401D01*
X90937089Y-85126869D01*
X90916651Y-85120302D01*
X90896955Y-85111764D01*
X90878191Y-85101336D01*
X90860539Y-85089119D01*
X90844170Y-85075231D01*
X90829241Y-85059805D01*
X90815896Y-85042990D01*
X90804263Y-85024948D01*
X90585513Y-84646062D01*
X90575705Y-84626967D01*
X90567815Y-84607002D01*
X90561920Y-84586360D01*
X90558077Y-84565240D01*
X90556323Y-84543844D01*
X90556674Y-84522380D01*
X90559128Y-84501054D01*
X90563660Y-84480070D01*
X90570227Y-84459632D01*
X90578765Y-84439936D01*
X90589193Y-84421172D01*
X90601410Y-84403520D01*
X90615298Y-84387151D01*
X90630724Y-84372222D01*
X90647539Y-84358877D01*
X90665581Y-84347244D01*
X91109419Y-84090994D01*
X91128514Y-84081186D01*
X91148479Y-84073296D01*
X91169121Y-84067401D01*
X91190241Y-84063558D01*
X91211637Y-84061804D01*
X91233101Y-84062155D01*
X91233101Y-84062155D01*
G37*
D11*
X91106250Y-84598005D03*
D10*
G36*
X84565240Y-90558077D02*
G01*
X84586360Y-90561920D01*
X84607002Y-90567815D01*
X84626967Y-90575705D01*
X84646062Y-90585513D01*
X85024948Y-90804263D01*
X85042990Y-90815896D01*
X85059805Y-90829241D01*
X85075231Y-90844170D01*
X85089119Y-90860539D01*
X85101336Y-90878191D01*
X85111764Y-90896955D01*
X85120302Y-90916651D01*
X85126869Y-90937089D01*
X85131401Y-90958073D01*
X85133855Y-90979399D01*
X85134206Y-91000863D01*
X85132452Y-91022259D01*
X85128609Y-91043379D01*
X85122714Y-91064021D01*
X85114824Y-91083986D01*
X85105016Y-91103081D01*
X84848766Y-91546919D01*
X84837133Y-91564961D01*
X84823788Y-91581776D01*
X84808859Y-91597202D01*
X84792490Y-91611090D01*
X84774838Y-91623307D01*
X84756074Y-91633735D01*
X84736378Y-91642273D01*
X84715940Y-91648840D01*
X84694956Y-91653372D01*
X84673630Y-91655826D01*
X84652166Y-91656177D01*
X84630770Y-91654423D01*
X84609650Y-91650580D01*
X84589008Y-91644685D01*
X84569043Y-91636795D01*
X84549948Y-91626987D01*
X84171062Y-91408237D01*
X84153020Y-91396604D01*
X84136205Y-91383259D01*
X84120779Y-91368330D01*
X84106891Y-91351961D01*
X84094674Y-91334309D01*
X84084246Y-91315545D01*
X84075708Y-91295849D01*
X84069141Y-91275411D01*
X84064609Y-91254427D01*
X84062155Y-91233101D01*
X84061804Y-91211637D01*
X84063558Y-91190241D01*
X84067401Y-91169121D01*
X84073296Y-91148479D01*
X84081186Y-91128514D01*
X84090994Y-91109419D01*
X84347244Y-90665581D01*
X84358877Y-90647539D01*
X84372222Y-90630724D01*
X84387151Y-90615298D01*
X84403520Y-90601410D01*
X84421172Y-90589193D01*
X84439936Y-90578765D01*
X84459632Y-90570227D01*
X84480070Y-90563660D01*
X84501054Y-90559128D01*
X84522380Y-90556674D01*
X84543844Y-90556323D01*
X84565240Y-90558077D01*
X84565240Y-90558077D01*
G37*
D11*
X84598005Y-91106250D03*
D10*
G36*
X85929230Y-91345577D02*
G01*
X85950350Y-91349420D01*
X85970992Y-91355315D01*
X85990957Y-91363205D01*
X86010052Y-91373013D01*
X86388938Y-91591763D01*
X86406980Y-91603396D01*
X86423795Y-91616741D01*
X86439221Y-91631670D01*
X86453109Y-91648039D01*
X86465326Y-91665691D01*
X86475754Y-91684455D01*
X86484292Y-91704151D01*
X86490859Y-91724589D01*
X86495391Y-91745573D01*
X86497845Y-91766899D01*
X86498196Y-91788363D01*
X86496442Y-91809759D01*
X86492599Y-91830879D01*
X86486704Y-91851521D01*
X86478814Y-91871486D01*
X86469006Y-91890581D01*
X86212756Y-92334419D01*
X86201123Y-92352461D01*
X86187778Y-92369276D01*
X86172849Y-92384702D01*
X86156480Y-92398590D01*
X86138828Y-92410807D01*
X86120064Y-92421235D01*
X86100368Y-92429773D01*
X86079930Y-92436340D01*
X86058946Y-92440872D01*
X86037620Y-92443326D01*
X86016156Y-92443677D01*
X85994760Y-92441923D01*
X85973640Y-92438080D01*
X85952998Y-92432185D01*
X85933033Y-92424295D01*
X85913938Y-92414487D01*
X85535052Y-92195737D01*
X85517010Y-92184104D01*
X85500195Y-92170759D01*
X85484769Y-92155830D01*
X85470881Y-92139461D01*
X85458664Y-92121809D01*
X85448236Y-92103045D01*
X85439698Y-92083349D01*
X85433131Y-92062911D01*
X85428599Y-92041927D01*
X85426145Y-92020601D01*
X85425794Y-91999137D01*
X85427548Y-91977741D01*
X85431391Y-91956621D01*
X85437286Y-91935979D01*
X85445176Y-91916014D01*
X85454984Y-91896919D01*
X85711234Y-91453081D01*
X85722867Y-91435039D01*
X85736212Y-91418224D01*
X85751141Y-91402798D01*
X85767510Y-91388910D01*
X85785162Y-91376693D01*
X85803926Y-91366265D01*
X85823622Y-91357727D01*
X85844060Y-91351160D01*
X85865044Y-91346628D01*
X85886370Y-91344174D01*
X85907834Y-91343823D01*
X85929230Y-91345577D01*
X85929230Y-91345577D01*
G37*
D11*
X85961995Y-91893750D03*
D10*
G36*
X84027691Y-99526053D02*
G01*
X84048926Y-99529203D01*
X84069750Y-99534419D01*
X84089962Y-99541651D01*
X84109368Y-99550830D01*
X84127781Y-99561866D01*
X84145024Y-99574654D01*
X84160930Y-99589070D01*
X84175346Y-99604976D01*
X84188134Y-99622219D01*
X84199170Y-99640632D01*
X84208349Y-99660038D01*
X84215581Y-99680250D01*
X84220797Y-99701074D01*
X84223947Y-99722309D01*
X84225000Y-99743750D01*
X84225000Y-100256250D01*
X84223947Y-100277691D01*
X84220797Y-100298926D01*
X84215581Y-100319750D01*
X84208349Y-100339962D01*
X84199170Y-100359368D01*
X84188134Y-100377781D01*
X84175346Y-100395024D01*
X84160930Y-100410930D01*
X84145024Y-100425346D01*
X84127781Y-100438134D01*
X84109368Y-100449170D01*
X84089962Y-100458349D01*
X84069750Y-100465581D01*
X84048926Y-100470797D01*
X84027691Y-100473947D01*
X84006250Y-100475000D01*
X83568750Y-100475000D01*
X83547309Y-100473947D01*
X83526074Y-100470797D01*
X83505250Y-100465581D01*
X83485038Y-100458349D01*
X83465632Y-100449170D01*
X83447219Y-100438134D01*
X83429976Y-100425346D01*
X83414070Y-100410930D01*
X83399654Y-100395024D01*
X83386866Y-100377781D01*
X83375830Y-100359368D01*
X83366651Y-100339962D01*
X83359419Y-100319750D01*
X83354203Y-100298926D01*
X83351053Y-100277691D01*
X83350000Y-100256250D01*
X83350000Y-99743750D01*
X83351053Y-99722309D01*
X83354203Y-99701074D01*
X83359419Y-99680250D01*
X83366651Y-99660038D01*
X83375830Y-99640632D01*
X83386866Y-99622219D01*
X83399654Y-99604976D01*
X83414070Y-99589070D01*
X83429976Y-99574654D01*
X83447219Y-99561866D01*
X83465632Y-99550830D01*
X83485038Y-99541651D01*
X83505250Y-99534419D01*
X83526074Y-99529203D01*
X83547309Y-99526053D01*
X83568750Y-99525000D01*
X84006250Y-99525000D01*
X84027691Y-99526053D01*
X84027691Y-99526053D01*
G37*
D11*
X83787500Y-100000000D03*
D10*
G36*
X82452691Y-99526053D02*
G01*
X82473926Y-99529203D01*
X82494750Y-99534419D01*
X82514962Y-99541651D01*
X82534368Y-99550830D01*
X82552781Y-99561866D01*
X82570024Y-99574654D01*
X82585930Y-99589070D01*
X82600346Y-99604976D01*
X82613134Y-99622219D01*
X82624170Y-99640632D01*
X82633349Y-99660038D01*
X82640581Y-99680250D01*
X82645797Y-99701074D01*
X82648947Y-99722309D01*
X82650000Y-99743750D01*
X82650000Y-100256250D01*
X82648947Y-100277691D01*
X82645797Y-100298926D01*
X82640581Y-100319750D01*
X82633349Y-100339962D01*
X82624170Y-100359368D01*
X82613134Y-100377781D01*
X82600346Y-100395024D01*
X82585930Y-100410930D01*
X82570024Y-100425346D01*
X82552781Y-100438134D01*
X82534368Y-100449170D01*
X82514962Y-100458349D01*
X82494750Y-100465581D01*
X82473926Y-100470797D01*
X82452691Y-100473947D01*
X82431250Y-100475000D01*
X81993750Y-100475000D01*
X81972309Y-100473947D01*
X81951074Y-100470797D01*
X81930250Y-100465581D01*
X81910038Y-100458349D01*
X81890632Y-100449170D01*
X81872219Y-100438134D01*
X81854976Y-100425346D01*
X81839070Y-100410930D01*
X81824654Y-100395024D01*
X81811866Y-100377781D01*
X81800830Y-100359368D01*
X81791651Y-100339962D01*
X81784419Y-100319750D01*
X81779203Y-100298926D01*
X81776053Y-100277691D01*
X81775000Y-100256250D01*
X81775000Y-99743750D01*
X81776053Y-99722309D01*
X81779203Y-99701074D01*
X81784419Y-99680250D01*
X81791651Y-99660038D01*
X81800830Y-99640632D01*
X81811866Y-99622219D01*
X81824654Y-99604976D01*
X81839070Y-99589070D01*
X81854976Y-99574654D01*
X81872219Y-99561866D01*
X81890632Y-99550830D01*
X81910038Y-99541651D01*
X81930250Y-99534419D01*
X81951074Y-99529203D01*
X81972309Y-99526053D01*
X81993750Y-99525000D01*
X82431250Y-99525000D01*
X82452691Y-99526053D01*
X82452691Y-99526053D01*
G37*
D11*
X82212500Y-100000000D03*
D10*
G36*
X91022259Y-114867548D02*
G01*
X91043379Y-114871391D01*
X91064021Y-114877286D01*
X91083986Y-114885176D01*
X91103081Y-114894984D01*
X91546919Y-115151234D01*
X91564961Y-115162867D01*
X91581776Y-115176212D01*
X91597202Y-115191141D01*
X91611090Y-115207510D01*
X91623307Y-115225162D01*
X91633735Y-115243926D01*
X91642273Y-115263622D01*
X91648840Y-115284060D01*
X91653372Y-115305044D01*
X91655826Y-115326370D01*
X91656177Y-115347834D01*
X91654423Y-115369230D01*
X91650580Y-115390350D01*
X91644685Y-115410992D01*
X91636795Y-115430957D01*
X91626987Y-115450052D01*
X91408237Y-115828938D01*
X91396604Y-115846980D01*
X91383259Y-115863795D01*
X91368330Y-115879221D01*
X91351961Y-115893109D01*
X91334309Y-115905326D01*
X91315545Y-115915754D01*
X91295849Y-115924292D01*
X91275411Y-115930859D01*
X91254427Y-115935391D01*
X91233101Y-115937845D01*
X91211637Y-115938196D01*
X91190241Y-115936442D01*
X91169121Y-115932599D01*
X91148479Y-115926704D01*
X91128514Y-115918814D01*
X91109419Y-115909006D01*
X90665581Y-115652756D01*
X90647539Y-115641123D01*
X90630724Y-115627778D01*
X90615298Y-115612849D01*
X90601410Y-115596480D01*
X90589193Y-115578828D01*
X90578765Y-115560064D01*
X90570227Y-115540368D01*
X90563660Y-115519930D01*
X90559128Y-115498946D01*
X90556674Y-115477620D01*
X90556323Y-115456156D01*
X90558077Y-115434760D01*
X90561920Y-115413640D01*
X90567815Y-115392998D01*
X90575705Y-115373033D01*
X90585513Y-115353938D01*
X90804263Y-114975052D01*
X90815896Y-114957010D01*
X90829241Y-114940195D01*
X90844170Y-114924769D01*
X90860539Y-114910881D01*
X90878191Y-114898664D01*
X90896955Y-114888236D01*
X90916651Y-114879698D01*
X90937089Y-114873131D01*
X90958073Y-114868599D01*
X90979399Y-114866145D01*
X91000863Y-114865794D01*
X91022259Y-114867548D01*
X91022259Y-114867548D01*
G37*
D11*
X91106250Y-115401995D03*
D10*
G36*
X91809759Y-113503558D02*
G01*
X91830879Y-113507401D01*
X91851521Y-113513296D01*
X91871486Y-113521186D01*
X91890581Y-113530994D01*
X92334419Y-113787244D01*
X92352461Y-113798877D01*
X92369276Y-113812222D01*
X92384702Y-113827151D01*
X92398590Y-113843520D01*
X92410807Y-113861172D01*
X92421235Y-113879936D01*
X92429773Y-113899632D01*
X92436340Y-113920070D01*
X92440872Y-113941054D01*
X92443326Y-113962380D01*
X92443677Y-113983844D01*
X92441923Y-114005240D01*
X92438080Y-114026360D01*
X92432185Y-114047002D01*
X92424295Y-114066967D01*
X92414487Y-114086062D01*
X92195737Y-114464948D01*
X92184104Y-114482990D01*
X92170759Y-114499805D01*
X92155830Y-114515231D01*
X92139461Y-114529119D01*
X92121809Y-114541336D01*
X92103045Y-114551764D01*
X92083349Y-114560302D01*
X92062911Y-114566869D01*
X92041927Y-114571401D01*
X92020601Y-114573855D01*
X91999137Y-114574206D01*
X91977741Y-114572452D01*
X91956621Y-114568609D01*
X91935979Y-114562714D01*
X91916014Y-114554824D01*
X91896919Y-114545016D01*
X91453081Y-114288766D01*
X91435039Y-114277133D01*
X91418224Y-114263788D01*
X91402798Y-114248859D01*
X91388910Y-114232490D01*
X91376693Y-114214838D01*
X91366265Y-114196074D01*
X91357727Y-114176378D01*
X91351160Y-114155940D01*
X91346628Y-114134956D01*
X91344174Y-114113630D01*
X91343823Y-114092166D01*
X91345577Y-114070770D01*
X91349420Y-114049650D01*
X91355315Y-114029008D01*
X91363205Y-114009043D01*
X91373013Y-113989948D01*
X91591763Y-113611062D01*
X91603396Y-113593020D01*
X91616741Y-113576205D01*
X91631670Y-113560779D01*
X91648039Y-113546891D01*
X91665691Y-113534674D01*
X91684455Y-113524246D01*
X91704151Y-113515708D01*
X91724589Y-113509141D01*
X91745573Y-113504609D01*
X91766899Y-113502155D01*
X91788363Y-113501804D01*
X91809759Y-113503558D01*
X91809759Y-113503558D01*
G37*
D11*
X91893750Y-114038005D03*
D12*
X95650000Y-97250000D03*
X95650000Y-97750000D03*
X95650000Y-98250000D03*
X95650000Y-98750000D03*
X95650000Y-99250000D03*
X95650000Y-99750000D03*
X95650000Y-100250000D03*
X95650000Y-100750000D03*
X95650000Y-101250000D03*
X95650000Y-101750000D03*
X95650000Y-102250000D03*
X95650000Y-102750000D03*
D13*
X97250000Y-104350000D03*
X97750000Y-104350000D03*
X98250000Y-104350000D03*
X98750000Y-104350000D03*
X99250000Y-104350000D03*
X99750000Y-104350000D03*
X100250000Y-104350000D03*
X100750000Y-104350000D03*
X101250000Y-104350000D03*
X101750000Y-104350000D03*
X102250000Y-104350000D03*
X102750000Y-104350000D03*
D12*
X104350000Y-102750000D03*
X104350000Y-102250000D03*
X104350000Y-101750000D03*
X104350000Y-101250000D03*
X104350000Y-100750000D03*
X104350000Y-100250000D03*
X104350000Y-99750000D03*
X104350000Y-99250000D03*
X104350000Y-98750000D03*
X104350000Y-98250000D03*
X104350000Y-97750000D03*
X104350000Y-97250000D03*
D13*
X102750000Y-95650000D03*
X102250000Y-95650000D03*
X101750000Y-95650000D03*
X101250000Y-95650000D03*
X100750000Y-95650000D03*
X100250000Y-95650000D03*
X99750000Y-95650000D03*
X99250000Y-95650000D03*
X98750000Y-95650000D03*
X98250000Y-95650000D03*
X97750000Y-95650000D03*
X97250000Y-95650000D03*
M02*
